<mxfile host="Electron" modified="2024-02-21T09:22:57.478Z" agent="Mozilla/5.0 (Macintosh; Intel Mac OS X 10_15_7) AppleWebKit/537.36 (KHTML, like Gecko) draw.io/23.1.5 Chrome/120.0.6099.109 Electron/28.1.0 Safari/537.36" etag="P0REKunRVaz67oP5Hp9y" scale="1" border="0" version="23.1.5" type="device">
  <diagram name="W2I_2024" id="DZBTKWNAqxpKxW8G6J5u">
    <mxGraphModel dx="1562" dy="998" grid="1" gridSize="10" guides="1" tooltips="1" connect="1" arrows="1" fold="1" page="1" pageScale="1" pageWidth="2336" pageHeight="1654" math="0" shadow="0">
      <root>
        <mxCell id="v15C_StxA6uIfy9EPT-R-0" />
        <mxCell id="v15C_StxA6uIfy9EPT-R-1" parent="v15C_StxA6uIfy9EPT-R-0" />
        <mxCell id="WhO8sSTrkAHzqlUvpctj-0" value="" style="rounded=1;whiteSpace=wrap;html=1;strokeColor=#0070F2;fillColor=#EBF8FF;arcSize=32;absoluteArcSize=1;imageWidth=64;imageHeight=64;strokeWidth=1.5;" vertex="1" parent="v15C_StxA6uIfy9EPT-R-1">
          <mxGeometry x="250" y="40" width="400" height="540" as="geometry" />
        </mxCell>
        <mxCell id="WhO8sSTrkAHzqlUvpctj-1" value="" style="rounded=1;whiteSpace=wrap;html=1;strokeColor=#0070F2;strokeWidth=1.5;arcSize=16;fillColor=#FFFFFF;perimeterSpacing=0;absoluteArcSize=1;" vertex="1" parent="v15C_StxA6uIfy9EPT-R-1">
          <mxGeometry x="273.78" y="94.13" width="356.22" height="325.87" as="geometry" />
        </mxCell>
        <mxCell id="WhO8sSTrkAHzqlUvpctj-2" value="" style="shape=image;verticalLabelPosition=bottom;labelBackgroundColor=default;verticalAlign=top;aspect=fixed;imageAspect=0;image=data:image/svg+xml,PHN2ZyB4bWxuczp4bGluaz0iaHR0cDovL3d3dy53My5vcmcvMTk5OS94bGluayIgeG1sbnM9Imh0dHA6Ly93d3cudzMub3JnLzIwMDAvc3ZnIiB2aWV3Qm94PSIwIDAgMTQ0Ljc0NyAzOS44MzIiIGlkPSJhIj48ZGVmcz48bGluZWFyR3JhZGllbnQgZ3JhZGllbnRVbml0cz0idXNlclNwYWNlT25Vc2UiIHkyPSIzOS44MzIiIHgyPSI0MC4yNTgiIHkxPSIwIiB4MT0iNDAuMjU4IiBpZD0iYiI+PHN0b3Agc3RvcC1jb2xvcj0iIzAwYjhmMSIgb2Zmc2V0PSIwIi8+PHN0b3Agc3RvcC1jb2xvcj0iIzAwYjVlZiIgb2Zmc2V0PSIuMDE2Ii8+PHN0b3Agc3RvcC1jb2xvcj0iIzBkOTBkOCIgb2Zmc2V0PSIuMzA4Ii8+PHN0b3Agc3RvcC1jb2xvcj0iIzE2NzVjOCIgb2Zmc2V0PSIuNTc4Ii8+PHN0b3Agc3RvcC1jb2xvcj0iIzFjNjRiZSIgb2Zmc2V0PSIuODE3Ii8+PHN0b3Agc3RvcC1jb2xvcj0iIzFlNWZiYiIgb2Zmc2V0PSIxIi8+PC9saW5lYXJHcmFkaWVudD48L2RlZnM+PHBvbHlsaW5lIGZpbGwtcnVsZT0iZXZlbm9kZCIgZmlsbD0idXJsKCNiKSIgcG9pbnRzPSIwIDM5LjgzMiA0MC42OTIgMzkuODMyIDgwLjUxNyAwIDAgMCAwIDM5LjgzMiIvPjxwYXRoIGZpbGwtcnVsZT0iZXZlbm9kZCIgZmlsbD0iI2ZmZiIgZD0ibTQ3Ljc4Miw3LjQ4OWwtNy45MjUtLjAwNXYxOC44NDVsLTYuOTI0LTE4Ljg0NWgtNi44NjVsLTUuOTEyLDE1Ljc1OWMtLjYzLTMuOTczLTQuNzQtNS4zNDUtNy45NzQtNi4zNzQtMi4xMzUtLjY4Ni00LjQwMS0xLjY5NC00LjM4LTIuODA5LjAxNy0uOTE1LDEuMjE1LTEuNzY1LDMuNTg5LTEuNjM3LDEuNTk1LjA4NCwzLjAwMS4yMTMsNS44LDEuNTYzbDIuNzUzLTQuNzk1Yy0yLjU1NS0xLjMtNi4wODYtMi4xMjEtOC45NzgtMi4xMjRoLS4wMTdjLTMuMzc0LDAtNi4xODUsMS4wOTMtNy45MjgsMi44OTQtMS4yMTQsMS4yNTgtMS44NjksMi44NTYtMS44OTYsNC42MjMtLjA0NCwyLjQzMi44NDgsNC4xNTcsMi43MjEsNS41MzMsMS41ODMsMS4xNiwzLjYwNiwxLjkxMiw1LjM5LDIuNDY1LDIuMjAxLjY4MSwzLjk5NiwxLjI3NCwzLjk3NSwyLjUzOS0uMDE2LjQ1OS0uMTkxLjg4OC0uNTIxLDEuMjM2LS41NDguNTY2LTEuMzkxLjc3OS0yLjU1NS43OTktMi4yNDQuMDQ4LTMuOTEtLjMwMy02LjU2Mi0xLjg3bC0yLjQ0OCw0Ljg2MWMyLjY0NCwxLjUwNiw1Ljc3NiwyLjM4OCw4Ljk3MiwyLjM4OGwuNDExLS4wMDZjMi43ODItLjA1LDUuMDI2LS44NDIsNi44Mi0yLjI4Ni4xMDMtLjA4MS4xOTYtLjE2Ni4yOTEtLjI1bC0uNzk1LDIuMTIzaDcuMmwxLjIwOC0zLjY3NGMxLjI2NS40MzMsMi43MDQuNjcxLDQuMjMyLjY3MSwxLjQ4NywwLDIuODg5LS4yMjksNC4xMzEtLjYzNWwxLjE2NCwzLjYzN2gxMS43NDJ2LTcuNjA3aDIuNTYxYzYuMTg4LDAsOS44NTEtMy4xNTQsOS44NTEtOC40MzYsMC01Ljg4NS0zLjU1Ny04LjU4NS0xMS4xMzItOC41ODVabS0xOC4zMTcsMTYuMTI0Yy0uOTI1LDAtMS43OTItLjE2LTIuNTM5LS40NDNsMi41MTItNy45MjZoLjA0OGwyLjQ2OCw3Ljk0OGMtLjc0Mi4yNjMtMS41ODkuNDIxLTIuNDg4LjQyMVptMTguNzgzLTQuNTUzaC0xLjc0NnYtNi4zODZoMS43NDZjMi4zMjgsMCw0LjE4NS43NzMsNC4xODUsMy4xNTEsMCwyLjQ2MS0xLjg1NywzLjIzNi00LjE4NSwzLjIzNiIvPjxwYXRoIGZpbGw9IiMwMDJhODYiIGQ9Im04MC4yMTcsNy40MDFoMTAuMDYzYzUuNTk1LDAsOC42NzQsMS45MTcsOC42NzQsNi4xNTgsMCwyLjkwMy0xLjUxMyw1LjAxNC00LjMxMSw1LjcsMy4yOS40NTgsNS4yNzgsMi41ODYsNS4yNzgsNS44OTQsMCw1LjAxNC00LjA2NCw3LjAzNy05LjE4NCw3LjAzN2gtMTAuNTIxVjcuNDAxWm0xMy45NjksNi44MjZjMC0yLjE2NC0xLjQ5Ni0yLjk3My00LjI0LTIuOTczaC01LjA0OXY2LjI5OGg0Ljg5MWMzLjIwMiwwLDQuMzk4LTEuMTYxLDQuMzk4LTMuMzI1Wm0xLjAyMSwxMC41MjFjMC0yLjM1Ny0xLjc3Ny0zLjQ2Ni00LjgzOS0zLjQ2NmgtNS40NzF2Ny4wNTVoNS41MDZjMi44MTUsMCw0LjgwNC0uNzc0LDQuODA0LTMuNTg5WiIvPjxwYXRoIGZpbGw9IiMwMDJhODYiIGQ9Im0xMDkuMDUxLDExLjVoLTcuNTgzdi00LjA5OWgxOS44NDZ2NC4wOTloLTcuNTY1djIwLjY5aC00LjY5N1YxMS41WiIvPjxwYXRoIGZpbGw9IiMwMDJhODYiIGQ9Im0xMjUuMTQ4LDcuNDAxaDEwLjUwNGM2LjE5MiwwLDkuMDk2LDMuMTg1LDkuMDk2LDcuODk5LDAsNC4zOTgtMi44MzMsOC4xNDYtOC44NSw4LjE0NmgtNi4wN3Y4Ljc0NGgtNC42OFY3LjQwMVptMTQuOTAyLDcuOTUyYzAtMi41NTEtMS42ODktMy45MjMtNC45NDQtMy45MjNoLTUuMjc4djguMDRoNS40MTljMy4yNzIsMCw0LjgwNC0xLjU4Myw0LjgwNC00LjExN1oiLz48L3N2Zz4=;strokeWidth=1.5;" vertex="1" parent="v15C_StxA6uIfy9EPT-R-1">
          <mxGeometry x="268.24999999999994" y="56.81000000000006" width="67.25" height="18.55" as="geometry" />
        </mxCell>
        <mxCell id="WhO8sSTrkAHzqlUvpctj-3" value="&lt;font face=&quot;arial&quot; style=&quot;font-size: 16px;&quot;&gt;&lt;b style=&quot;font-size: 16px;&quot;&gt;SAP Cloud Identity Services&lt;/b&gt;&lt;/font&gt;" style="text;html=1;align=left;verticalAlign=middle;resizable=0;points=[];autosize=1;strokeColor=none;fillColor=none;fontSize=12;fontColor=#1d2d3e;fontFamily=Helvetica;" vertex="1" parent="v15C_StxA6uIfy9EPT-R-1">
          <mxGeometry x="284.84000000000003" y="104.13999999999999" width="240" height="30" as="geometry" />
        </mxCell>
        <mxCell id="WhO8sSTrkAHzqlUvpctj-4" value="" style="group" vertex="1" connectable="0" parent="v15C_StxA6uIfy9EPT-R-1">
          <mxGeometry x="90" y="297" width="140" height="90" as="geometry" />
        </mxCell>
        <mxCell id="WhO8sSTrkAHzqlUvpctj-5" value="&lt;div style=&quot;&quot;&gt;&lt;font style=&quot;font-size: 10px;&quot;&gt;3rd party identity provider /&lt;br&gt;identity management&lt;/font&gt;&lt;br&gt;&lt;/div&gt;" style="text;html=1;align=center;verticalAlign=middle;resizable=0;points=[];autosize=1;strokeColor=none;fillColor=none;fontSize=12;fontColor=#556B82;fontFamily=Helvetica;" vertex="1" parent="WhO8sSTrkAHzqlUvpctj-4">
          <mxGeometry y="50" width="140" height="40" as="geometry" />
        </mxCell>
        <mxCell id="WhO8sSTrkAHzqlUvpctj-6" value="" style="shape=image;verticalLabelPosition=bottom;labelBackgroundColor=default;verticalAlign=top;aspect=fixed;imageAspect=0;image=data:image/svg+xml,PHN2ZyB4bWxucz0iaHR0cDovL3d3dy53My5vcmcvMjAwMC9zdmciIGZpbGw9Im5vbmUiIHZpZXdCb3g9IjAgMCAxNyAxNyIgaGVpZ2h0PSIxNyIgd2lkdGg9IjE3Ij4mI3hhOzxwYXRoIGZpbGw9InVybCgjcGFpbnQwX2xpbmVhcl83NzVfOCkiIGQ9Ik0xMy42NzU2IDguNjM3NDhDMTQuNjQ2OSA5LjE3MTcxIDE1LjQ2NDcgOS45NDY0NiAxNi4wNTA2IDEwLjg4NzVDMTYuNjU0NiAxMS44NDU1IDE2Ljk1NjYgMTIuOTI4NSAxNi45NTY2IDE0LjEzNzVWMTUuOTE4NUMxNi45NTY2IDE2LjUwMTUgMTYuNjU0NiAxNi43OTM1IDE2LjA1MDYgMTYuNzkzNUg1LjQyNTY0QzUuMTU0NjQgMTYuNzkzNSA0LjkzNTY0IDE2LjcxMDUgNC43Njg2NCAxNi41NDM1QzQuNjAyNjQgMTYuMzk3NSA0LjUxODY0IDE2LjE4OTUgNC41MTg2NCAxNS45MTg1VjE1LjAxMjVIMS44NjI2NEMxLjI3OTY0IDE1LjAxMjUgMC45ODc2NCAxNC43MjA1IDAuOTg3NjQgMTQuMTM3NVYxMi4zNTY1QzAuOTg3NjQgMTEuNDgwNSAxLjIyNzY0IDEwLjY4OTUgMS43MDY2NCA5Ljk4MDQ4QzIuMTY0MzUgOS4yOTEwOSAyLjgwMjA3IDguNzQwMTcgMy41NTA2NCA4LjM4NzQ4QzMuMjg2MjIgOC4wODYyMyAzLjA4NDMxIDcuNzM1NDMgMi45NTY2NCA3LjM1NTQ4QzIuODMzNCA2Ljk3MTgxIDIuNzY5OTkgNi41NzE0NSAyLjc2ODY0IDYuMTY4NDhDMi43Njg2NCA1LjY2ODQ4IDIuODYyNjQgNS4yMTA0OCAzLjA1MDY0IDQuNzkzNDhDMy4yMzc2NCA0LjM1NTQ4IDMuNDg3NjQgMy45ODA0OCAzLjgwMDY0IDMuNjY4NDhDNC4xMjQ3OCAzLjM0MTYxIDQuNTA2MDggMy4wNzY5IDQuOTI1NjQgMi44ODc0OEM1LjM1OTkyIDIuNzAwNzMgNS44Mjc5MSAyLjYwNTA5IDYuMzAwNjQgMi42MDY0OEM2LjQ0NjY0IDIuNjA2NDggNi41ODE2NCAyLjYxNjQ4IDYuNzA2NjQgMi42MzY0OEM2LjgzMTY0IDIuNjM2NDggNi45NjY2NCAyLjY1ODQ4IDcuMTEyNjQgMi42OTk0OEM3LjUwMjE5IDIuMTIxOSA4LjAyODQ3IDEuNjQ5NTYgOC42NDQ2NCAxLjMyNDQ4QzkuMjkxNTggMC45OTA5MiAxMC4wMDk4IDAuODE5MzQzIDEwLjczNzYgMC44MjQ0NzZDMTEuMzYyNiAwLjgyNDQ3NiAxMS45NDY2IDAuOTM5NDc2IDEyLjQ4NzYgMS4xNjg0OEMxMy4wMjk2IDEuMzk4NDggMTMuNDk3NiAxLjcyMDQ4IDEzLjg5MzYgMi4xMzc0OEMxNC4yODk2IDIuNTMzNDggMTQuNjAyNiAzLjAwMTQ4IDE0LjgzMTYgMy41NDM0OEMxNS4wNjE2IDQuMDYzNDggMTUuMTc1NiA0LjYzNzQ4IDE1LjE3NTYgNS4yNjI0OEMxNS4xNzc3IDUuOTE5NDggMTUuMDM5MiA2LjU2OTMzIDE0Ljc2OTYgNy4xNjg0OEMxNC41MjkgNy43MzkzMiAxNC4xNTM2IDguMjQzMzYgMTMuNjc1NiA4LjYzNzQ4Wk0xMC43MzY2IDIuNjA1NDhDOS45ODY2NCAyLjYwNTQ4IDkuMzUxNjQgMi44NjU0OCA4LjgzMDY0IDMuMzg3NDhDOC4zMzA2NCAzLjg4NzQ4IDguMDgwNjQgNC41MTI0OCA4LjA4MDY0IDUuMjYyNDhDOC4wODA2NCA2LjAxMjQ4IDguMzMwNjQgNi42NDc0OCA4LjgzMDY0IDcuMTY4NDhDOS4zNTA2NCA3LjY2ODQ4IDkuOTg2NjQgNy45MTg0OCAxMC43MzY2IDcuOTE4NDhDMTEuNDg2NiA3LjkxODQ4IDEyLjExMTYgNy42Njg0OCAxMi42MTE2IDcuMTY4NDhDMTMuMTMyNiA2LjY0ODQ4IDEzLjM5MjYgNi4wMTI0OCAxMy4zOTI2IDUuMjYyNDhDMTMuMzkyNiA0LjUxMjQ4IDEzLjEzMjYgMy44ODc0OCAxMi42MTI2IDMuMzg3NDhDMTIuMTEyNiAyLjg2NjQ4IDExLjQ4NjYgMi42MDU0OCAxMC43MzY2IDIuNjA1NDhaTTYuMjA2NjQgNC4zODg0OEM1LjcyNjY0IDQuMzg4NDggNS4zMTA2NCA0LjU2NTQ4IDQuOTU2NjQgNC45MTk0OEM0LjYyMzY0IDUuMjUyNDggNC40NTY2NCA1LjY2OTQ4IDQuNDU2NjQgNi4xNjk0OEM0LjQ1NjY0IDYuNjQ5NDggNC42MjM2NCA3LjA2NTQ4IDQuOTU2NjQgNy40MTk0OEM1LjMxMDY0IDcuNzUyNDggNS43MjY2NCA3LjkxOTQ4IDYuMjA2NjQgNy45MTk0OEg3LjIwNjY0QzYuOTI3MDggNy41NDg5OCA2LjcwNTg1IDcuMTM3ODkgNi41NTA2NCA2LjcwMDQ4QzYuMzg3MDYgNi4yMzg5NSA2LjMwMjU0IDUuNzUzMTMgNi4zMDA2NCA1LjI2MzQ4VjQuODIzNDhDNi4zMTczMiA0LjY3NTEzIDYuMzQ4NDcgNC41Mjg3NiA2LjM5MzY0IDQuMzg2NDhINi4yMDY2NFY0LjM4ODQ4Wk0yLjc2ODY0IDEzLjI2MzVINC42MTI2NEM0LjgwMDY0IDExLjgyNTUgNS4zOTM2NCAxMC42Mzg1IDYuMzkzNjQgOS43MDA0N0g1LjQyNjY0QzQuNjc2NjQgOS43MDA0NyA0LjA0MDY0IDkuOTYwNDcgMy41MTk2NCAxMC40ODE1QzMuMDE5NjQgMTAuOTgxNSAyLjc2OTY0IDExLjYwNzUgMi43Njk2NCAxMi4zNTc1TDIuNzY4NjQgMTMuMjYzNVpNMTUuMTc1NiAxNC4xMzg1QzE1LjE4MjYgMTMuNTQ3NyAxNS4wNjU0IDEyLjk2MjEgMTQuODMxNiAxMi40MTk1QzE0LjYxMzMgMTEuODk0MyAxNC4yOTQ3IDExLjQxNjcgMTMuODkzNiAxMS4wMTM1QzEzLjQ5NzQgMTAuNTk2MyAxMy4wMTg1IDEwLjI2NjMgMTIuNDg3NiAxMC4wNDQ1QzExLjkzMzUgOS44MTI3MyAxMS4zMzgyIDkuNjk1NzEgMTAuNzM3NiA5LjcwMDQ3QzEwLjExMjYgOS43MDA0NyA5LjUyOTY0IDkuODE1NDggOC45ODc2NCAxMC4wNDQ1QzguNDY3NjQgMTAuMjc0NSA3Ljk5NzY0IDEwLjU5NjUgNy41ODE2NCAxMS4wMTM1QzcuMTgwNTggMTEuNDE2NyA2Ljg2MTk3IDExLjg5NDMgNi42NDM2NCAxMi40MTk1QzYuNDEwMjggMTIuOTYyMiA2LjI5MzQzIDEzLjU0NzggNi4zMDA2NCAxNC4xMzg1VjE1LjAxMzVIMTUuMTc1NlYxNC4xMzg1WiIvPiYjeGE7PGRlZnM+JiN4YTs8bGluZWFyR3JhZGllbnQgZ3JhZGllbnRVbml0cz0idXNlclNwYWNlT25Vc2UiIHkyPSIxNi43OTM1IiB4Mj0iOC45NzIxNCIgeTE9IjAuODI0MzY0IiB4MT0iOC45NzIxNCIgaWQ9InBhaW50MF9saW5lYXJfNzc1XzgiPiYjeGE7PHN0b3Agc3RvcC1jb2xvcj0iIzVCNzM4QiIvPiYjeGE7PHN0b3Agc3RvcC1jb2xvcj0iIzIyMzU0OCIgb2Zmc2V0PSIxIi8+JiN4YTs8L2xpbmVhckdyYWRpZW50PiYjeGE7PC9kZWZzPiYjeGE7PC9zdmc+;" vertex="1" parent="WhO8sSTrkAHzqlUvpctj-4">
          <mxGeometry x="43" width="50" height="50" as="geometry" />
        </mxCell>
        <mxCell id="WhO8sSTrkAHzqlUvpctj-7" value="" style="group" vertex="1" connectable="0" parent="v15C_StxA6uIfy9EPT-R-1">
          <mxGeometry x="30" y="80" width="189" height="50" as="geometry" />
        </mxCell>
        <mxCell id="WhO8sSTrkAHzqlUvpctj-8" value="" style="rounded=1;whiteSpace=wrap;html=1;strokeColor=#0070F2;strokeWidth=1.5;arcSize=16;fillColor=#FFFFFF;perimeterSpacing=0;absoluteArcSize=1;" vertex="1" parent="WhO8sSTrkAHzqlUvpctj-7">
          <mxGeometry width="189" height="50" as="geometry" />
        </mxCell>
        <mxCell id="WhO8sSTrkAHzqlUvpctj-9" value="" style="shape=image;verticalLabelPosition=bottom;labelBackgroundColor=default;verticalAlign=top;aspect=fixed;imageAspect=0;image=data:image/svg+xml,PHN2ZyB4bWxuczp4bGluaz0iaHR0cDovL3d3dy53My5vcmcvMTk5OS94bGluayIgeG1sbnM9Imh0dHA6Ly93d3cudzMub3JnLzIwMDAvc3ZnIiB2aWV3Qm94PSIwIDAgMzMxLjQxIDM5LjgzIiBpZD0iTGF5b3V0Ij48ZGVmcz48c3R5bGU+LmNscy0xe2ZpbGw6dXJsKCNsaW5lYXItZ3JhZGllbnQpO30uY2xzLTEsLmNscy0ye2ZpbGwtcnVsZTpldmVub2RkO30uY2xzLTN7ZmlsbDojMDAyYTg2O30uY2xzLTJ7ZmlsbDojZmZmO308L3N0eWxlPjxsaW5lYXJHcmFkaWVudCBncmFkaWVudFVuaXRzPSJ1c2VyU3BhY2VPblVzZSIgeTI9IjM5LjgzIiB4Mj0iNDAuMjYiIHkxPSIwIiB4MT0iNDAuMjYiIGlkPSJsaW5lYXItZ3JhZGllbnQiPjxzdG9wIHN0b3AtY29sb3I9IiMwMGI4ZjEiIG9mZnNldD0iMCIvPjxzdG9wIHN0b3AtY29sb3I9IiMwMGI1ZWYiIG9mZnNldD0iLjAyIi8+PHN0b3Agc3RvcC1jb2xvcj0iIzBkOTBkOCIgb2Zmc2V0PSIuMzEiLz48c3RvcCBzdG9wLWNvbG9yPSIjMTY3NWM4IiBvZmZzZXQ9Ii41OCIvPjxzdG9wIHN0b3AtY29sb3I9IiMxYzY0YmUiIG9mZnNldD0iLjgyIi8+PHN0b3Agc3RvcC1jb2xvcj0iIzFlNWZiYiIgb2Zmc2V0PSIxIi8+PC9saW5lYXJHcmFkaWVudD48L2RlZnM+PHBvbHlsaW5lIHBvaW50cz0iMCAzOS44MyA0MC42OSAzOS44MyA4MC41MiAwIDAgMCAwIDM5LjgzIiBjbGFzcz0iY2xzLTEiLz48cGF0aCBkPSJtNDcuNzgsNy40OWgtNy45MnMwLDE4Ljg0LDAsMTguODRsLTYuOTItMTguODRoLTYuODZsLTUuOTEsMTUuNzZjLS42My0zLjk3LTQuNzQtNS4zNS03Ljk3LTYuMzctMi4xNC0uNjktNC40LTEuNjktNC4zOC0yLjgxLjAyLS45MiwxLjIyLTEuNzcsMy41OS0xLjY0LDEuNi4wOCwzLC4yMSw1LjgsMS41NmwyLjc1LTQuNzljLTIuNTYtMS4zLTYuMDktMi4xMi04Ljk4LTIuMTJoLS4wMmMtMy4zNywwLTYuMTgsMS4wOS03LjkzLDIuODktMS4yMSwxLjI2LTEuODcsMi44Ni0xLjksNC42Mi0uMDQsMi40My44NSw0LjE2LDIuNzIsNS41MywxLjU4LDEuMTYsMy42MSwxLjkxLDUuMzksMi40NywyLjIuNjgsNCwxLjI3LDMuOTgsMi41NC0uMDIuNDYtLjE5Ljg5LS41MiwxLjI0LS41NS41Ny0xLjM5Ljc4LTIuNTUuOC0yLjI0LjA1LTMuOTEtLjMtNi41Ni0xLjg3bC0yLjQ1LDQuODZjMi42NCwxLjUxLDUuNzgsMi4zOSw4Ljk3LDIuMzloLjQxYzIuNzgtLjA2LDUuMDMtLjg1LDYuODItMi4yOS4xLS4wOC4yLS4xNy4yOS0uMjVsLS44LDIuMTJoNy4ybDEuMjEtMy42N2MxLjI2LjQzLDIuNy42Nyw0LjIzLjY3czIuODktLjIzLDQuMTMtLjYzbDEuMTYsMy42NGgxMS43NHYtNy42MWgyLjU2YzYuMTksMCw5Ljg1LTMuMTUsOS44NS04LjQ0LDAtNS44OC0zLjU2LTguNTktMTEuMTMtOC41OVptLTE4LjMyLDE2LjEyYy0uOTIsMC0xLjc5LS4xNi0yLjU0LS40NGwyLjUxLTcuOTNoLjA1bDIuNDcsNy45NWMtLjc0LjI2LTEuNTkuNDItMi40OS40MlptMTguNzgtNC41NWgtMS43NXYtNi4zOWgxLjc1YzIuMzMsMCw0LjE4Ljc3LDQuMTgsMy4xNXMtMS44NiwzLjI0LTQuMTgsMy4yNCIgY2xhc3M9ImNscy0yIi8+PHBhdGggZD0ibTc4LjYxLDI4LjM5bDIuOTktMy4wMWMxLjUxLDEuOTcsMy42MiwzLjI5LDcuMTEsMy4yOSwyLjg1LDAsNS4wMS0uOTUsNS4wMS0zLjI3LDAtMi40NS0yLjUtMy4xNS01Ljg4LTMuOTgtMy44OS0uOTMtOC4xMS0yLjIyLTguMTEtNy4zOSwwLTQuODcsMy45OS03LDkuMTMtNyw0LjA1LDAsNi45NywxLjM0LDguODksMy41N2wtMi45LDIuOWMtMS41My0xLjc0LTMuNDMtMi42OS02LjE0LTIuNjktMy4wNiwwLTQuMzgsMS4yNy00LjM4LDIuOTYsMCwyLjIzLDIuMjcsMi44Myw1LjQsMy42Miw0LjE3Ljk4LDguNiwyLjE2LDguNiw3LjY1LDAsNC40NS0zLjMzLDcuNS05LjcxLDcuNS00LjY4LDAtNy45OS0xLjU3LTEwLjAxLTQuMTVaIiBjbGFzcz0iY2xzLTMiLz48cGF0aCBkPSJtMTAxLjY3LDI1LjYzdi0xMi42OGg0LjQ3djExLjYzYzAsMi41Ny44OCw0LjE1LDMuNDcsNC4xNXM0LjMxLTEuNzgsNC4zMS01LjAxdi0xMC43N2g0LjQzdjE5LjI1aC00LjI5di00LjA2aC0uMDljLS44OCwyLjIyLTIuNjIsNC40Mi02LjMyLDQuNDItNC4xMiwwLTUuOTgtMi44MS01Ljk4LTYuOTFaIiBjbGFzcz0iY2xzLTMiLz48cGF0aCBkPSJtMTIxLjgxLDIyLjU3YzAtNi40LDQuMDEtOS45OSw5LjY5LTkuOTksMy42NCwwLDYuMTYsMS40NCw3LjY5LDMuNTJsLTIuODUsMi41MmMtMS4xMS0xLjU1LTIuNTktMi40MS00LjY0LTIuNDEtMy4xMSwwLTUuMjMsMi4xMS01LjIzLDYuMzdzMi4xMSw2LjM3LDUuMjMsNi4zN2MyLjA0LDAsMy41Mi0uODgsNC42NC0yLjQzbDIuODUsMi41M2MtMS41MywyLjA4LTQuMDUsMy41LTcuNjksMy41LTUuNjgsMC05LjY5LTMuNTktOS42OS05Ljk4WiIgY2xhc3M9ImNscy0zIi8+PHBhdGggZD0ibTE0MC4yNiwyMi41N2MwLTYuNCw0LjAxLTkuOTksOS42OS05Ljk5LDMuNjQsMCw2LjE2LDEuNDQsNy42OSwzLjUybC0yLjg1LDIuNTJjLTEuMTEtMS41NS0yLjU5LTIuNDEtNC42NC0yLjQxLTMuMTEsMC01LjIzLDIuMTEtNS4yMyw2LjM3czIuMTEsNi4zNyw1LjIzLDYuMzdjMi4wNCwwLDMuNTItLjg4LDQuNjQtMi40M2wyLjg1LDIuNTNjLTEuNTMsMi4wOC00LjA1LDMuNS03LjY5LDMuNS01LjY4LDAtOS42OS0zLjU5LTkuNjktOS45OFoiIGNsYXNzPSJjbHMtMyIvPjxwYXRoIGQ9Im0xNTguNzEsMjIuNTdjMC02LjcsNC40Mi05Ljk5LDkuNjYtOS45OSw2LjQ0LDAsOC43Myw0LjcyLDguNzMsOS40LDAsLjU2LS4wNCwxLjE0LS4wNywxLjY5aC0xMy42MmMuMzIsMy42NiwyLjIyLDUuNCw1LjU2LDUuNCwyLjE2LDAsMy42MS0uNjMsNC45MS0yLjE1bDIuNTksMi41OWMtMS43OSwyLjAyLTMuOTksMy4wNC03LjcxLDMuMDQtNi4xOCwwLTEwLjA1LTMuNTQtMTAuMDUtOS45OFptMTMuOTUtMS42N2MtLjI1LTMuNC0xLjktNC44OS00LjQtNC44OXMtNC4zNCwxLjUtNC43OSw0Ljg5aDkuMThaIiBjbGFzcz0iY2xzLTMiLz48cGF0aCBkPSJtMTc4Ljc2LDI5LjU3bDIuNjctMi42N2MxLjUzLDEuNjksMy4xOCwyLjIyLDUuMjEsMi4yMnMzLjQ4LS41NiwzLjQ4LTIuMTVjMC0xLjc0LTEuNjQtMi4yMi00LjQtMi45NC0yLjk3LS43Ny02LjA3LTIuMDItNi4wNy01LjgyLDAtMy41NywyLjc1LTUuNjMsNy4zLTUuNjMsMi45NywwLDUuNDIuOTIsNy4xNCwyLjYybC0yLjYsMi42Yy0xLjMtMS4zNC0yLjktMS44My00LjQ3LTEuODMtMS44NSwwLTMuMDYuNjMtMy4wNiwyLjA0czEuNTcsMS44OCw0LjE3LDIuNTdjMy4wNC43Nyw2LjMyLDEuODMsNi4zMiw2LjA3LDAsMy43My0zLjAxLDUuODktNy43NCw1Ljg5LTMuMzYsMC02LjA5LS45NS03Ljk1LTIuOTdaIiBjbGFzcz0iY2xzLTMiLz48cGF0aCBkPSJtMTk2LjA3LDI5LjU3bDIuNjctMi42N2MxLjUzLDEuNjksMy4xOCwyLjIyLDUuMjEsMi4yMnMzLjQ4LS41NiwzLjQ4LTIuMTVjMC0xLjc0LTEuNjQtMi4yMi00LjQtMi45NC0yLjk3LS43Ny02LjA3LTIuMDItNi4wNy01LjgyLDAtMy41NywyLjc1LTUuNjMsNy4zLTUuNjMsMi45NywwLDUuNDIuOTIsNy4xNCwyLjYybC0yLjYsMi42Yy0xLjMtMS4zNC0yLjktMS44My00LjQ3LTEuODMtMS44NSwwLTMuMDYuNjMtMy4wNiwyLjA0czEuNTcsMS44OCw0LjE3LDIuNTdjMy4wNC43Nyw2LjMyLDEuODMsNi4zMiw2LjA3LDAsMy43My0zLjAxLDUuODktNy43NCw1Ljg5LTMuMzYsMC02LjA5LS45NS03Ljk1LTIuOTdaIiBjbGFzcz0iY2xzLTMiLz48cGF0aCBkPSJtMjE0LjYzLDcuNGgxNi4yN3Y0LjFoLTExLjU5djYuNzRoMTEuMTl2NC4wNmgtMTEuMTl2OS44OWgtNC42OFY3LjRaIiBjbGFzcz0iY2xzLTMiLz48cGF0aCBkPSJtMjMyLjU2LDI2Ljk1YzAtNC4xMywzLjM4LTYuMDcsOC4zOC02LjA3aDMuNDh2LTEuMTFjMC0yLjMyLTEuMTMtMy41OS0zLjQ3LTMuNTktMi4xOCwwLTMuNzEuOTMtNC45MSwyLjQ1bC0yLjY2LTIuNjRjMS43OC0xLjk0LDQuMTktMy40MSw4LjA0LTMuNDEsNC44OSwwLDcuNDIsMi41NSw3LjQyLDcuMjF2MTIuNGgtNC4yOXYtMy41N2gtLjExYy0xLjE4LDIuNjktMy4xMSwzLjkyLTYuMTQsMy45Mi0zLjM2LDAtNS43NS0yLjAxLTUuNzUtNS41OVptNy4zNCwyLjE2YzIuODcsMCw0LjUyLTIuMTYsNC41Mi00LjQzdi0xLjI1aC0yLjczYy0yLjU1LDAtNC43LjY5LTQuNywzLjEsMCwxLjYsMS4wOSwyLjU5LDIuOSwyLjU5WiIgY2xhc3M9ImNscy0zIi8+PHBhdGggZD0ibTI1MS4xMiwyMi41N2MwLTYuNCw0LjAxLTkuOTksOS42OS05Ljk5LDMuNjQsMCw2LjE2LDEuNDQsNy42OSwzLjUybC0yLjg1LDIuNTJjLTEuMTEtMS41NS0yLjU5LTIuNDEtNC42NC0yLjQxLTMuMTEsMC01LjIzLDIuMTEtNS4yMyw2LjM3czIuMTEsNi4zNyw1LjIzLDYuMzdjMi4wNCwwLDMuNTItLjg4LDQuNjQtMi40M2wyLjg1LDIuNTNjLTEuNTMsMi4wOC00LjA1LDMuNS03LjY5LDMuNS01LjY4LDAtOS42OS0zLjU5LTkuNjktOS45OFoiIGNsYXNzPSJjbHMtMyIvPjxwYXRoIGQ9Im0yNzIuMDMsMjcuMzl2LTExaC0yLjgxdi0yLjA0bDYuNDItNi40aC44NHY1aDQuMTd2My40NWgtNC4xN3YxMC4xM2MwLDEuNjkuNTUsMi4xNSwyLjA2LDIuMTUuNzYsMCwxLjQ4LS4xMiwyLjExLS4zdjMuODJjLS43Ny4xOS0xLjkyLjMyLTMuMDQuMzItMy44NywwLTUuNTgtMS40My01LjU4LTUuMTJaIiBjbGFzcz0iY2xzLTMiLz48cGF0aCBkPSJtMjgyLjE3LDIyLjU3YzAtNi4wNyw0LjA1LTkuOTksOS44LTkuOTlzOS44LDMuOTIsOS44LDkuOTktNC4wNSw5Ljk4LTkuOCw5Ljk4LTkuOC0zLjkxLTkuOC05Ljk4Wm0xNC45NCwwYzAtNC4xNS0yLjE1LTYuMzctNS4xNC02LjM3cy01LjE0LDIuMjItNS4xNCw2LjM3LDIuMTUsNi4zNyw1LjE0LDYuMzcsNS4xNC0yLjIzLDUuMTQtNi4zN1oiIGNsYXNzPSJjbHMtMyIvPjxwYXRoIGQ9Im0zMDQuNTUsMTIuOTRoNC4zMXY0LjEzaC4wN2MuNjUtMy4wOCwyLjA5LTQuNSw0LjUtNC41LjcsMCwxLjMuMTIsMS42NS4yNXY0LjE3Yy0uNDctLjEyLTEuMTgtLjIzLTEuODUtLjIzLTMuMTcsMC00LjI0LDIuMTgtNC4yNCw1Ljc1djkuNjhoLTQuNDVWMTIuOTRaIiBjbGFzcz0iY2xzLTMiLz48cGF0aCBkPSJtMzE1LjcxLDI5LjU3bDIuNjctMi42N2MxLjUzLDEuNjksMy4xOCwyLjIyLDUuMjEsMi4yMnMzLjQ4LS41NiwzLjQ4LTIuMTVjMC0xLjc0LTEuNjQtMi4yMi00LjQtMi45NC0yLjk3LS43Ny02LjA3LTIuMDItNi4wNy01LjgyLDAtMy41NywyLjc1LTUuNjMsNy4zLTUuNjMsMi45NywwLDUuNDIuOTIsNy4xNCwyLjYybC0yLjYsMi42Yy0xLjMtMS4zNC0yLjktMS44My00LjQ3LTEuODMtMS44NSwwLTMuMDYuNjMtMy4wNiwyLjA0czEuNTcsMS44OCw0LjE3LDIuNTdjMy4wNC43Nyw2LjMyLDEuODMsNi4zMiw2LjA3LDAsMy43My0zLjAxLDUuODktNy43NCw1Ljg5LTMuMzYsMC02LjA5LS45NS03Ljk1LTIuOTdaIiBjbGFzcz0iY2xzLTMiLz48L3N2Zz4=;" vertex="1" parent="WhO8sSTrkAHzqlUvpctj-7">
          <mxGeometry x="9" y="10" width="153.5" height="18.55" as="geometry" />
        </mxCell>
        <mxCell id="WhO8sSTrkAHzqlUvpctj-10" value="" style="group" vertex="1" connectable="0" parent="v15C_StxA6uIfy9EPT-R-1">
          <mxGeometry x="30" y="140" width="189" height="50" as="geometry" />
        </mxCell>
        <mxCell id="WhO8sSTrkAHzqlUvpctj-11" value="" style="rounded=1;whiteSpace=wrap;html=1;strokeColor=#0070F2;strokeWidth=1.5;arcSize=16;fillColor=#FFFFFF;perimeterSpacing=0;absoluteArcSize=1;" vertex="1" parent="WhO8sSTrkAHzqlUvpctj-10">
          <mxGeometry width="189" height="50" as="geometry" />
        </mxCell>
        <mxCell id="WhO8sSTrkAHzqlUvpctj-12" value="" style="shape=image;verticalLabelPosition=bottom;labelBackgroundColor=default;verticalAlign=top;aspect=fixed;imageAspect=0;image=data:image/png,iVBORw0KGgoAAAANSUhEUgAABAQAAACoCAYAAAB39jxpAAAACXBIWXMAAC4jAAAuIwF4pT92AAAgAElEQVR4nO2dCZhdRZn339u2EJakO+xLlg6r3ADpKC4sMd36zQABTOKMgqBfup1RcJsk4npdOhn1jtvYyQjuTnc+HQd1nknzqYAzfqSjAi6j6QC5giJ0FiFCltsJZGHxfs9bVafv7dt3v1V1qs75/56nnm5Ccm+dqnPq1Puvd0nQXWOriKiPAAAA1EOWiObTFW2jGDUAAAAAAOAjrZTLYeIAAKA+skSJbroSYgAAAAAAAPCX1gT0AAAAqAf2DOjOLWobwagBAAAAAACfgYcAAADUTpYSie7conaIAQAAAAAAwHtaMIUAAFATyjMAYgAAAAAAAIgG8BAAAIDqiJwBuaunQwwAAAAAAACRATkEAACgMsIz4C/XQAwAAAAAAADRAh4CAABQHuEZ8JfXHQcxAAAAAAAARI5Wgh4AAAClkJ4BiyEGAAAAAACAaNKagIcAAAAUI8SAF5acADEAAAAAAABEFlQZAACAiUAMAAAAAAAAsQA5BAAAII8UA5aeCDEAAAAAAABEHlQZAAAASTbHYsDrIQYAAAAAAIB4AA8BAAAIPAP+5iSIAQAAAAAAIDagygAAIO5kKUHdz0MMAAAAAAAAMQMeAgCAOCM8A57/25MhBgAAAAAAgNiBHAIAgLiSzbFnwBsgBgAAAAAAgHjSSogZAADED+kZ8IZTIAYAAAAAAIDYghwCAIC4IcSA566FGAAAAAAAAOINcggAAOKEFAOuOxViAAAAAAAAiD3IIQAAiAsiZwDEAM9IpjuJqL2g06OUSY3GfVgAAAAAAHTQilEEAMQAeAb4RDLdQ0SLiWhJyV4n0zyfQ0S0jjKp4bgPFwAAAABAoyBkAAAQdYQY8Oz1p0EMcJ1kuouIBoioo0pP2WOgR7RkmgWBXngNAAAAAADUD0IGAACRJReIATdADHAe6RUw0EA3WUTYRMl0N2VSmGcAAAAAgDqAhwAAIKpkE0Tdh998OoxE12lcDAhgj4ENEAUAAAAAAOoDOQQAAFFEeAZADPCAZJrDA/o1dJRFgfWUTM+nTCob+XHzHRkeskHTVaymTGpVfAdTM8n0BuV50zyZVCIqwxIZkml+Vvo0XQ6ePQAiADwEAABRQ4oBb5kBMcAP+oqqCDQDiwsriAgbVAAAAACAGmhNQBAAAESHbI4S3Yf/N8QAL5DeAT2au7ocggAAAAAAQG20EvQAAEA0kJ4ByyAGeIQet+SJtAt3dJQjBAAAAACoitOCwOxjW2n2sS+a9Hspfrrz8Pifbn36Bdr69PNhdBkAEA5ZSlD3oWUzIQb4xUJDvWWhAYIAAAAAAEAVWskBRYCN/VefcqT4ueDkI4Xhz7/Xw0fmTf7LY8/+hTbveU6IA9ueeYE273lW/H7/nuesXyMAwBjCM+DQslkQA/yjw1CP26I8aAAAAAAAumhNhKAHtB3RQtfMOko0FgL4v019D38+0ZGT/h97FNy/51khDvxs52GvPAruuuIk69957d27hMBiizefdYxorsFjUCgoZcV/Pyt+3wbPlDDI5lgM6LUsBujNkB4FhimT6nboOjod6AMAAAAAgPNYqzIQiADvnjuVLjzuiNDHhYUCKRZI2JBjYeCnTxxyWiAIRBTbvOXMo+mWzH5r38peImFcZy3wHFRCeKQ8LT1Stu2XHik/3XnIyWvxHOkZ8NbZ8AwAxaDsIAAAAABADRjPIfDqU4+kN599rJOnvYWIHAVntY73k099f/rEYfr2I8/Q/bufdaWbYizD+d5j6JYt9gQBn5NdynwXrbSgSNAI7qmf7Twkftr0uIggImfAQYgBoDSbMS4AAAAAANUxlkPg1adMoY+8tI0WnDLFy2lgLwZu7NHAJ74/2HqAvv2HZ8bdw8Mg8LIIbzxeHOr1+07hPcXwPfWDbQfFT4gDdSE8Aw6+tQNigP9sNFRpYDRuAwkAAAAA0AjacwiwwfPZV02nBaf6KQSUgk973z13mmgsDtz64H769h+etm7EveWscLwDxr//7GPoA7+wJAjEoBzmNbOPFo0WHC/uJxacfvYEQguqIHIGHPx7iAERwdQ8osIAAAAAAEANtAjDS0Nre3ELffaV0+m+padGSgwohsUBFjwef8tM+uqrj5ceEJrGsFpjt/0wuZqNV0vXmoiDIlAAh4Lctehkylx7ugwLsTTOnrUs5SAGRIpMasjAaT4nOISHAAAAAABADbSIpIJNNnYlZyHgXedPi9WYCyPuqpNFE/HiGsayXOMxvvD4cJMxshhyzeyjjF7neIspPMYsNLEwYPqe8qxlKZfrPvA2iAERZLXmS9L9eQAAAAAAkaXpen8sAtz3+tNo9tTW2N4l7BFx19Wn0FcXnmDsO1wRW4SXgA3iqwkI+Hnie+q2vzrJWFlOjxA5Aw68fQ7EgCiSSQ1qdPFfQ5kUwgUAAAAAAGqkNdHEaexXu06kG84JN67dJX7++EFqZjwrcU2HJUO8Cm8+51j64L27kQTPEjzvrz5tBt04/BT9cPRALK65CCEGPHPjGRADos1SItpARJ1NXOUgZVIr4z6QAAAAAAD10FDIQNuLE3Tv35wOMaCAnz1+iL798H4jbthshLt0SizECeMhAzF3ESiA5/62vz6ZPnPxcTEME4AYEAsyKSH8NOEpwJ4BvXEfRgAAAACAemmt1+5qO7KF7nzdaaHHs7tG+n/2GrNhr3bEOyDghnOm0rcf2m/2S6AHTOJdF7RR+xEtdOOGpxzrmRGkZ8A7IAbEhkAUSKZ7iKiPiDpquPRhkTMAYQIAgDiQTHcUrI3sUdWufh9V4VcAAFA3dQsCt11+CsSAIv7t4f30sz8dNPLZHEt+dUe41QWKWXDaFJH8buv+553qVxy44dyp4ipvvDvSokCWEiwGnAkxII7ITe0gJdO82e0ionlF4gDfF1uJaAjVBAAAkSaZZoOfRdKFRLSkwqUOi3UTAAAaoLWe8m5fec1JwhgEecYO/4XSv95jrEze1XPc8g4I4H596f4xc18AD4GyBKLATXc/6WT/miE37hlwFsSAuJNJjSjjHwAA4oX0BOhTYgAAABilpdY65GyEBIYIyMNG8bZ9zxur5/6uC9udHG3RL4M17BMOXKPL8LP4mUtPMDoHIbRsgnMGvBNiAAAAgJiSTK8gok0QAwAAtqgpU92sqa3S+AAT2Lb/ebp1c9bYoFx4whFi7F2E+8X9MwdcBKrxzgvb6Oo5boWTNIHwDHj6XRADAAAAxJRkeoCI+gtyAwAAgHFqqjLAoQKcTBBMJP2rPTR2+AVjWdbf6ah3QIDon7EM825co+uIZ/OIRASqCeQgBgAAAIgvUgyAVwAAwDotCXbPrtAWnHYULTj9KMxMEZxE8Du/21dx7Jptrp/+cv9MXTuoDRbqPnPZCUbvQ5ONwwS4tODT7z4bYgAAAIB4kkz3QwwAAIRFqzihq8BXXnsSJqcEn/7lbqo2ds1ww3nTnPfK4P6xKPDDR592oDfx5YaXTKMvjWTpgacO+zYG2USCuve/5xyIATI79DoH+tEo5mKnAAAgyiTTXD1gBeYYABAWFQPUrz7jWJo17cWYnCL+7Xf7jJUZDLjqDD9iw68/b6oZQQBeAnXxmQUn0qL/3OFRj2XOAIgB42xFLX0AAIgZsqzgAKYdABAmFT0E3tmJnCbFcJnBD/30SaPeASzCsBjjA9xPjmHncdELFIF6uOz0o0Six237nvOhu1IMWH4uxAAAAABxpg8JBAEAYVO27OCsqS8WRgaYyJdG9tLYob8YLcnmixgQcMN5bfrHAdTNh19xvBelBTlnAMQAAAAAsSaZ7kCoAADABVoTZayvqx1wWefTzp/vOED3P3WYHtgl46P5vwvh0/TCsIYFpx8tfl5w4pHiz/mnzv58+he7jNfI980zg/MdfHnTHq2ficSC9XP1mcfSO//b6YETngH7VrwEYgAAlUimu9T/7axyesjPlHyeEHLiP/l576pwLSNq3kcpkxqN+5BpJZkOnrd29exVYlS1Zp49JBF0ESnUdKieVVuDmWD+RyiTim8+nfqen/y7K07jJkOEgrGp594yvt63ljuNZeMiLL6TGaN/y+ybZPyXYtvYc6IF/Hz75H9z2YyjhTCwYMbR4vdGk/V9aOOTxk+vAyHDJ0Sfp77YF3f1kgT3XC3w/XPhiVNo1rRWuuDEKVpFp2bgfl11xrH0oz86meRRigErIQYAMI7cHHSpjcHCGjcIpUmmqWCTtVH9HI71BtVlpNHBc79YzXtH3b2Vcz6s5nsYolAdSPGF2zw19tUMmPJMfPbyz1/1Dfxyi1cMSiHvg051H3Q2eB/0jf+WfyZHCp7L6K3BOp8fmjBu/MxsVuPm935RCiTBu72jitBbjuJ7a6RojLSt+WUFATacbcNZ0t/x4ye0Z0tnkYDbl3+7V/z3VWceS1efdSxddebUmsUBFid+9Ih5Q+ud86cb/w4TcL8/NPykxk+2e9ItvFFKiEnlKLwXhCF+5rF0w9y2UJ6bQljIs3Gf1okUA94LMQCUIZnW9cDzC7Lb6WGWm4QlBYagTgKBoavg+4aI6HYiGoI4EDJSAOJT4WUa5z6Y7z5KprNinnm+M6khb8fJFMl0j3ruugzE7Rc+ezIMIJkeUUbOuknGjawsgNwBtpHP4BKD9wGVuQ/WqTXYT6+eieO2xNC3TDSY8+vZRm/eX1IoWaaupX6RtzqByLBErfmk1pjbm72/SiYVvGxmOGLAVd/bRmOHXzD+XT96ZL9oRE/QVWdNpRuSbXTVWZU9IoSxazCRYACLFD7CBvGHNvxZX89te76L+PbGvnTs0Av0nS1jovGz8+GLTwhNGBDfa+E+rYMsJVgMOA9iAIgvZgzBWlmi2gAl04PKOMFJsk2kN0CfmgeTRmBwn/VQMs0bw9WUSQ26NyAWsTf2pQg27yuUUbi2YD4WuzJEsUAKMMsMGrOVCO6Dfu/W4HCfn/x65vL7S77fV6j7y4QIUI1AgOofX2caEFBaS8XDszu0TThD/dXf20b7Dr9gPD6/mDse2S8au+lfP7dNtGKXfTb0HnzykPG+8Xc3Gs4QNjxmHJJRS5iHq+iY33u2H6Crt2+jd7z0OPqnrpOsXynPw+xpzoRvCM+AMYgBIK7IzdRytaFx4TQwMBaHlbEIYcAk+Y3i8hDmv0NtovtiKQzkDRlX4vQ7J8xHOIZpvMgLsctDMtRKUbgG9zrrMeDe80POiZ3hru/l6FRlTFkcYGFgTa3CQIs4TSxqto3S72zJ0tih5yf1w2bbNvYsffrep+jCrz9C77zr8XGDij0WPswn3xb6clWIeRt0wIKGtvEIA41z+eXf7KYF33rMisdLMeNeAuE2UU1g7GaIASCG8EYhmV5FRI+pDYNrrsF8mrCBkukBtakBupGuo5scKCsXCAMb1CY/2shnr189ey4m7etQG3Y8dyZJpleoe6DfITGgkC7RP/mecIv8u8vVpJfBmvaYCgOyj/Q4cWF9L0e76pu8x2p4z7eW+kPb7s4/+sN+q99XjXH3b5GA8EVWjDo+2eXwBZ/hsAtt4xVGyIBmHnjykBCTvnTFaVYvxYGklNIz4H0QA0AMkRuUfk82/D3ipDKZ7kXMuUakQepaOTkpUER5rmV+jvWOGoCNECSMDCoaZL1PtGYaKcQNeHQPcBw4h490hx4jL5+fgRDC2holEAbYVX+llWdDGtb9HlUICYSB5ZRMr6zkVVE2qaBNZrW9mGh7+P0opp4kc83iuxhAIrnei4Qo8J0HxxzoTQMYeBZ4LHhubc6vyAFyr7WvK0aKAe9PYtMC4oU8fR1oMJNwmLQLI0rGZ65E4sEmkJvF9Q7fA8Fcs7uteyeTzSCFuAF/L2CcIAlhvHM/1It89gY8DcXoVCe53aEJPlJIWe+p50ogdppd1+Q9tsEjwaSQ9gLxZGmp93xLIpej4mab6+e2T+pD3BrHnEcBToqoY+7CcBEwdc+l7t5p9Uo45CeM50eGCeQgBoD4kXcf9E0MKKRHhRHAlbkR8ptFH+6BPhEuEhXktUThenpFlRSIAfUhjdnHPM/L0K7WX/vGphTTNkQgjIXXtU1GQqP8FgMKCUJVJj0rLRTYXoXNMnyief357ZP7EZPGteyFl0QEuOrsqdJlvcm5S1i+DxMG77Vt2fpKGjbLBSdNCePZySbYM+ADcyEGgHghY1V9PVkpphOiQAP4uVnsiYQoIK/BF/fdaizHs1cnMt49CsYshSIKyO/qt/Z95ulU3gL6xjA6YkBA4Ck2IaytTPZA+6rArVeeJkWBGHLTRdHwDghgUQBM5I4/7IvyiIgwgSzEABA3pDESpc0UQRSoE783iz1OJjWrFdn3qIgBhGevTuT62+dVn6sTuHabvwfya1fU7rdAWNG1NviUV6Ee+gtF4ZJVBsLKK3DrotPoQ5ee6EKGdKstagb0TS87PvZVBorbA38+ZPVSZk1rtXUPZ4ly3dkPQgwAMSNaJ5PFwDCpHd83i32l3EedR/Y5asYgFZQNA+WQlSQ2RXz9tSE0R8WzrRSBsNJc+IA8RY9yidCeQDhxruj9By89kX7wpo7IuNBXg70iOBmfDb7zgJ1cUTx3wm29GWyLAoa/74E/HzT6+cVYqjQgPQM+eD7EABAvoi0GBMAwqYY8oY7CZrH5jbNN8gnkosqSYndeoIie+3Y5elRuBDNII9DnnDe1wDk5Rhv+1/Jei6LoWMhgkLOkZFLBB5+0e5pZzGWzjqHNN50jvAXaQ0qQZqtddY4d74BtY8/RZ3/+pJXvYq6/oLlEkWFgcs73HTJfurKQhOHrSeRy2UQu1539EMQAEDOi56ZcCRgm5ZAxqlHZLPpmYNuq459VWf+Lmw364KFTRHzEgACTz2TUDd1eDck5fSkf3CgsBvQG/7akh8CYZeOlHB+87CQaecc54qetU3SbzGo7ghadPc3KN97x+320bexZa67rb7oA77EIIzwD9n74AogBIF5E1025Ev2hZL52n6idUHd5ETogT01N9TMrNslclotoOmVS01XW/+LGmvt8UaaTyNR7sD2C+UmaJU5iAIk6+/ri4PPIz7TtEcRCWuOn9fXRvBggxSfbwv+IwfWkmAliANNaylXatntzJVgIYEGA278/sJe+8utd1uOxTbHIYu6An297WrjFszBwwclNuvPXAM8bXx9/X0PYrzoYXu4CE5jLxSDFgNSFEANAvJAu1baMQN48bVQ/s5NqU0sDvV25fM6z4LY+oAwgQONeImEbJqMFG+wOTRt8NkCHNHyOSUwIcvxeW0tEa0rV5y6JfCZHxL+RIkW/gXuiR9VWt2VIuc7aEIS4Uh4hNl3t+5RIpZPlhvqaVevHRvFsFL+3CpHv0w41lgs1jqkOzwAyLAbkx0iOU+k1R4oSnarNU2OkY52fJAaQFAQm/80Hd7ppcL/pgumisSDAwgAbm654MzTCTS8/3sr38Bjd8bA0zO/4/Rh9cMFJVr73+gumj3+vFxjUAy6bfYz9EdB/PVIM+AjEABBLTLsp86Z/tdgsVDNK8hstuVmVG4fAe8HEyU+nOFVCffRgI2tqQ10Onu/b1XzXsoHkjePiBgxUMyeSupCGt25jbER4BDRjdGdSw0IwS6ZZFNAdYrNceSIAXn+SaTIoChQas5VDQ+SzFjxnSwy+GzqE504mpUeok+uXbuFKvrvqeT/I5210guAiPZSWNSFw6xIDSPVDJ42IjoUhSxJ5GLBMCRaN3HMlxQAqJwhsyz4r3MvZpd1F+IT71qtniJ79+/176UcP72v8JDok+Bpsja8YGzXPD+w8ZG1uF50zTXgKeCPaGBQEZk6z/CzltF+PFAM+CjEAxBAZR2/qVKj+zVQxcuMwKJo06EzEPnLoQHWxIvr0WYxfHxSbyFqN1YkbyFVq89+jjMpa+9xn0bW3XnQLMYPC2NZ1T2dSKymZ3qzZYO2BIFCAflGAn5V1da+/8p4ZUq1XvSNMrQ2LNXru6PYm0/cMSdFjSK1bfXWe0usTA/SLJiOqf83vnwPPJPYckuNTzz1XVgwgkVSQclSq3bP1mab7bYM3XTidvv2G2fTYzUm69ZoZdNU500pej2vtplecYG2M+JS+8Pptntpz0sRGxj6MmAGT94htDwEW9TT2H2IAiC/5zYkJhsTJos6Td/lZ8w3EIrYbOP30i7yBbRqewznCwGzu5HqUMqlV4rOk90ktdDiZfVyOvU5jZkRsjnULXPL5q3Wsa6Hdaa+NMJBjXNawqREWAoLcEM2vv5nUGvWcmUg6qXP+F2r8rEFDz9CoMlxrHU+dngGkWQwYVfeZ3vcxj3n+nqtlvakoBpBIKpgrOE0saHc8PKav4xZom/IiIQ586w2zafdHLqRv/W2H+G+RjLDMNYbZ+PTcFmIuJ8ytPUFACB8NjHPCsh6QMHwv2JxvZnv2WV19z1IOYgCINaZOfdgrYKmRE3dpRHYbEAWWxzzzuelQgazaPOrdZMvN4ypDQpEtdIoBWZU40AxyrHUahjqNuGjQuCiQVSEi3VXDAupFPmfdBmL+SWPCT13G7qhxzxUpDHSr7ym3HuoWA0izIKBfMCmktrW9qhhAFQWBh/aJU0ZfWXTuNLrlmpn06Pvm0rfe0CENMkfEACFUTLFTNUEY/0Xff8/o09bc+M8/+SgZnlDvOIVBBOZ7HF1iAFH3no/NgxgA4om5E+Fe9RI3h9yE6BYF2iNSd79+zGedHlFeAebK2slTqm5Dp5im0WkU20jU1+wJdiHxfOaqUb8oMKyeMdOJM01Un9B1/+vKMbPOWviYPAnvLhHKZEIMII1jXT0XhS7ya3vxvV2TGECy7GB5a+C2+/dauQ7TsDjwrTd20KPvn0u3vG4GnS+y7IenCHB/bCE9PSb3waYHyJvmTW9gnMJA/1y3TWmhT/31aVav5Z6tT+voe5YoBzEAxB0ToQKD1pLzyQ3b0gqnK41gO6GeK5hMHDaiPAPMb7BNnmKaRVcYw6gyMMwiBQddY9yO0p9lqF0UWKO8Auw8Y3oFIdJyai0Fbl3YrUYiDd7CU3BTYoBObrf6bXJtX1qw7tQsBlAlDwFuX/nFU15n8S9GhBXMO442vv0c0fh32yEFfFq+6Nw2a9d8x0NjJfthM2zgugunNzZeNjE037e8bqZ17wDxzDbXb+kZ8PFOiAEgvpjxDhip5wWtBWmY6HTt7IypcWJKCLEnBkzEZA19veTLbOrApiGj0yCAIFCO6qJAr8jHYbdPI5pFNx2CmD5BQHdMfG3fGXi9LTUsBuhaa8JZX+Ueo7fevUZLguOny7R9h16gr/7yKXOdDhF2ZWdjbdM/nEcfXHgyzW4/ouw46Gy2vQN4Dkv1/86H7HkIzGo/gi7rOKaucQxDEdA917cunmlV/Al4cOfBZvqdTUAMAICMhQqEgdw86XRd1F2SyW3MlOqignhm+5Ub8ptrH6pG6DzZXKfxsyojXdN1ja+JcqLRobwoEOZJ8lqtnwYvkeAU3LSop2ucw1tbG7jnWylX2fD67PBOYdScf8pRzXTNWfj09gMLTxHtts17xPWazJ1w0ytPtDYUwuivML/sPbDoJXYMVvbGuOexp618V8NUeRZqhZ+VWxbPCu2Z4RwRDV5LlhLUvbtvPsQA+/RRMm0qk71ZMqmEl/2ujm6jd00opyp5Vmt0u14Ss1JopmK4ey3EspeHN9fJNLuYbgitD7Whb4Nu/xkc0fTcIbFgNSaXJGyunGvz/eHycKMaxRx3ErqySBrm2uUHXT7la2mp5S+9e2ib+Z44wHXzjqPfLk/Spy4/3YibN3slzGy3V4++mgFu00vgynpPysMIGWgS9oRgIWD4xnNDFdCEIFA/4rQIYgAA4xmddZ7IZTWXIqsfmdxI1wauQ3M8quuYMMaGLZx0VUfeF+H3ww5hvN82hnGhsSXvKTBoPHFrbeh8tlwqB+peaVJ96HpPeiXitYiTxCrtwZ0H6D1DWx3orh1ufNWJQhi48ZUnVB2betpNr7LnHcBu49uyhyv2746H7HmzyPwN02sfrzBoYE45QSXfJywC8D1zXedx4fRdcUfgFVJfy1Iu1717FcQAABSLNQ/EUChu4ZPR6cIap8znJq7VJQ8L17099GX9to+u5z7O5T7rg0UB27layrPZkX6QRkOXlFdjVO9JXePURcm0N8JJa61/8d9H9tClHVNDN3hswQbsp66YQYte0i7EEB1hBFdacs8nMV+7q/4dTj7HwoGt0+wrX9Iu7iMXubTjWPpA16lVe8b3BY9X8NM17hndX2+PpGfA6pdCDAAgj24DMFzvgDx8WtWv6bMWijCIqGNmQzcUcvjIRNj1N5keNFxW0QXsuUXm0TXPiB/3E3fc6uVzruvTOtS7xBXhxVXWUzLd7dR6X4bWRB2Hse9Zv1WcPF43/3i7vQwRNhQ33PQS+uidO+i2JoxZFlJsZpu/83djVMvc3rZpN33yyhk2uiTyFXCVhe01iCsJy14CPM/cfOe7m/bUNO8KIQbs+keIAQCMozejOanKAm5sCuWGUFdMa1wMFBOCgN5kY3pYHQNBAADb6Fz752n4DJ05DXpU6Fg4iVHNsVHjut8ucrRwrhYZnuUsNYUMFDYWBdiIjBNsyH9x6Wz64pJZDYcL2EreRypcYPveyuEC42EDv7P7DItxcDVkwHPu/F2Wxg4+X+s9KcIEIAYAMAndBqC9rOa1oWtT0hFhl9FCdGzCCxl1cmMoRSu8DwDQiV4xWMd6q/sZ5/flY5RMr9D8uWGiW8APRIEBl3Pv1JRUsBgWBb5635NGO+Yi7Bkx9NZz6j7p50SCV55nb990z2O1u43zaT0LCLaIk3eJbb56X80lQqVnwCdehs0fAJPRnQjINeNPZ5KzOHgJ6L5GlxP4uSZeRQFd9w8yugMdmEhy2S7CB5LpvZRMr4pAwllT7+weJZ4MuFhCskVkV2+gffSOHfSe/9wq4tDjBLuVD/WeQ21HvqjmceM8BDYRHhx1zGk9AkmWhs0AACAASURBVEKzcNy9iL2v1i9QFw8+cVDOY/X5zlIOYgAAFdD5og6jzFk1dBoWcRAEdG9uXTa6XRUrfM76rWsDCEEA6MDkM94ukg1Ko5dj53u8FAfMe0uxMLCJkmkep35XxIGWhtQA1W7btIuWfPP39OATBxy4FHucf+pRNPTWs2sepxsvOcla38SJv5iPOubxt3ZDQKSXQJV+QRSoi4/esb2Wuc4S5bp3fRJiAAAlkS7wOjcw7j1ret3Vox0yoD+hoIsCUR65EXbR8NRV5ioM48Sr0mMg4shn3IbXGifmHVDiwCblOeCTgGxDuOX1aEWBODAgSh6HFIrXwgnImmlbnjhAr7n1d/S5u58Io/+hcf6pR9MXX99RdewuOOVoETJgizsz2brnk+ewlkR/ulh0XnvVPoHaufex/aJVGVPpGfDJiyAGAFAe3RsWV2uQ60oeozu+3jV0b8ycTiqlcLGPuu7XMPJe6FpTXF1LgH/Y9lLqVJ4Dm1RYwXqRc8Bt74FBjetOLXQoz4H1RMRjtEGJKNbKFjaUQ6AUn7v7cXrZ5x8Qhklc4JPut1c5/X/7xfa8A0gkltvb0L+751F781ZbTgWoArXy0R9tr/Y3Zc6AT0EMAKAKujcorrr56loLop5UULdA5FJN8nK42Eed7y7dJUXLw6d9CBkArpFJDYZ4P7WrZ7BfeQ8EJ+M9TiWplVUTwqwG06VElA1FIooxL4tWnRndObP9km88LIy9T141i2ZOt3cyHhbvf81pdOeWLG3PHi7ZgyuT9u5vzufQqGF/Z2YvXfdSewn/+B7h7ywL9ICa+Nz/e7xayI4QA55KvxxiAADV0S0ILKdkepmD446a5uHgg4eAm2Eu+uqnL1OnfzZYrvE78A7XjTRAO9W6z62taG3sCCnMxAa9wtgMn+BkvEeEGCTTI8qDYciBcr1r1DMctlARiChSzJSlg4eE11AmpS0nRKsJw4vd1rld99IT6P2vPS3SwoAoSfi3HbTk6w9P+n98/fVWJGgGHvNG55P/LQsKtvrL4sPHfrgtdkkpdcLeOCwIVECKAf8EMQCAGtFdHzbqhrc1d8aQ0B3/7UOtblffFyOanqcu4YZruvSjdPXV9XyMOp17whfyczKvQAiIJ1JkG1SGuEt0qtYfujjAXgLJdK9y43eJIPcAewxklTiwttk1QlvIQClu++0uetnn7qd/+I/HIp148JI5U0t6Atj0DiB1yh/mv68X2+MTJdgbZ9m3Hql0RRADAKgfnJwDc/hg1ElXWRfRacD3G70+efI8oPETffAscROZpG1AuF3LE/E+ddIaXzEgz0rHPU86C0IL1tuMpx9HnsCvsf69tdNeVLWgYYGnJZHLken23d/sotf+yxZa+vWHxO9RhD0hCsdxFsfJWw4XuGvL3qbm8l6LeQRIeVCU6wsoD881iwH7Dj5feuxyuSzlchADAAAANIKL8eo6E6F1CiPRHAOaDc7bDfY1enCyurwIsF4ZTDiBKkaKf92eeC4tUfH0G6wLA5nUSothRs3QocIu9qqEhHXd80Y9BIphg5O9BS767P30+Z88Lk45owJXHbjkjKnjV2P79JvFABc+ox54vGZOP7Lkv0ClgdKwGPD6rz0kKkOUIZtgz4BPvwJiAAAAuINPSeHc66v0rtDZrx6xadaNFBp0Ji4c1RknHGkCIYBPlCEC1EZeFPBlfeoqEAbsefRlUr2eiAKk7vugqkPNa1FLHeXqtbXtew7T537yJ7roM/fT0q9Jr4EoxJLziXcwRm+/9GSr3y2SCTY5R2MHX7AeNlA4ZhMamEQgBjz4+IFycyhKCz4JMQAAAFwDWeKbR3fW7z51kty84SiN0U0GYrLDzHTuBzx/yXR/gRAA6kGKbfM9S1zZpQxe/aJeOaQo4HL4QDEdwkNGiidV17jWsK2vex/dJxp9n0/Vp9OVc6fTFcnp1HaUvWR8urhi7nSi7z8qvAXKnXyb4q4te7Sk5r/3j/vFPNji2pcdT5/7yY4S3wZVoBAWAXq+9YdKXjVC5X3yM6+EGOAngyHUBgYAVCbqSRN9Y1CdfOk8+e1RiQZXq3Js9SFrqfeofukm69GpZDhI9/H18AZoEukpMF8JKys86jmLeouFl4ON/CccPpBMb1RhQb7cc10qD8PSSslUjVQZaJQ7t+wVjWFhgF3K+adt47pROEP/JXOm0XUXnWD1e3nM+HRf12d94ppZWj6rFnhuWUARp96gJOxB87EfbK00x1IM+CzEAI/ZajzrNQAA+IzM+r3WgPEdxN72KwN8o0jkV87AkK7K3BZrDg8oZqXDSR7DR54OmxBi4os0eG83kAfDJJ3KW2CplcStHMIjKyD0G37+ddKuQi16ywmfra72PBAHPvaDbcJgvPaiE7wQBy49Y6rwcLDJnRpj//kEmo3z80872toVvP2yU+gfvvfoxD+Eg4AQAJZ//9Fq8wsxAAAQFlE3VkaRjdwxMilOlrXM0Ly0j5fzImFwUlGGf5t16Uca8liICzJXAMIDTCAPJ+YowcWFOvy10KEM3m5LogC/G5YqD5V+jyoUDYh1rcTaYqXKQLNty+PP0Mf/71Z6+T+N0GvXPEBf//lOZxMSvu2yU6yHO+zYe1jreIsQDouwgIIqAxPhe/zlnx6hux7cU2muZM4AiAEAgHCI+tqDuH83WWqxV10FzZYYwEJbr6Xv8g+IAXZg8Y2FAaLVnqyF7Spm3p6AweJJJjVfPa++eHkOlEo2aLXKgA62PH6APqbEgd51v6d7/2jXeK1GGLkP/vPG8+jXH+6kT7xudkNeFPz3r73oRFr7xjPE5/CJvU14zLjfgOi7//OUuLf5HueyghWQngGfgxgAAAAegHwEupAngKujcTElWWnllNNHZFgHxABbcMgKCwOZ1BxPjN4OlVPCLnzinkl1q4oNgx54zw2o/CfjOJVDoF7ufHCvaGzQvu+vTxdGbVzhMWDvhLcpY37fwRfowcefEb9zucdCONfBXBUScMmZ05wYMZ47nss4wnN155Y99Pn/+lOtni9CDPjz51+FDQMAAADduC9eyNCB2RE0DtcgVKAM8lTTdMK7rPJ82qh+ZlXpx8ZPyJPpaLi9yvtyUBmSPBfLHHWV5yShKyiTsl8RQIZbDFMyvVKNkek8I43SrvJEdAf/3tkcAvXARtTy7z5K3/31U/SJxR3jxm6cmXbUi8aNfVeM/kpwhQYWKsbLT8YgbOAuFrS27BE/6yi7CTEAAF/IpBKYKzAOu7IiSZw+uAyYjPOPiigwKJK6gclIN/ABQyOTHa/0A8+M6khxZI1oeXFgsWNCIlcfGAxtvZXfGwgo7WqMFqqfruRk6BIiGydJlB4C0TG8OHzg9V/O0D8unh1rbwFf4Tn72s+eiOz1sXDF9yg3IQJUDgkohRQD/vlivLAAMMNGrZsazkaODabPjGje5HY673IrM+j7Q3REgTUQAyqiu9wkqT3VSnhkNEGhOEDjXhwL1boZ5loSJAhdFWIfJIXiAIddyDW2yxERhUNwlCAQMdjIWn7bH6ltSitdcT7i0n3i2pdHRxDgXBfb9xwWYRtb/nRA/GwyESbEAAD8A7Wx/WZMc+/dFwR8rKogRYGtnpagg1FaDXkKrTtUYBBlHQ0gT5uFgVl0Mm4zKWfAcicEgWLkIcFIgYhSKA7YFlE6xPdnUsOtiYh6Zi+/7RH69Ufm07SjIqd5RBYO9Zg1/UhhSNuGT+3vayBBJfe1sL+Vklw24TuczbEY8AWIAQAYRvcz1uVR5mEwGd3GwmwPxtgvD4EAmVNgWCUU80WIGxEnhvAiqoZuoQfeGDaYeDIeeB8ts2j4tlMy3eO82BbkHaBx8avLcu4BnpPh1qgWfOcM7Zykjk+dgT+8bcEp9PHbR8m2UHXfI/vo8/+13cVxkp4BX7gEGwYAzKO7tJIPBiAojwmByHUWens/8MY6mZ6jDEjTyeeagd/ra1VZN1AdnYYR8jSERf5kvFAc6DEs4C0eFyR8QIZgFOYe6FGeDia9K/j56m0RekBE244QTppBc1xx/nHhaVTuPQdZylH3TogBANhB/0kdSs35jW6BqNNqjezG8P2e7XTcQ2BQ1HaHGFAbMiZd13yOivASm7j/vIcDv2tZmMmkpqtyhrrX2gB/1zNZ8nGNKvnYbdDbkD0pulqa+QQ+fZ95XH017wGoBN9PQhQAwjNgZz/EAAAso/OZ6yiu9Qs8oplSY+VxsQSVRBpffsInjsn0BiLa4GCCQb6PVhPRdGGQIm69HhZr/KzV5rs7CT9DcGwiXfrnj8fU66Xdu0SppWDvp0yKRYGlBkLZmK4WUWWggTZz+hG05k1n0U9uvpDed/kMmjblRQ19jsmG8oN+IpNB2nYTcOrezVIuBzEAgHDQ/dz5a2QBMnAqo9PA0Y3LfStPMs2n7ZtqOA0MYpptGORB9vX54oSPPQIgBDSCrhPebEix5BCEa0Gehq9U3gK6n5PozIFM2jjfwD5lXsMeAjdfPlP85KR9/PtP3jePrn3FSTo71xTcrysuwEmzj1x5wXE0bUpsk0FKz4A1l0IMACAcNmr+1mWYR6/RLxC56EaczwjuD9znZHpTHUnnVqoT+ulqU71SCQTNij5Z9RlrlEEzR4kAK5EwsGl0GXNDIfXf35wcYSBFG905HqLlpSE917o1CyftrY0cxLJbd7Hxz3/GHgMsDvzzXdvpu796Ul83G+Dtrz411O8HjROKmJMLwSlhMlIMWAsxAIAQ0X0i3CnCBsy4nwPzbDSQoM6N+tgT0RmrbR7pBryhjj6PTDghLkxwVogsARZQKh/BaEG8cxYGv0EmzkWzbA3pKpBHpl74OU2mFzoY+uMO7FGRTC9Va6AOOlsbKYX2vitmlv1/Qhi4/iy6+YqZ9I2Nj9N3f/WUyPhvk0vOahPfD/wljNwUTZQF1IEQA56AGABAuLDhnkyPaD5VWG7g1APYwUQip+WUTK9xzIXcnxr+0puh3vKCt9f0t2QJsACUDI0O9udSilYIGWiM1RoFgXm2O28FWVVF116lve4cApw74I01hAawQbd66Rz61cdfKgSCS86cZiX+muPP//XvznViroBnhJwzAGIAAM6ge/PYg2zTniKNdt1rc7tTZfGS6RWeGS7rG+gvjHv/8N3Ve7kDffAT6VGna92N8ru3NqGzBurOIXDzlbPq+vvs/s0Cwn+853z6Zd9FtPr1c8QJvm6EZ8INZ9O//v154jsB8ATpGfAvl0EMAMAd1mnuCW9I+jG/3qJt01XAcicqUEihyifvgJ4G3bBxUusf/hpy8tmGy3tzIAlndbTZDnVZzmx01+IdUOnfv23haaIx9z0yRvc+so+27z5EO/YcpnsfGavr81hYmHv6MXTx2W1IIAiaI5z8ARADAHARjgvWHzbAXgLrilyS3UAahf0q6Ro2YZMZMmA085gPqORQYTLgmeHVqLC2UCUQBPGk07KXiD8iG42HN/RRJrXUgd4EbHQqB4N8Tw6IcAZ3codoe1/XlVTw5ivq8w6oxsVntYlWzPY9h2nHnkNl/3WpfwNA09gVBaQY8EWIAQA4ylr18tfJACXT850yuuUmZ4PaMHMCxG4PRQGzmbylQDRq4JS5S5TM45J0YSBDBfypLCC9AxoVL1iQW4skgLFltrULl8kQ/fEOKEzQmUwPiEocbqBrXW/+mZ/4nuxS70kX1hJtYm5LPr165Sa8A15pp6wgf1cgFpRqAOintudAU8sS5SAGAOA2Q4bqIa935qonbnJI/dyAfAclWWvoc/uUoWsX+Z2+hbEsbvLfb9CcuR4Q+bIptyN85U+R/WBytY4eUcrTjXeArj7U535ezOT3ZLtaS1zIcaGrD8MtiRxRLa3e3AEA+Eatz0KTTXkGLIAYAIDLyFNyE0ZglziFCRsZ47qhxIbCR1HAxsbMpLv5gFVRQH6XP0ZLnmaN+WAjz80fzwi3Mfns6XTx7zAuBuUNRz/yVZQv3Rm8A8K7Dvnduu6txkv+ThYDAoK1JOx1ZJmmz8nWlFRw5nFTrHkHABAGlkoOQgwAwC/WGEps1KOMknCMbrkx3lRhw+WbKNBufLMvBSLTooD5E3sZJuCfGCANBF33Y5fw1Emmc+o57BciCd9DLiR69Isuj9YJc89XecPRTcqLAQGd4h0RnsGrc64a23NXn9N2tY6E42kl50bXerW5phwC712Emv4g4uSM5xDIUoK6H78FYgAA3sBGIMcdm0kQ1aU2XL3WEg3mM8rXUvIuEAV8ySnQZyFpmM7a2KVYoYSNXu3xqdLQHXAqSVd9mDLUuyaNSTJNSggsnIONRf9udNLJo4sJQ0uj+3nuEwlJ9aN7v9QpjLdMSm9fpXE9ECExICAweIdUwtnGT9rr61+PxhCPbENraX0CzwplnNt8l3dqFnaHW6tZQTOPZ++AkzV+JwCuYkwREJ4Bj9/yaogBAPjHGuWWZ8Ig6VBGt9kNl9zcrFB1ses5zTMpCuj+vCAUw1ylBJ6fZHrQsCgQnMwNqmzWzd0T+bmvR9Qa8irZoBnai4SC6kKKFBICAsOA78XNBQLDqDXDqjy69yJsEI1pT44pBVndyTz19lV63PR5U6mjdjGgkCVqfV0r3ocmBWI5njpP3Os30Bvz9ih8l5utQiBF4/Va77lMarhq2cH3IndA6Nx1/25a9R+P0uXzjpclFi883mqX9h18nu79wxj9ePNumnZ0K63+mzOcHCdHkWLArRADAPASuSntVRsEUywRTW4muDThkJbvkZu/ZcqAbXTzYEYUkJn7tX2coqdgHLcWbAbbCzZ3C9XvI5RJNVLyz7SXQECPCi3ha7ldGOm1jr/c0HapJHz19jUr7kEIAs1SKCBMHEt53w8rw3yz+D18kaBZODnmMiUmbS0QHTpUaxvP0C4NploN8hEDYiz3daE60W1s3OUpdl+NfTNRoaR+GhMDAgLvsuVqTdJbsUMauX0GPJhur7MfzYZ+BO/yYbWO1r5uV+9bhxoj3e8fsd+oGDIgvANeBe+AsGFDfPvuQ/SNu/8kGsPCwNwZx9LcGceM/9TFfX8YE9/HP7fseJq27Hhm/JOnHRVhQUC/g4AUA74EMQAAr2E3wGR6TY2u9s0QbCZIGQwb1c/qbo9ysxAkYpqnNla6NqGmPAWyBk7W2gs2TPpDPaSXgI17IWCJapxjYEQZF5vV/wvuiWDzOnu8fGTjrDWUN6NZfDeYi5kYqiBPwofEM69LECyPqT1Jh4Hn4nZD4hSP/WPKE+d2JcqUv+8nimxL6li3RpVhaCLsrHaaEwMKaS8QK0cL3lMjdQkE+fFcqMbThGCSDYzdOvqkKw9E8HwPKAFlo3ruRup6h0qhJBD2TYWk8P1JFT0E3rsI3gEucNfm3ZN6wcY6t0JmHn8kzThuCrUd3TpJILj4bLkGjB14njJ/enrC/2ODn/+cf7I3QCX4/3N/rphn10vBPNrVAIgBAESL1eoFbytONNhQyI1k/jQ9W+L0zQYmRIERT2PaVxvcxFYiMPZNnd5nVYiMe7HQUohxoCPGCIxpdmkPEliuNeI5IL2eTIhxJhgynASzZ1xAlIJbqbWtmXV2XVO904E+MaCYjqLxo5K5NSbTaeneW1unV5WppJBLJqzZ8tmrZhvYerePBgJkayJX2hCaAe8AJ2DvgP0HnqspC/6OXYdEY348sqvo/26t6XJq+Z4fb94VPUFAlATUJgpkc5xA8EsLIQYAEBUmhg6EuZEujm22iW5RYKOXgoCdMJIwWKmuzdX+xSW3QXuBOKAnl8Rkhr0YS3k/2pp33cbgqAiNSKb15laoB3NiQDlsitSVCMTN6tivEBHmO7yY1cF/ly07ePNVs8PoGCiCjW/X+HEJjwUwjvIMgBgAQOSQLpHdjrpU20Jn+TdfsrJPRmaTrm3D6QfsMm2yrKIO6osHjgY9yrW9X3N5v+KqCS6z1tOZXF3D3zHNgDcJD/Wyug7RmsU3PypE6GXCml9SEOCY9DfAO8AJSoULhA2HDUAUKIkQA/70ZYgBAEQWKQqYKLHlA2KN03ZaKY1qf8UVWb4sCut9ViRYcx25eY3r+3WFqj6hy3AxnadAH3Kd8E08dEVg642hgM1x+rWLtTLBpetiqG4mrfkt4/XXC9p74R3gBGx07zvw/KT5caHd9/sIri/NjWuWchADAIgFcqMXt41WIAboXuP8MUxK0x0BI9VejfHmcV+4MEeHEgWazzIu59un+9aF0/ZacUdgk+v1/BgJaTz2S+v+V5lUb8xEgUlrfkspy2bV9x+h79+3M7xuOgS77Iflti+/10E1gHJOhjI0T8PjIT0DvgIxAIDYIEWBuIQPmBIDyLON/mSkW+pSj++DQQ9CBfLIezDOogCpzOU6So/544rvV4hO4+UMTSD7EgXhshrNebBJUSBKYWDlWFNqzS8ZMsAl51b+n4fpDV/YHM2T4Br5wg+30t99ZQtdfE444Td3TUoM6A58j3BJwsjQeD5BiAEAxJV4nL6MGBQDgs2q3ycz+Q23b6XxBtUm2C/kZtZnEUYHA02HD8hx9OmeXe3BWrvGQtnI+mHhMpOaH2GDV49oLcPAouz9N6iucRIlQwaCxmIAiwLconkiXBo2dC//1G/oCz8cpTe+6hRRe982PN6uhgsE7fv3/dm5uWuKRsMEvtIFMQCAuJI3BqO40RoyKgbkWe39Bsw/cchPMSBAGl3zvU5M2TzrNSQa9OcekN44LhtrZY0tZ5D9i5qYpteDTQplUVxbVlZa88tWGSiEhYG/+/IWuvgjvxShBNVq1fsKXxd7BVz+yd/Qlu3y9PvyznDK6/14xP2kfZNLG8YK6RnwVYgBAMQeefqy0tNT4lJkldvrUk3lBSsjRRX/3cDlWHV74PGwxmsxIIDvm0yqW415HIUBzinQ19QnSFd8f8J23K304o/AJsW0ORGJmZdCrG7ROr+2rIyAeCLD2qokWqxJEAgQoQTrHqaLU7+k9657aNxojgIsdLAQwF4BATOPn0KXzzshlKvzwdgWYQORuQfqihmAGAAAmAxvrjOpOZ6feA+KzaLtuHK5SY2GKCANAxdPMoONYdSqZPC7eF1ExLh6WUHJdHN1333Lsp4XBVzZg1U8eXWS/Drlq5iWVaUF5xvN1yCNaJ/FkyH1Pq8axtKSyOWo3rbvwHP0/Xt30hWf/B/Rvvn/dtCO3YfsXJpmWAi4OPULeu/gQ7Rj18EJY3H5vLC8A3aJMW5kbmy3/4pIKEmCW21jl03kchADAADlkRts34SBYeV22WvFK6AU+eoN/iOvxaWN5JA6SfO9qkMeNoST6QFRp1/WW2/OMPaX5rwEyMMs63lRIMz7eVStmf6Gi0kR2zcvm0G1lq2y8m158cQnYSB4n9fs5VeXh0Ap+IR41fceEUa1L+IA96//h6M0d+XPpRBQpr9//9oZ1vtGnrnixyxsQHgG7PhaN8QAAEBl5CYiEAZ6HY4tH1Qbh27lPhwu+fhN/0973TiFK9wYRuMEfaIQwNn2a4mjDxIRrlZG5HCE4qiXaPkUea/6E18un6+lqs827+2suo/mO7Fm6iAvDMxXz4qL90DgvRZOFQcZRsDPyHQVSuDiejrc6Ptca7Y8Fge2bH9ECAQzjp8isvOLdm67+O8wYaOfjVf2bKglO/7cGceG1mefjGyecx7bsOe3aapHDEAMAADUj1TnB0WTrr1swCwmouYyhDfHsHKxHgrNG6AS8vRvjiqt1uf9ya/cmA2r+e9TBpzp8kVDoqxcVAyWgGR6hRrDesavML578omynJfgHuss+Oy2Es9pV6NdN0g7JdNLtHh/8Gck08MiFIFouYX7tHnkdQ9ZWC+yqlTjGifXTR3ky3r2intKvqtsrFflcO9dJfuxRjRZ6WOZWhfCeqePFqz3DYsUiRlv27BKi7tRFdhgnDvzWNFedW67iM83aUSyoZrZ/rRIiHjfw9m6vRa4bzNPCMfI5f76BM/ptKPtV2LQyfZdhyrdI1IM+DrEAKDIG3a6GI7cxr0ekmldrn+j3tRUl/cQbyIWqo2Eyc3EsPJQ2KjuNb9eMvmNaZeGzX52POY8zHtF7zWRui6e59ub3jzrXN90ufXKbPoDDZyGD6lTZDNMFBOC39sKnmlbhtQaI7khpJG9UJNRGNyjZoWqZLqrwEjTsV4MieeqUcFF9keHkBTe+00avoXvK1Oiy0jBu8pNwboc9t7po0VjpMVTwZogUA72HuCyfmxUMskSxiV7GQSwoV9c5eAXyoAO/p9vBjVwGogBAAA7yE1Xh9pIFJ9OdpTZhBVurHm92lzw51kLJQPtkjfAgg32wgrfzxulrQUiwKiTbvPymoIN5Owyp9Wkrme04Pet4xvoqIQDlEKKARsa2GBnlYtxeJvC/NyaPmkNXL7NUXl9Kobvy7GCe3YklHnIG2kdBWtFe1HfswUhXcEaGv3nqlmk0FEsggUUjzEVjTMVrGGjam2O3qGIfGbaK7yvSglFpd7p2YJ70shzlJjxtrtDFQQAcBglBrwGYgAAAABgm8bFAFJZyO0kHqsVc27tLP5NN9dxAECUaRGx02hoaMUtSzmIAQAAAECI9Dfheute9vd80kzd2fHdj/UHADhL01UGAIgg0jPgGxADAAAAgFCQeRYazWXgbq6MfHZ8vXsM6Z4MAAB1A0EAgIlADAAAAADCp7+JHmz0YP50JwGElwAAoCFaEpxIAA0NjSAGAAAAAA4gY+2bibN3PxmcTKKGpHUAgNBpraH+OgBxIJsg6t7+TYgBAAAAQMgsb/LrfTG0Rw2WcAMAgJpoJSgCAAjPgO3ffC3EAAAAACBM8qX64sBGTTXqAQCgYZBDAMQdiAEAAACAO+gwkH05dZ+t7ZOiWMcdAGAFhAyAOCPFgH+FGAAAAAA4gg5j3hdBAOECAIDQgYcAiCsQAwAAAAD3WKihR4s9mVdd4QLYywAAGgaCAIgjEAMAAACA6NKpchG4i6yk8MNsUQAAAzFJREFUoAtUKwAANAwEARA3IAYAAAAA0afP8SvU2b+NGj8LABAzIAiAOAExAAAAAIgHPZpP4fWRTPdrzh+AhIIAgIZppRyyCoJYIMWAgf8FMQAAAABwF53u7wOUTHMG/kFnrlaKASs0fuIoZVLY2wAAGqYVQwdiAMQAAAAAwA+2au4liwLziGg1ZVLZ0EZA5jQY0JhIMGBI8+cBAGIGQgZA1IEYAAAAAPiDCfd3PpF/jJLpVdaTDSbTSyiZHhDfr18MYNYa+EwAQIxIzOz9ySoPEq8A0AgQAwAAAADfSKb3ElG7wV6PKOFho/g9k9IXppBMd4kqB0TslbDE8HUMUibVa/DzAQAxoDWBFAIgmggxYNsgxAAAAADAM4ZEUkBzdKomY/k5z4AUCbKqba7xm2cXJAfsNGz8F5MVYRAAANAkyCEAogjEAAAAAMBfVhsWBErRWfBnSzwYudVaPRsAALEFOQRA1IAYAAAAAPiMNHTXYA7LMkyZFMYHAKAFCAIgSkAMAAAAAKLBas0lCKMC73GWxn0QAAD6gCAAogLEAAAAACAqyBKBS9X7HUh4j9MdavlEAEDkaCHirIJoaF63LFEOYgAAAAAQJTIpfq+vxJwKIAYAAIwADwHgO8oz4K8gBgAAAABRI5MaJKL5MfcUGIQYAAAwRSuh7CDwFykGrIMYAAAAAEQW9hRIplkUWF9UDSDq8D6nlzKpIdzcAABTwEMA+ArEAAAAACAucOWBTGq+CiGIw0k5VxGYAzEAAGAaCALARyAGAAAAAHFEltubo6oQRE0YyKrwABYCViJEAABgg1aMMvAMiAEAAABAnJGG8ipKplkc6CGi5UTU4fGI8J5mnRADIAIAACwDQQD4BMQAAAAAAEik8bxGtGSacwssI6IuT/IMDBPR7UQ0JMIhAAAgJCAIAF+AGAAAAACA0sgShXKPkEy3K2FgoRIHukIetVHVt81CCMikhkPuDwAAjJOYtey/Ozx3swLxYHTbur+Cgg4AAACA+kmmg/0uCwQsGMxTP6ngzxplpCCfAf8+Nv5nMP4BAI6TwAQBAAAAAABQgPQyKA49yCpPBAAAiAZE9P8BHZmdBtmIOuAAAAAASUVORK5CYII=;" vertex="1" parent="WhO8sSTrkAHzqlUvpctj-10">
          <mxGeometry x="10" y="11.599999999999994" width="113.51" height="18.55" as="geometry" />
        </mxCell>
        <mxCell id="WhO8sSTrkAHzqlUvpctj-13" value="" style="edgeStyle=orthogonalEdgeStyle;rounded=0;orthogonalLoop=1;jettySize=auto;html=1;endArrow=blockThin;endFill=1;strokeColor=#475e74;endSize=4;startSize=4;strokeWidth=1.5;entryX=0;entryY=0.75;entryDx=0;entryDy=0;exitX=0;exitY=0.5;exitDx=0;exitDy=0;" edge="1" parent="v15C_StxA6uIfy9EPT-R-1" source="WhO8sSTrkAHzqlUvpctj-8" target="WhO8sSTrkAHzqlUvpctj-6">
          <mxGeometry relative="1" as="geometry">
            <mxPoint x="372" y="190" as="targetPoint" />
            <mxPoint x="229" y="115" as="sourcePoint" />
            <Array as="points">
              <mxPoint x="30" y="115" />
              <mxPoint x="10" y="115" />
              <mxPoint x="10" y="335" />
              <mxPoint x="133" y="335" />
            </Array>
          </mxGeometry>
        </mxCell>
        <mxCell id="WhO8sSTrkAHzqlUvpctj-14" value="" style="edgeStyle=orthogonalEdgeStyle;rounded=0;orthogonalLoop=1;jettySize=auto;html=1;endArrow=blockThin;endFill=1;strokeColor=#475e74;endSize=4;startSize=4;strokeWidth=1.5;entryX=0;entryY=0.25;entryDx=0;entryDy=0;exitX=0;exitY=0.5;exitDx=0;exitDy=0;" edge="1" parent="v15C_StxA6uIfy9EPT-R-1" source="WhO8sSTrkAHzqlUvpctj-11" target="WhO8sSTrkAHzqlUvpctj-6">
          <mxGeometry relative="1" as="geometry">
            <mxPoint x="143" y="345" as="targetPoint" />
            <mxPoint x="40" y="115" as="sourcePoint" />
            <Array as="points">
              <mxPoint x="20" y="165" />
              <mxPoint x="20" y="310" />
              <mxPoint x="133" y="310" />
            </Array>
          </mxGeometry>
        </mxCell>
        <mxCell id="WhO8sSTrkAHzqlUvpctj-15" value="&lt;font size=&quot;1&quot; color=&quot;#f5f6f7&quot;&gt;&lt;b&gt;Employee&lt;/b&gt;&lt;/font&gt;" style="rounded=1;whiteSpace=wrap;html=1;arcSize=50;strokeColor=none;fillColor=#475E74;" vertex="1" parent="v15C_StxA6uIfy9EPT-R-1">
          <mxGeometry x="30" y="327" width="65" height="16" as="geometry" />
        </mxCell>
        <mxCell id="WhO8sSTrkAHzqlUvpctj-16" value="&lt;font size=&quot;1&quot; color=&quot;#f5f6f7&quot;&gt;&lt;b&gt;Contingent&lt;/b&gt;&lt;/font&gt;" style="rounded=1;whiteSpace=wrap;html=1;arcSize=50;strokeColor=none;fillColor=#475E74;" vertex="1" parent="v15C_StxA6uIfy9EPT-R-1">
          <mxGeometry x="30" y="302" width="65" height="16" as="geometry" />
        </mxCell>
        <mxCell id="WhO8sSTrkAHzqlUvpctj-17" value="" style="group" vertex="1" connectable="0" parent="v15C_StxA6uIfy9EPT-R-1">
          <mxGeometry x="740" y="250" width="194.51999999999998" height="154.12" as="geometry" />
        </mxCell>
        <mxCell id="WhO8sSTrkAHzqlUvpctj-18" value="" style="rounded=1;whiteSpace=wrap;html=1;strokeColor=#0070F2;strokeWidth=1.5;arcSize=16;fillColor=#FFFFFF;perimeterSpacing=0;absoluteArcSize=1;" vertex="1" parent="WhO8sSTrkAHzqlUvpctj-17">
          <mxGeometry width="189" height="154.12" as="geometry" />
        </mxCell>
        <mxCell id="WhO8sSTrkAHzqlUvpctj-19" value="&lt;font face=&quot;arial&quot; style=&quot;font-size: 16px;&quot;&gt;&lt;b style=&quot;font-size: 16px;&quot;&gt;SAP On-Premise &lt;br&gt;Solutions&lt;/b&gt;&lt;/font&gt;" style="text;html=1;align=left;verticalAlign=middle;resizable=0;points=[];autosize=1;strokeColor=none;fillColor=none;fontSize=12;fontColor=#1d2d3e;fontFamily=Helvetica;" vertex="1" parent="WhO8sSTrkAHzqlUvpctj-17">
          <mxGeometry x="44.51999999999998" y="9.819999999999993" width="150" height="50" as="geometry" />
        </mxCell>
        <mxCell id="WhO8sSTrkAHzqlUvpctj-20" value="" style="shape=image;verticalLabelPosition=bottom;labelBackgroundColor=default;verticalAlign=top;aspect=fixed;imageAspect=0;image=data:image/svg+xml,PHN2ZyB4bWxucz0iaHR0cDovL3d3dy53My5vcmcvMjAwMC9zdmciIGZpbGw9Im5vbmUiIHZpZXdCb3g9IjAgMCAxNiAxNyIgaGVpZ2h0PSIxNyIgd2lkdGg9IjE2Ij4mI3hhOzxwYXRoIGZpbGw9InVybCgjcGFpbnQwX2xpbmVhcl83MjRfMTIpIiBkPSJNMTQuMzMzNSA1LjgzNDk0QzE0LjU4MzUgNi4wODQ5NCAxNC43ODE0IDYuMzc2NjEgMTQuOTI3MiA2LjcwOTk0QzE1LjA5MzkgNy4wMjI0NCAxNS4xNzcyIDcuMzY2MTkgMTUuMTc3MiA3Ljc0MTE5VjE0LjQyODdDMTUuMTc3MiAxNS4xMzcgMTQuOTM3NiAxNS43MjA0IDE0LjQ1ODUgMTYuMTc4N0MxMy45NzkzIDE2LjY1NzkgMTMuMzg1NSAxNi44OTc1IDEyLjY3NzIgMTYuODk3NUgyLjc3MDk0QzIuMDgzNDQgMTYuODk3NSAxLjUwMDExIDE2LjY1NzkgMS4wMjA5NCAxNi4xNzg3QzAuNTQxNzY4IDE1LjcyMDQgMC4zMDIxODUgMTUuMTM3IDAuMzAyMTg1IDE0LjQyODdWNy43NDExOUMwLjMwMjE4NSA2Ljk0OTUyIDAuNTgzNDM1IDYuMzE0MTEgMS4xNDU5NCA1LjgzNDk0TDYuMDgzNDQgMS41NTM2OUM2LjU4MzQ0IDEuMTM3MDIgNy4xNDU5NCAwLjkyODY4OCA3Ljc3MDk0IDAuOTI4Njg4QzguMzk1OTQgMC45Mjg2ODggOC45Mzc2MSAxLjEzNzAyIDkuMzk1OTQgMS41NTM2OUwxNC4zMzM1IDUuODM0OTRaTTguOTg5NjkgMTAuMzAzN0g2LjQ4OTY5VjE1LjI3MjVIOC45ODk2OVYxMC4zMDM3Wk0xMy40MjcyIDcuNzQxMTlDMTMuNDI3MiA3LjQ3MDM2IDEzLjM0MzkgNy4yNTE2MSAxMy4xNzcyIDcuMDg0OTRMOC4yMzk2OSAyLjgwMzY5QzcuODg1NTIgMi41MzI4NiA3LjUyMDk0IDIuNTMyODYgNy4xNDU5NCAyLjgwMzY5TDIuMjA4NDQgNy4wODQ5NEMyLjA0MTc3IDcuMjUxNjEgMS45NTg0NCA3LjQ3MDM2IDEuOTU4NDQgNy43NDExOVYxNC40Mjg3QzEuOTU4NDQgMTQuNjc4NyAyLjAzMTM2IDE0Ljg4NyAyLjE3NzE5IDE1LjA1MzdDMi4zNDM4NiAxNS4xOTk1IDIuNTQxNzcgMTUuMjcyNSAyLjc3MDk0IDE1LjI3MjVINC44MzM0NFYxMC4zMDM3QzQuODMzNDQgOS44NDUzNiA0Ljk4OTY5IDkuNDU5OTQgNS4zMDIxOSA5LjE0NzQ0QzUuNjM1NTIgOC44MTQxMSA2LjAzMTM2IDguNjQ3NDQgNi40ODk2OSA4LjY0NzQ0SDguOTg5NjlDOS40NDgwMiA4LjY0NzQ0IDkuODMzNDkgOC44MTQxMSAxMC4xNDU5IDkuMTQ3NDRDMTAuNDU4NSA5LjQ1OTk0IDEwLjYxNDcgOS44NDUzNiAxMC42MTQ3IDEwLjMwMzdWMTUuMjcyNUgxMi42NzcyQzEyLjkyNzIgMTUuMjcyNSAxMy4xMjUxIDE1LjE5OTUgMTMuMjcwOSAxNS4wNTM3QzEzLjQzNzYgMTQuODg3IDEzLjUyMDkgMTQuNjc4NyAxMy41MjA5IDE0LjQyODdMMTMuNDI3MiA3Ljc0MTE5WiIvPiYjeGE7PGRlZnM+JiN4YTs8bGluZWFyR3JhZGllbnQgZ3JhZGllbnRVbml0cz0idXNlclNwYWNlT25Vc2UiIHkyPSI5Ljg1NDkiIHgyPSIxNS44MTkzIiB5MT0iMi40MzA4NCIgeDE9IjIuMjI0NjQiIGlkPSJwYWludDBfbGluZWFyXzcyNF8xMiI+JiN4YTs8c3RvcCBzdG9wLWNvbG9yPSIjMjM5NUZGIi8+JiN4YTs8c3RvcCBzdG9wLWNvbG9yPSIjMDA1N0QyIiBvZmZzZXQ9IjEiLz4mI3hhOzwvbGluZWFyR3JhZGllbnQ+JiN4YTs8L2RlZnM+JiN4YTs8L3N2Zz4=;strokeWidth=1.5;" vertex="1" parent="WhO8sSTrkAHzqlUvpctj-17">
          <mxGeometry x="8" y="9.82000000000005" width="28.24" height="30" as="geometry" />
        </mxCell>
        <mxCell id="WhO8sSTrkAHzqlUvpctj-21" value="" style="group" vertex="1" connectable="0" parent="v15C_StxA6uIfy9EPT-R-1">
          <mxGeometry x="290" y="310" width="110" height="95" as="geometry" />
        </mxCell>
        <mxCell id="WhO8sSTrkAHzqlUvpctj-22" value="" style="shape=image;verticalLabelPosition=bottom;verticalAlign=top;imageAspect=0;aspect=fixed;image=data:image/svg+xml,PHN2ZyB4bWxucz0iaHR0cDovL3d3dy53My5vcmcvMjAwMC9zdmciIGZpbGw9Im5vbmUiIHZpZXdCb3g9IjAgMCA0OSA0OSIgaGVpZ2h0PSI0OSIgd2lkdGg9IjQ5Ij4mI3hhOzxjaXJjbGUgc3Ryb2tlLXdpZHRoPSIwLjg1NzE0MyIgc3Ryb2tlPSIjRDVEQUREIiBmaWxsPSJ1cmwoI3BhaW50MF9saW5lYXJfMjYyMl8yMDQ3NSkiIHI9IjIzLjU3MTQiIGN5PSIyNC4wMzQ5IiBjeD0iMjQuNSIvPiYjeGE7PHBhdGggZmlsbD0idXJsKCNwYWludDFfcmFkaWFsXzI2MjJfMjA0NzUpIiBkPSJNMjQuMzkzMSAxMi4yMzcxQzIwLjExMDcgMTIuMjM3MSAxNy4wNjgxIDE1LjcyMzEgMTYuNTYxMSAxOS4zNjI1QzE1LjE4MzYgMTkuNDQ0NCAxMy45NjcyIDE5Ljk2MjEgMTMuMDIyNSAyMC44MzE3QzExLjc0NDUgMjIuMDA4MSAxMS4wODQ0IDIzLjcxNTYgMTEuMDg0NCAyNS41MTYzQzExLjA4NDQgMjcuMTg5NyAxMS41OTIgMjguNzcxNSAxMi43MzE2IDI5Ljk0MDlDMTMuNTg2MSAzMC44MTc4IDE0LjcwNzcgMzEuMzcyNCAxNi4wMTcgMzEuNTk4NEMxNi4xMzc2IDMxLjM1MzUgMTYuMjczNSAzMS4xMTY4IDE2LjQyNTIgMzAuODg5MkwxNi40NDEgMzAuODY1NUwxNi40NTQ4IDMwLjg0NjFDMTYuNzA2OSAzMC40OTAxIDE2Ljk5NDggMzAuMTY2IDE3LjMxNjkgMjkuODc2MUMxNy4xODMxIDI5LjQzMTcgMTcuMTE4IDI4Ljk2NDUgMTcuMTE4IDI4LjQ4MzVDMTcuMTE4IDI3Ljg1NDkgMTcuMjM4NiAyNy4yNDEzIDE3LjQ4NDkgMjYuNjU5MkMxNy43MiAyNi4xMDMzIDE4LjA1MTMgMjUuNjAwMSAxOC40ODI0IDI1LjE2OTFDMTguOTE4IDI0LjczMzQgMTkuNDI1IDI0LjM5MTYgMTkuOTkyNiAyNC4xNTE1QzIwLjU3NDcgMjMuOTA1MiAyMS4xODgyIDIzLjc4NDYgMjEuODE2OCAyMy43ODQ2QzIyLjA3NTkgMjMuNzg0NiAyMi4zMzI0IDIzLjgwNTEgMjIuNTg1MyAyMy44NDY0QzIyLjkwNjUgMjMuNjE3OSAyMy4yNTIyIDIzLjQyNTEgMjMuNjIwNCAyMy4yNjkzQzI0LjI4NTEgMjIuOTg4MSAyNC45ODYzIDIyLjg0OTcgMjUuNzA4OSAyMi44NDk3QzI2LjQzMTYgMjIuODQ5NyAyNy4xMzI3IDIyLjk4ODEgMjcuNzk3NSAyMy4yNjkzQzI4LjQ0MzYgMjMuNTQyNyAyOS4wMTc2IDIzLjkzMjYgMjkuNTA0MyAyNC40MzY1QzMwLjAwODIgMjQuOTIzMiAzMC4zOTgxIDI1LjQ5NzIgMzAuNjcxNSAyNi4xNDMzQzMwLjk1MjcgMjYuODA4MSAzMS4wOTExIDI3LjUwOTMgMzEuMDkxMSAyOC4yMzE5QzMxLjA5MTEgMjguOTI1MiAzMC45NjM3IDI5LjU5ODggMzAuNzA1IDMwLjIzOTVDMzEuMTk2OSAzMC42Mjg4IDMxLjYzNDYgMzEuMDg3NyAzMi4wMTUyIDMxLjYxMjdDMzUuMjc5MiAzMS4wNDI2IDM3Ljk5OTkgMjguMzY4IDM3Ljk5OTkgMjQuMzU5MUMzNy45OTk5IDIwLjM3NTEgMzUuMTUyNiAxNy4zMTM1IDMxLjcyNDcgMTYuOTg5N0MzMC4zNTA3IDE0LjE0ODMgMjcuOCAxMi4yMzcxIDI0LjM5MzEgMTIuMjM3MVoiIGNsaXAtcnVsZT0iZXZlbm9kZCIgZmlsbC1ydWxlPSJldmVub2RkIi8+JiN4YTs8cGF0aCBmaWxsPSJ1cmwoI3BhaW50Ml9yYWRpYWxfMjYyMl8yMDQ3NSkiIGQ9Ik0yOC4zMzY4IDMwLjgwNzhDMjkuMzA4MiAzMS4xODk0IDMwLjA5NzQgMzEuODEzOCAzMC43MDQ1IDMyLjY4MTFDMzEuMzExNiAzMy41NDg0IDMxLjYxNTIgMzQuNTI4NSAzMS42MTUyIDM1LjYyMTNWMzcuMTA0NEMzMS42MTUyIDM3LjMxMjUgMzEuNTM3MSAzNy40ODYgMzEuMzgxIDM3LjYyNDdDMzEuMjQyMiAzNy43NjM1IDMxLjA3NzQgMzcuODMyOSAzMC44ODY2IDM3LjgzMjlIMjkuNDAzNkMyOS4xOTU0IDM3LjgzMjkgMjkuMDEzMyAzNy43NjM1IDI4Ljg1NzIgMzcuNjI0N0MyOC43MTg0IDM3LjQ4NiAyOC42NDkgMzcuMzEyNSAyOC42NDkgMzcuMTA0NEMyOC42NDkgMzYuODk2MiAyOC43MTg0IDM2LjcyMjcgMjguODU3MiAzNi41ODRDMjkuMDEzMyAzNi40Mjc5IDI5LjE5NTQgMzYuMzQ5OCAyOS40MDM2IDM2LjM0OThIMzAuMTMyMVYzNS42MjEzQzMwLjEzMjEgMzUuMTE4MiAzMC4wMzY3IDM0LjY0MTIgMjkuODQ1OSAzNC4xOTAyQzI5LjY1NTEgMzMuNzM5MiAyOS4zODYyIDMzLjM0OSAyOS4wMzkzIDMzLjAxOTRDMjguNzA5NyAzMi42NzI1IDI4LjMxOTUgMzIuNDAzNiAyNy44Njg1IDMyLjIxMjhDMjcuNDM0OCAzMi4wMjIgMjYuOTU3OCAzMS45MjY2IDI2LjQzNzUgMzEuOTI2NkgyNC45ODA0QzI0LjQ2IDMxLjkyNjYgMjMuOTc0NCAzMi4wMjIgMjMuNTIzNCAzMi4yMTI4QzIzLjA4OTcgMzIuNDAzNiAyMi42OTk0IDMyLjY3MjUgMjIuMzUyNSAzMy4wMTk0QzIyLjAyMyAzMy4zNDkgMjEuNzYyOCAzMy43MzkyIDIxLjU3MiAzNC4xOTAyQzIxLjM4MTIgMzQuNjQxMiAyMS4yODU4IDM1LjExODIgMjEuMjg1OCAzNS42MjEzVjM2LjM0OThIMjIuMDE0M0MyMi4yMjI0IDM2LjM0OTggMjIuMzk1OSAzNi40Mjc5IDIyLjUzNDcgMzYuNTg0QzIyLjY3MzQgMzYuNzIyNyAyMi43NDI4IDM2Ljg5NjIgMjIuNzQyOCAzNy4xMDQ0QzIyLjc0MjggMzcuMzEyNSAyMi42NzM0IDM3LjQ4NiAyMi41MzQ3IDM3LjYyNDdDMjIuMzk1OSAzNy43NjM1IDIyLjIyMjQgMzcuODMyOSAyMi4wMTQzIDM3LjgzMjlIMjAuNTMxMkMyMC4zNDA0IDM3LjgzMjkgMjAuMTY3IDM3Ljc2MzUgMjAuMDEwOSAzNy42MjQ3QzE5Ljg3MjEgMzcuNDg2IDE5LjgwMjcgMzcuMzEyNSAxOS44MDI3IDM3LjEwNDRMMTkuODAyNyAzNi4wNTAySDE3LjgyMzRDMTcuNjMyOCAzNi4wNTAyIDE3LjQ2MTYgMzUuOTc5NSAxNy4zMTQ2IDM1Ljg0ODhMMTcuMzA3NSAzNS44NDI1QzE3LjE2ODEgMzUuNzAzMSAxNy4wOTk4IDM1LjUyNzEgMTcuMDk5OCAzNS4zMjY1VjM0LjE4MjdDMTcuMDk5OCAzMy43MzkyIDE3LjE2MjEgMzMuMzIxIDE3LjI4ODEgMzIuOTI5MUwxNy4yODkyIDMyLjkyNTlDMTcuNDI3MiAzMi41MjU2IDE3LjYwNzEgMzIuMTU4NiAxNy44MjkzIDMxLjgyNTNMMTcuODMxOCAzMS44MjE1QzE4LjA2NzggMzEuNDg4MyAxOC4zNDU4IDMxLjE5NjQgMTguNjY1MiAzMC45NDYxQzE4LjkyNDIgMzAuNzMyNCAxOS4yMDU5IDMwLjU1NSAxOS41MTAxIDMwLjQxNEMxOS4wMzk4IDI5Ljg4ODUgMTguODA1NSAyOS4yNDE5IDE4LjgwNTUgMjguNDgzNUMxOC44MDU1IDI4LjA3NDUgMTguODgzMiAyNy42ODUxIDE5LjAzOSAyNy4zMTY3QzE5LjE5MzkgMjYuOTUwNyAxOS40MDYgMjYuNjMyIDE5LjY3NTYgMjYuMzYyM0MxOS45NTc5IDI2LjA4MDEgMjAuMjgzIDI1Ljg2MDkgMjAuNjUwMSAyNS43MDU2QzIxLjAxODQgMjUuNTQ5OCAyMS40MDc4IDI1LjQ3MjEgMjEuODE2OCAyNS40NzIxQzIyLjIyNTkgMjUuNDcyMSAyMi42MTUyIDI1LjU0OTggMjIuOTgzNiAyNS43MDU2TDIzLjAwMDggMjUuNzEzQzIzLjAyNzEgMjUuNjg0OSAyMy4wNTM4IDI1LjY1NzMgMjMuMDgxIDI1LjYzQzIzLjQyOCAyNS4yODMxIDIzLjgyNjkgMjUuMDE0MiAyNC4yNzc5IDI0LjgyMzRDMjQuNzI4OSAyNC42MzI2IDI1LjIwNTkgMjQuNTM3MiAyNS43MDg5IDI0LjUzNzJDMjYuMjEyIDI0LjUzNzIgMjYuNjg5IDI0LjYzMjYgMjcuMTQgMjQuODIzNEMyNy41OTA5IDI1LjAxNDIgMjcuOTgxMiAyNS4yODMxIDI4LjMxMDggMjUuNjNDMjguNjU3NyAyNS45NTk2IDI4LjkyNjYgMjYuMzQ5OSAyOS4xMTc0IDI2LjgwMDlDMjkuMzA4MiAyNy4yNTE5IDI5LjQwMzYgMjcuNzI4OSAyOS40MDM2IDI4LjIzMTlDMjkuNDAzNiAyOC43MzQ5IDI5LjMwODIgMjkuMjEyIDI5LjExNzQgMjkuNjYzQzI4LjkyNjYgMzAuMDk2NiAyOC42NjY0IDMwLjQ3ODIgMjguMzM2OCAzMC44MDc4Wk0yMC4wMzY5IDM0LjA2MDFDMTkuOTgyMiAzNC4yMzAxIDE5LjkzNzIgMzQuNDA0MyAxOS45MDE3IDM0LjU4MjdIMTguNTY3MlYzNC4xODI3QzE4LjU2NzIgMzMuODE1NyAxOC42MzY3IDMzLjQ2OTMgMTguNzc1MiAzMy4xNDJDMTguOTE0NiAzMi44MTI0IDE5LjEwMzkgMzIuNTI5IDE5LjM0MjYgMzIuMjkwM0MxOS41OTYyIDMyLjAzNjcgMTkuODgwMyAzMS44NDEyIDIwLjE5NTMgMzEuNzAyNEMyMC41MjE2IDMxLjU2NDUgMjAuODc0MyAzMS40OTQ5IDIxLjI1NDkgMzEuNDk0OUgyMS44NzA4QzIxLjgzMTUgMzEuNTI1NCAyMS43OTI2IDMxLjU1NjYgMjEuNzU0MSAzMS41ODg0QzIxLjM1NTEgMzEuOTAwNiAyMS4wMDgyIDMyLjI2NDggMjAuNzEzNCAzMi42ODExQzIwLjQzNTggMzMuMDk3NCAyMC4yMTAzIDMzLjU1NzEgMjAuMDM2OSAzNC4wNjAxWk0yNS43MDg5IDI2LjAyMDNDMjUuMTAxOCAyNi4wMjAzIDI0LjU4MTUgMjYuMjM3MSAyNC4xNDc4IDI2LjY3MDhDMjMuNzE0MiAyNy4xMDQ0IDIzLjQ5NzMgMjcuNjI0OCAyMy40OTczIDI4LjIzMTlDMjMuNDk3MyAyOC44MzkgMjMuNzE0MiAyOS4zNTk0IDI0LjE0NzggMjkuNzkzQzI0LjU4MTUgMzAuMjI2NyAyNS4xMDE4IDMwLjQ0MzUgMjUuNzA4OSAzMC40NDM1QzI2LjMxNiAzMC40NDM1IDI2LjgzNjQgMzAuMjI2NyAyNy4yNyAyOS43OTNDMjcuNzAzNyAyOS4zNTk0IDI3LjkyMDUgMjguODM5IDI3LjkyMDUgMjguMjMxOUMyNy45MjA1IDI3LjYyNDggMjcuNzAzNyAyNy4xMDQ0IDI3LjI3IDI2LjY3MDhDMjYuODM2NCAyNi4yMzcxIDI2LjMxNiAyNi4wMjAzIDI1LjcwODkgMjYuMDIwM1pNMjIuMDE0MyAyOC4yMzE5QzIyLjAxNDMgMjguODU5NiAyMi4xNDM2IDI5LjQyMTEgMjIuNDAyMyAyOS45MTYzQzIyLjIyMjMgMjkuOTkwNiAyMi4wMjc1IDMwLjAyNzQgMjEuODE2OCAzMC4wMjc0QzIxLjM5MiAzMC4wMjc0IDIxLjAzMTcgMjkuODc3NiAyMC43MjcyIDI5LjU3MzFDMjAuNDIyOCAyOS4yNjg3IDIwLjI3MjkgMjguOTA4MyAyMC4yNzI5IDI4LjQ4MzVDMjAuMjcyOSAyOC4wNTg3IDIwLjQyMjggMjcuNjk4MyAyMC43MjcyIDI3LjM5MzlDMjEuMDMxNyAyNy4wODk0IDIxLjM5MiAyNi45Mzk2IDIxLjgxNjggMjYuOTM5NkMyMS45NjA1IDI2LjkzOTYgMjIuMDk2OSAyNi45NTY3IDIyLjIyNjIgMjYuOTkxMkMyMi4wODQ5IDI3LjM4NTUgMjIuMDE0MyAyNy43OTkxIDIyLjAxNDMgMjguMjMxOVoiIGNsaXAtcnVsZT0iZXZlbm9kZCIgZmlsbC1ydWxlPSJldmVub2RkIi8+JiN4YTs8ZGVmcz4mI3hhOzxsaW5lYXJHcmFkaWVudCBncmFkaWVudFVuaXRzPSJ1c2VyU3BhY2VPblVzZSIgeTI9IjQ0LjI3OTIiIHgyPSI0MS41NjQ1IiB5MT0iNi44NDc3NSIgeDE9IjQuODUyODciIGlkPSJwYWludDBfbGluZWFyXzI2MjJfMjA0NzUiPiYjeGE7PHN0b3Agc3RvcC1jb2xvcj0id2hpdGUiLz4mI3hhOzxzdG9wIHN0b3AtY29sb3I9IiNFQUVDRUUiIG9mZnNldD0iMSIvPiYjeGE7PC9saW5lYXJHcmFkaWVudD4mI3hhOzxyYWRpYWxHcmFkaWVudCBncmFkaWVudFRyYW5zZm9ybT0idHJhbnNsYXRlKDE1LjI1ODMgMTUuOTk1NCkgcm90YXRlKDQzLjg3NzkpIHNjYWxlKDI1Ljg1MjQgNDguODExNykiIGdyYWRpZW50VW5pdHM9InVzZXJTcGFjZU9uVXNlIiByPSIxIiBjeT0iMCIgY3g9IjAiIGlkPSJwYWludDFfcmFkaWFsXzI2MjJfMjA0NzUiPiYjeGE7PHN0b3Agc3RvcC1jb2xvcj0iIzAxOTVGRiIvPiYjeGE7PHN0b3Agc3RvcC1jb2xvcj0iIzExNDdFOSIgb2Zmc2V0PSIxIi8+JiN4YTs8L3JhZGlhbEdyYWRpZW50PiYjeGE7PHJhZGlhbEdyYWRpZW50IGdyYWRpZW50VHJhbnNmb3JtPSJ0cmFuc2xhdGUoMTUuMjUyMiAxNi4wODc2KSByb3RhdGUoNDMuNTYwMikgc2NhbGUoMjUuODcyNyAyMy41NDcxKSIgZ3JhZGllbnRVbml0cz0idXNlclNwYWNlT25Vc2UiIHI9IjEiIGN5PSIwIiBjeD0iMCIgaWQ9InBhaW50Ml9yYWRpYWxfMjYyMl8yMDQ3NSI+JiN4YTs8c3RvcCBzdG9wLWNvbG9yPSIjMTM0OEZGIi8+JiN4YTs8c3RvcCBzdG9wLWNvbG9yPSIjMDYyMzhEIiBvZmZzZXQ9IjEiLz4mI3hhOzwvcmFkaWFsR3JhZGllbnQ+JiN4YTs8L2RlZnM+JiN4YTs8L3N2Zz4=;points=[[0,0,0,0,0],[0,0.25,0,0,0],[0,0.5,0,0,0],[0,0.75,0,0,0],[0.25,0,0,0,0],[0.5,0,0,0,0],[0.75,0,0,0,0],[1,0,0,0,0],[1,0.25,0,0,0],[1,0.5,0,0,0],[1,0.75,0,0,0]];" vertex="1" parent="WhO8sSTrkAHzqlUvpctj-21">
          <mxGeometry x="30" width="49" height="49" as="geometry" />
        </mxCell>
        <mxCell id="WhO8sSTrkAHzqlUvpctj-23" value="&lt;font color=&quot;#1d2d3e&quot; size=&quot;1&quot; face=&quot;arial&quot; style=&quot;&quot;&gt;&lt;b style=&quot;font-size: 14px;&quot;&gt;Identity Directory&lt;br&gt;&lt;/b&gt;&lt;/font&gt;" style="text;html=1;align=center;verticalAlign=top;resizable=1;points=[[0,0.5,0,0,0],[0.21,1,0,0,0],[0.5,1,0,0,0],[0.85,1,0,0,0],[1,0.5,0,0,0]];autosize=0;strokeColor=none;fillColor=none;fontSize=12;fontColor=default;fontFamily=Helvetica;fixedWidth=1;imageWidth=24;whiteSpace=wrap;labelBackgroundColor=none;" vertex="1" parent="WhO8sSTrkAHzqlUvpctj-21">
          <mxGeometry y="49" width="110" height="46" as="geometry" />
        </mxCell>
        <mxCell id="WhO8sSTrkAHzqlUvpctj-24" value="" style="group" vertex="1" connectable="0" parent="v15C_StxA6uIfy9EPT-R-1">
          <mxGeometry x="430" y="190" width="110" height="95" as="geometry" />
        </mxCell>
        <mxCell id="WhO8sSTrkAHzqlUvpctj-25" value="" style="shape=image;verticalLabelPosition=bottom;verticalAlign=top;imageAspect=0;aspect=fixed;image=data:image/svg+xml,PHN2ZyB4bWxucz0iaHR0cDovL3d3dy53My5vcmcvMjAwMC9zdmciIGZpbGw9Im5vbmUiIHZpZXdCb3g9IjAgMCA0OSA0OSIgaGVpZ2h0PSI0OSIgd2lkdGg9IjQ5Ij4mI3hhOzxjaXJjbGUgc3Ryb2tlLXdpZHRoPSIwLjg1NzE0MyIgc3Ryb2tlPSIjRDVEQUREIiBmaWxsPSJ1cmwoI3BhaW50MF9saW5lYXJfMjYyMl8yMDQ3OSkiIHI9IjIzLjU3MTQiIGN5PSIyNC4wMzQ5IiBjeD0iMjQuNSIvPiYjeGE7PHBhdGggZmlsbD0idXJsKCNwYWludDFfcmFkaWFsXzI2MjJfMjA0NzkpIiBkPSJNMTcuNDc2OCAxOS4zNjIzQzE3Ljk4MzcgMTUuNzIzIDIxLjAyNjQgMTIuMjM3IDI1LjMwODggMTIuMjM3QzI4LjcxNTYgMTIuMjM3IDMxLjI2NjMgMTQuMTQ4MSAzMi42NDA0IDE2Ljk4OTZDMzYuMDY4MyAxNy4zMTM0IDM4LjkxNTYgMjAuMzc1IDM4LjkxNTYgMjQuMzU5QzM4LjkxNTYgMjguNjM1MyAzNS44MTk4IDMxLjM5MzQgMzIuMjcxMSAzMS42OTgzVjIyLjcyNTVMMzQuODQwNyAyNS4yOTUyQzM1LjE3MDIgMjUuNjI0NyAzNS43MDQ1IDI1LjYyNDcgMzYuMDM0IDI1LjI5NTJDMzYuMzYzNSAyNC45NjU3IDM2LjM2MzUgMjQuNDMxNCAzNi4wMzQgMjQuMTAxOUwzMi4wMjM5IDIwLjA5MTlDMzEuNjk0NCAxOS43NjI0IDMxLjE2MDIgMTkuNzYyNCAzMC44MzA3IDIwLjA5MTlMMjYuODIwNyAyNC4xMDE5QzI2LjQ5MTIgMjQuNDMxNCAyNi40OTEyIDI0Ljk2NTcgMjYuODIwNyAyNS4yOTUyQzI3LjE1MDIgMjUuNjI0NyAyNy42ODQ0IDI1LjYyNDcgMjguMDEzOSAyNS4yOTUyTDMwLjU4MzYgMjIuNzI1NVYzMS43MTQ2SDI3LjE4MDdDMjcuMTYxNyAzMS42ODY1IDI3LjE0MjQgMzEuNjU4NiAyNy4xMjI5IDMxLjYzMDhDMjYuNzEyMiAzMS4wNDQgMjYuMjMxMSAzMC41MzkgMjUuNjgzNSAzMC4xMjAyTDI1LjY4ODUgMzAuMTA5TDI1LjY5MjggMzAuMDk4OEMyNS45NjYzIDI5LjQ1MjQgMjYuMTAwOSAyOC43NzA0IDI2LjEwMDkgMjguMDY2NUMyNi4xMDA5IDI3LjM2MjcgMjUuOTY2MyAyNi42ODA3IDI1LjY5MjggMjYuMDM0MkMyNS40MjY1IDI1LjQwNDggMjUuMDQ2OSAyNC44NDY1IDI0LjU1NjQgMjQuMzczMkMyNC4wODMxIDIzLjg4MjcgMjMuNTI0OCAyMy41MDMxIDIyLjg5NTQgMjMuMjM2OEMyMi4yNDg5IDIyLjk2MzMgMjEuNTY2OSAyMi44Mjg2IDIwLjg2MzEgMjIuODI4NkMyMC4xNTkyIDIyLjgyODYgMTkuNDc3MiAyMi45NjMzIDE4LjgzMDggMjMuMjM2OEMxOC4xOTY0IDIzLjUwNTIgMTcuNjMxMiAyMy44ODYyIDE3LjE0NCAyNC4zNzM0QzE2LjY2NjggMjQuODUwNiAxNi4yOTc2IDI1LjQwOTYgMTYuMDMzNCAyNi4wMzQyQzE1Ljc1OTkgMjYuNjgwNyAxNS42MjUyIDI3LjM2MjcgMTUuNjI1MiAyOC4wNjY1QzE1LjYyNTIgMjguODA4MSAxNS43NjEyIDI5LjUwNjMgMTYuMDM1OCAzMC4xNDRDMTYuMDA0IDMwLjE2OTEgMTUuOTcyNSAzMC4xOTQ1IDE1Ljk0MTIgMzAuMjIwMkMxNS42Mzg0IDMwLjQ1ODYgMTUuMzU4NiAzMC43MjA2IDE1LjEwMjUgMzEuMDA1MUMxNC41NTg1IDMwLjcyOTggMTQuMDcwMSAzMC4zNzQ4IDEzLjY0NzMgMjkuOTQwOEMxMi41MDc2IDI4Ljc3MTMgMTIgMjcuMTg5NiAxMiAyNS41MTYyQzEyIDIzLjcxNTUgMTIuNjYwMSAyMi4wMDggMTMuOTM4MSAyMC44MzE2QzE0Ljg4MjkgMTkuOTYyIDE2LjA5OTIgMTkuNDQ0MyAxNy40NzY4IDE5LjM2MjNaIiBjbGlwLXJ1bGU9ImV2ZW5vZGQiIGZpbGwtcnVsZT0iZXZlbm9kZCIvPiYjeGE7PHBhdGggZmlsbD0idXJsKCNwYWludDJfcmFkaWFsXzI2MjJfMjA0NzkpIiBkPSJNMjMuNDQ4NyAzMC44MDc3QzI0LjQyMDEgMzEuMTg5MyAyNS4yMDkzIDMxLjgxMzggMjUuODE2NCAzMi42ODExQzI2LjQyMzYgMzMuNTQ4NCAyNi43MjcxIDM0LjUyODQgMjYuNzI3MSAzNS42MjEyVjM3LjEwNDNDMjYuNzI3MSAzNy4zMTI0IDI2LjY0OSAzNy40ODU5IDI2LjQ5MjkgMzcuNjI0NkMyNi4zNTQyIDM3Ljc2MzQgMjYuMTg5NCAzNy44MzI4IDI1Ljk5ODYgMzcuODMyOEgyNC41MTU1QzI0LjMwNzQgMzcuODMyOCAyNC4xMjUyIDM3Ljc2MzQgMjMuOTY5MSAzNy42MjQ2QzIzLjgzMDQgMzcuNDg1OSAyMy43NjEgMzcuMzEyNCAyMy43NjEgMzcuMTA0M0MyMy43NjEgMzYuODk2MSAyMy44MzA0IDM2LjcyMjcgMjMuOTY5MSAzNi41ODM5QzI0LjEyNTIgMzYuNDI3OCAyNC4zMDc0IDM2LjM0OTcgMjQuNTE1NSAzNi4zNDk3SDI1LjI0NFYzNS42MjEyQzI1LjI0NCAzNS4xMTgyIDI1LjE0ODYgMzQuNjQxMSAyNC45NTc4IDM0LjE5MDJDMjQuNzY3IDMzLjczOTIgMjQuNDk4MiAzMy4zNDg5IDI0LjE1MTMgMzMuMDE5M0MyMy44MjE3IDMyLjY3MjQgMjMuNDMxNCAzMi40MDM1IDIyLjk4MDQgMzIuMjEyN0MyMi41NDY4IDMyLjAyMTkgMjIuMDY5OCAzMS45MjY1IDIxLjU0OTQgMzEuOTI2NUgyMC4wOTIzQzE5LjU3MiAzMS45MjY1IDE5LjA4NjMgMzIuMDIxOSAxOC42MzUzIDMyLjIxMjdDMTguMjAxNiAzMi40MDM1IDE3LjgxMTQgMzIuNjcyNCAxNy40NjQ0IDMzLjAxOTNDMTcuMTM0OSAzMy4zNDg5IDE2Ljg3NDcgMzMuNzM5MiAxNi42ODM5IDM0LjE5MDJDMTYuNDkzMSAzNC42NDExIDE2LjM5NzcgMzUuMTE4MiAxNi4zOTc3IDM1LjYyMTJWMzYuMzQ5N0gxNy4xMjYyQzE3LjMzNDMgMzYuMzQ5NyAxNy41MDc4IDM2LjQyNzggMTcuNjQ2NiAzNi41ODM5QzE3Ljc4NTMgMzYuNzIyNyAxNy44NTQ3IDM2Ljg5NjEgMTcuODU0NyAzNy4xMDQzQzE3Ljg1NDcgMzcuMzEyNCAxNy43ODUzIDM3LjQ4NTkgMTcuNjQ2NiAzNy42MjQ2QzE3LjUwNzggMzcuNzYzNCAxNy4zMzQzIDM3LjgzMjggMTcuMTI2MiAzNy44MzI4SDE1LjY0MzFDMTUuNDUyMyAzNy44MzI4IDE1LjI3ODkgMzcuNzYzNCAxNS4xMjI4IDM3LjYyNDZDMTQuOTg0IDM3LjQ4NTkgMTQuOTE0NiAzNy4zMTI0IDE0LjkxNDYgMzcuMTA0M1YzNS42MjEyQzE0LjkxNDYgMzUuMDY2MSAxNC45OTI3IDM0LjU0NTcgMTUuMTQ4OCAzNC4wNjAxQzE1LjMyMjIgMzMuNTU3IDE1LjU0NzcgMzMuMDk3NCAxNS44MjUzIDMyLjY4MTFDMTYuMTIwMSAzMi4yNjQ4IDE2LjQ2NzEgMzEuOTAwNSAxNi44NjYgMzEuNTg4M0MxNy4yNjUgMzEuMjU4NyAxNy43MDczIDMwLjk5ODUgMTguMTkzIDMwLjgwNzdDMTcuNDgxOCAzMC4xMzEyIDE3LjEyNjIgMjkuMjcyNiAxNy4xMjYyIDI4LjIzMThDMTcuMTI2MiAyNy43Mjg4IDE3LjIyMTYgMjcuMjUxOCAxNy40MTI0IDI2LjgwMDhDMTcuNjAzMiAyNi4zNDk4IDE3Ljg2MzQgMjUuOTU5NSAxOC4xOTMgMjUuNjNDMTguNTM5OSAyNS4yODMxIDE4LjkzODggMjUuMDE0MiAxOS4zODk4IDI0LjgyMzRDMTkuODQwOCAyNC42MzI2IDIwLjMxNzggMjQuNTM3MiAyMC44MjA5IDI0LjUzNzJDMjEuMzIzOSAyNC41MzcyIDIxLjgwMDkgMjQuNjMyNiAyMi4yNTE5IDI0LjgyMzRDMjIuNzAyOSAyNS4wMTQyIDIzLjA5MzIgMjUuMjgzMSAyMy40MjI3IDI1LjYzQzIzLjc2OTYgMjUuOTU5NSAyNC4wMzg1IDI2LjM0OTggMjQuMjI5MyAyNi44MDA4QzI0LjQyMDEgMjcuMjUxOCAyNC41MTU1IDI3LjcyODggMjQuNTE1NSAyOC4yMzE4QzI0LjUxNTUgMjguNzM0OSAyNC40MjAxIDI5LjIxMTkgMjQuMjI5MyAyOS42NjI5QzI0LjAzODUgMzAuMDk2NSAyMy43NzgzIDMwLjQ3ODEgMjMuNDQ4NyAzMC44MDc3Wk0yMC44MjA5IDI2LjAyMDNDMjAuMjEzOCAyNi4wMjAzIDE5LjY5MzQgMjYuMjM3MSAxOS4yNTk3IDI2LjY3MDdDMTguODI2MSAyNy4xMDQ0IDE4LjYwOTMgMjcuNjI0NyAxOC42MDkzIDI4LjIzMThDMTguNjA5MyAyOC44MzkgMTguODI2MSAyOS4zNTkzIDE5LjI1OTcgMjkuNzkzQzE5LjY5MzQgMzAuMjI2NiAyMC4yMTM4IDMwLjQ0MzQgMjAuODIwOSAzMC40NDM0QzIxLjQyOCAzMC40NDM0IDIxLjk0ODMgMzAuMjI2NiAyMi4zODIgMjkuNzkzQzIyLjgxNTYgMjkuMzU5MyAyMy4wMzI0IDI4LjgzOSAyMy4wMzI0IDI4LjIzMThDMjMuMDMyNCAyNy42MjQ3IDIyLjgxNTYgMjcuMTA0NCAyMi4zODIgMjYuNjcwN0MyMS45NDgzIDI2LjIzNzEgMjEuNDI4IDI2LjAyMDMgMjAuODIwOSAyNi4wMjAzWiIvPiYjeGE7PGRlZnM+JiN4YTs8bGluZWFyR3JhZGllbnQgZ3JhZGllbnRVbml0cz0idXNlclNwYWNlT25Vc2UiIHkyPSI0NC4yNzkyIiB4Mj0iNDEuNTY0NSIgeTE9IjYuODQ3NzUiIHgxPSI0Ljg1Mjg3IiBpZD0icGFpbnQwX2xpbmVhcl8yNjIyXzIwNDc5Ij4mI3hhOzxzdG9wIHN0b3AtY29sb3I9IndoaXRlIi8+JiN4YTs8c3RvcCBzdG9wLWNvbG9yPSIjRUFFQ0VFIiBvZmZzZXQ9IjEiLz4mI3hhOzwvbGluZWFyR3JhZGllbnQ+JiN4YTs8cmFkaWFsR3JhZGllbnQgZ3JhZGllbnRUcmFuc2Zvcm09InRyYW5zbGF0ZSgxNi4xNzM5IDE1Ljk5NTIpIHJvdGF0ZSg0My44NzgpIHNjYWxlKDI1Ljg1MjQgNDguODExNykiIGdyYWRpZW50VW5pdHM9InVzZXJTcGFjZU9uVXNlIiByPSIxIiBjeT0iMCIgY3g9IjAiIGlkPSJwYWludDFfcmFkaWFsXzI2MjJfMjA0NzkiPiYjeGE7PHN0b3Agc3RvcC1jb2xvcj0iIzAxOTVGRiIvPiYjeGE7PHN0b3Agc3RvcC1jb2xvcj0iIzExNDdFOSIgb2Zmc2V0PSIxIi8+JiN4YTs8L3JhZGlhbEdyYWRpZW50PiYjeGE7PHJhZGlhbEdyYWRpZW50IGdyYWRpZW50VHJhbnNmb3JtPSJ0cmFuc2xhdGUoMTYuMTY3OCAxNi4wODc1KSByb3RhdGUoNDMuNTYwMikgc2NhbGUoMjUuODcyNyAyMy41NDcxKSIgZ3JhZGllbnRVbml0cz0idXNlclNwYWNlT25Vc2UiIHI9IjEiIGN5PSIwIiBjeD0iMCIgaWQ9InBhaW50Ml9yYWRpYWxfMjYyMl8yMDQ3OSI+JiN4YTs8c3RvcCBzdG9wLWNvbG9yPSIjMTM0OEZGIi8+JiN4YTs8c3RvcCBzdG9wLWNvbG9yPSIjMDYyMzhEIiBvZmZzZXQ9IjEiLz4mI3hhOzwvcmFkaWFsR3JhZGllbnQ+JiN4YTs8L2RlZnM+JiN4YTs8L3N2Zz4=;points=[[0,0,0,0,0],[0,0.25,0,0,0],[0,0.5,0,0,0],[0,0.75,0,0,0],[0.25,0,0,0,0],[0.5,0,0,0,0],[0.75,0,0,0,0],[1,0,0,0,0],[1,0.25,0,0,0],[1,0.5,0,0,0],[1,0.75,0,0,0]];" vertex="1" parent="WhO8sSTrkAHzqlUvpctj-24">
          <mxGeometry x="30" width="49" height="49" as="geometry" />
        </mxCell>
        <mxCell id="WhO8sSTrkAHzqlUvpctj-26" value="&lt;font color=&quot;#1d2d3e&quot; size=&quot;1&quot; face=&quot;arial&quot; style=&quot;&quot;&gt;&lt;b style=&quot;font-size: 14px;&quot;&gt;Identity Provisoning&lt;br&gt;&lt;/b&gt;&lt;/font&gt;" style="text;html=1;align=center;verticalAlign=top;resizable=1;points=[[0,0.5,0,0,0],[0.21,1,0,0,0],[0.5,1,0,0,0],[0.85,1,0,0,0],[1,0.5,0,0,0]];autosize=0;strokeColor=none;fillColor=none;fontSize=12;fontColor=default;fontFamily=Helvetica;fixedWidth=1;imageWidth=24;whiteSpace=wrap;labelBackgroundColor=none;" vertex="1" parent="WhO8sSTrkAHzqlUvpctj-24">
          <mxGeometry y="49" width="110" height="46" as="geometry" />
        </mxCell>
        <mxCell id="WhO8sSTrkAHzqlUvpctj-27" value="" style="edgeStyle=orthogonalEdgeStyle;rounded=0;orthogonalLoop=1;jettySize=auto;html=1;endArrow=blockThin;endFill=1;strokeColor=#475e74;endSize=4;startSize=4;strokeWidth=1.5;entryX=0;entryY=0.25;entryDx=0;entryDy=0;exitX=0.75;exitY=0;exitDx=0;exitDy=0;exitPerimeter=0;entryPerimeter=0;" edge="1" parent="v15C_StxA6uIfy9EPT-R-1" source="WhO8sSTrkAHzqlUvpctj-22" target="WhO8sSTrkAHzqlUvpctj-25">
          <mxGeometry relative="1" as="geometry">
            <mxPoint x="342" y="320" as="targetPoint" />
            <mxPoint x="224" y="201" as="sourcePoint" />
            <Array as="points" />
          </mxGeometry>
        </mxCell>
        <mxCell id="WhO8sSTrkAHzqlUvpctj-28" value="" style="group" vertex="1" connectable="0" parent="v15C_StxA6uIfy9EPT-R-1">
          <mxGeometry x="430" y="310" width="110" height="95" as="geometry" />
        </mxCell>
        <mxCell id="WhO8sSTrkAHzqlUvpctj-29" value="" style="shape=image;verticalLabelPosition=bottom;verticalAlign=top;imageAspect=0;aspect=fixed;image=data:image/svg+xml,PHN2ZyB4bWxucz0iaHR0cDovL3d3dy53My5vcmcvMjAwMC9zdmciIGZpbGw9Im5vbmUiIHZpZXdCb3g9IjAgMCA0OSA0OSIgaGVpZ2h0PSI0OSIgd2lkdGg9IjQ5Ij4mI3hhOzxnIGNsaXAtcGF0aD0idXJsKCNjbGlwMF8yNjIyXzM5NjcpIj4mI3hhOzxjaXJjbGUgc3Ryb2tlLXdpZHRoPSIwLjg1NzE0MyIgc3Ryb2tlPSIjRDVEQUREIiBmaWxsPSJ1cmwoI3BhaW50MF9saW5lYXJfMjYyMl8zOTY3KSIgcj0iMjMuNTcxNCIgY3k9IjI0LjAzNDkiIGN4PSIyNC41Ii8+JiN4YTs8ZyBjbGlwLXBhdGg9InVybCgjY2xpcDFfMjYyMl8zOTY3KSI+JiN4YTs8cGF0aCBmaWxsPSJ1cmwoI3BhaW50MV9yYWRpYWxfMjYyMl8zOTY3KSIgZD0iTTIyLjI0MjkgMzcuNDA4NUMyMS45MTMzIDM3LjMwNDcgMjEuNjAwMyAzNy4xMzQyIDIxLjMwNCAzNi44OTcyQzIwLjgxMTggMzYuNTEwNCAyMC41MTMgMzYuMDAwNyAyMC40MDc1IDM1LjM2NzlMMjAuMDM4NCAzMy42Mjc2TDE3Ljc3MDggMzIuMjU2NUwxNi4xODg4IDMyLjk0MjFDMTUuODM3MiAzMy4wNDc1IDE1LjUwMzIgMzMuMTAwMyAxNS4xODY4IDMzLjEwMDNDMTQuNjk0NiAzMy4xMDAzIDE0LjIyIDMyLjk3NzIgMTMuNzYzIDMyLjczMTFDMTMuMzQxMSAzMi40ODUgMTMuMDA3MSAzMi4xMTU5IDEyLjc2MSAzMS42MjM3TDExLjc1OTEgMjkuNjcyNUMxMS41ODMzIDI5LjI1MDcgMTEuNDk1NCAyOC44NjQgMTEuNDk1NCAyOC41MTI0QzExLjQ5NTQgMjcuNTk4MyAxMS44NjQ2IDI2Ljg2IDEyLjYwMjggMjYuMjk3NUwxMy44MTU3IDI1LjQwMTFWMjIuNjU4OUwxMi41NTAxIDIxLjcwOTdDMTEuODQ3IDIxLjE4MjMgMTEuNDk1NCAyMC40NjE2IDExLjQ5NTQgMTkuNTQ3NUMxMS40OTU0IDE5LjE5NiAxMS41ODMzIDE4LjgwOTMgMTEuNzU5MSAxOC4zODc0TDEyLjc2MSAxNi40MzYyQzEzLjAwNzEgMTUuOTQ0IDEzLjM0MTEgMTUuNTc0OSAxMy43NjMgMTUuMzI4OEMxNC4yMiAxNS4wODI3IDE0LjY5NDYgMTQuOTU5NyAxNS4xODY4IDE0Ljk1OTdDMTUuNTczNSAxNC45NTk3IDE1LjkwNzUgMTUuMDMgMTYuMTg4OCAxNS4xNzA2TDE3Ljc3MDggMTUuODAzNEwyMC4wMzg0IDE0LjQzMjNMMjAuNDA3NSAxMi42OTIxQzIwLjU0ODEgMTIuMDU5MyAyMC44NjQ1IDExLjU0OTUgMjEuMzU2NyAxMS4xNjI4QzIxLjg0ODkgMTAuNzQwOSAyMi40MTE0IDEwLjUzIDIzLjA0NDIgMTAuNTNIMjQuODg5OUMyNS41MjI3IDEwLjUzIDI2LjA4NTIgMTAuNzQwOSAyNi41Nzc0IDExLjE2MjhDMjcuMDY5NiAxMS41NDk1IDI3LjM4NiAxMi4wNTkzIDI3LjUyNjYgMTIuNjkyMUwyNy44NDMgMTQuNDMyM0wzMC4xNjM0IDE1LjgwMzRMMzEuNzQ1NCAxNS4xNzA2QzMyLjAyNjYgMTUuMDMgMzIuMzYwNiAxNC45NTk3IDMyLjc0NzMgMTQuOTU5N0MzMy4yMzk1IDE0Ljk1OTcgMzMuNjk2NiAxNS4wODI3IDM0LjExODQgMTUuMzI4OEMzNC41NzU1IDE1LjU3NDkgMzQuOTI3IDE1Ljk0NCAzNS4xNzMxIDE2LjQzNjJMMzYuMTIyMyAxOC4zODc0QzM2LjMzMzMgMTguNzM5IDM2LjQzODcgMTkuMTQzMiAzNi40Mzg3IDE5LjYwMDNDMzYuNDM4NyAyMC40NzkyIDM2LjA2OTYgMjEuMTgyMyAzNS4zMzEzIDIxLjcwOTdMMzQuNjMyMyAyMi4yMzM5SDI5LjA1NzJDMjkuMDI0MiAyMi4xNDYxIDI4Ljk4ODYgMjIuMDU5MiAyOC45NTA1IDIxLjk3MzNDMjguNjY5MiAyMS4zMDU0IDI4LjI4MjUgMjAuNzI1MyAyNy43OTAzIDIwLjIzMzFDMjcuMjk4MSAxOS43NDA5IDI2LjcxODEgMTkuMzU0MiAyNi4wNTAxIDE5LjA3MjlDMjUuMzgyMSAxOC43OTE3IDI0LjY3OSAxOC42NTExIDIzLjk0MDcgMTguNjUxMUMyMy4yMDI0IDE4LjY1MTEgMjIuNDk5MyAxOC43OTE3IDIxLjgzMTMgMTkuMDcyOUMyMS4xOTg1IDE5LjM1NDIgMjAuNjM2IDE5Ljc0MDkgMjAuMTQzOCAyMC4yMzMxQzE5LjY1MTcgMjAuNzI1MyAxOS4yNjQ5IDIxLjMwNTQgMTguOTgzNyAyMS45NzMzQzE4LjcwMjQgMjIuNjA2MSAxOC41NjE4IDIzLjI5MTcgMTguNTYxOCAyNC4wM0MxOC41NjE4IDI0Ljc2ODIgMTguNzAyNCAyNS40NzE0IDE4Ljk4MzcgMjYuMTM5M0MxOS4yNjQ5IDI2Ljc3MjIgMTkuNjUxNyAyNy4zMzQ3IDIwLjE0MzggMjcuODI2OEMyMC42MzYgMjguMzE5IDIxLjE5ODUgMjguNzA1NyAyMS44MzEzIDI4Ljk4N0MyMS45NjcxIDI5LjA0NDIgMjIuMTA0MyAyOS4wOTU1IDIyLjI0MjkgMjkuMTQxTDIyLjI0MjkgMzcuNDA4NVoiIGNsaXAtcnVsZT0iZXZlbm9kZCIgZmlsbC1ydWxlPSJldmVub2RkIi8+JiN4YTs8cGF0aCBmaWxsPSJ1cmwoI3BhaW50Ml9yYWRpYWxfMjYyMl8zOTY3KSIgZD0iTTI2LjYzMDQgMjQuOTMzOEMyNS42OTg1IDI0LjkzMzggMjQuOTQyOSAyNS42ODk0IDI0Ljk0MjkgMjYuNjIxM1YzNS44MDcyQzI0Ljk0MjkgMzYuNzM5MiAyNS42OTg1IDM3LjQ5NDcgMjYuNjMwNCAzNy40OTQ3SDM2Ljc4MjVDMzcuNzE0NSAzNy40OTQ3IDM4LjQ3IDM2LjczOTIgMzguNDcgMzUuODA3MlYyNi42MjEzQzM4LjQ3IDI1LjY4OTQgMzcuNzE0NSAyNC45MzM4IDM2Ljc4MjUgMjQuOTMzOEgyNi42MzA0Wk0zMS43MDc2IDI3LjQ3MTRDMzEuNzA3NiAyNy44OTg2IDMxLjM2MTMgMjguMjQ1IDMwLjkzNDEgMjguMjQ1QzMwLjUwNjggMjguMjQ1IDMwLjE2MDUgMjcuODk4NiAzMC4xNjA1IDI3LjQ3MTRDMzAuMTYwNSAyNy4wNDQyIDMwLjUwNjggMjYuNjk3OSAzMC45MzQxIDI2LjY5NzlDMzEuMzYxMyAyNi42OTc5IDMxLjcwNzYgMjcuMDQ0MiAzMS43MDc2IDI3LjQ3MTRaTTM0LjAyNjYgMjcuNDcxNEMzNC4wMjY2IDI3Ljg5ODYgMzMuNjgwMiAyOC4yNDUgMzMuMjUzIDI4LjI0NUMzMi44MjU4IDI4LjI0NSAzMi40Nzk1IDI3Ljg5ODYgMzIuNDc5NSAyNy40NzE0QzMyLjQ3OTUgMjcuMDQ0MiAzMi44MjU4IDI2LjY5NzkgMzMuMjUzIDI2LjY5NzlDMzMuNjgwMiAyNi42OTc5IDM0LjAyNjYgMjcuMDQ0MiAzNC4wMjY2IDI3LjQ3MTRaTTM1LjU3MTkgMjguMjQ1QzM1Ljk5OTEgMjguMjQ1IDM2LjM0NTUgMjcuODk4NiAzNi4zNDU1IDI3LjQ3MTRDMzYuMzQ1NSAyNy4wNDQyIDM1Ljk5OTEgMjYuNjk3OSAzNS41NzE5IDI2LjY5NzlDMzUuMTQ0NyAyNi42OTc5IDM0Ljc5ODQgMjcuMDQ0MiAzNC43OTg0IDI3LjQ3MTRDMzQuNzk4NCAyNy44OTg2IDM1LjE0NDcgMjguMjQ1IDM1LjU3MTkgMjguMjQ1Wk0yNi44NzU0IDMxLjEwOTNDMjYuODc1NCAzMC44OTU5IDI3LjA0ODQgMzAuNzIyOCAyNy4yNjE5IDMwLjcyMjhIMzYuMTUxMUMzNi4zNjQ2IDMwLjcyMjggMzYuNTM3NiAzMC44OTU5IDM2LjUzNzYgMzEuMTA5M1YzNC45Nzc3QzM2LjUzNzYgMzUuMTkxMSAzNi4zNjQ2IDM1LjM2NDEgMzYuMTUxMSAzNS4zNjQxSDI3LjI2MTlDMjcuMDQ4NCAzNS4zNjQxIDI2Ljg3NTQgMzUuMTkxMSAyNi44NzU0IDM0Ljk3NzdWMzEuMTA5M1oiIGNsaXAtcnVsZT0iZXZlbm9kZCIgZmlsbC1ydWxlPSJldmVub2RkIi8+JiN4YTs8L2c+JiN4YTs8L2c+JiN4YTs8ZGVmcz4mI3hhOzxsaW5lYXJHcmFkaWVudCBncmFkaWVudFVuaXRzPSJ1c2VyU3BhY2VPblVzZSIgeTI9IjQ0LjI3OTIiIHgyPSI0MS41NjQ1IiB5MT0iNi44NDc3NSIgeDE9IjQuODUyODciIGlkPSJwYWludDBfbGluZWFyXzI2MjJfMzk2NyI+JiN4YTs8c3RvcCBzdG9wLWNvbG9yPSJ3aGl0ZSIvPiYjeGE7PHN0b3Agc3RvcC1jb2xvcj0iI0VBRUNFRSIgb2Zmc2V0PSIxIi8+JiN4YTs8L2xpbmVhckdyYWRpZW50PiYjeGE7PHJhZGlhbEdyYWRpZW50IGdyYWRpZW50VHJhbnNmb3JtPSJ0cmFuc2xhdGUoMTUuMzYzNSAxNC40NzY1KSByb3RhdGUoNDcuNDU1Nykgc2NhbGUoMjUuNTQwNCA0OC4wODI0KSIgZ3JhZGllbnRVbml0cz0idXNlclNwYWNlT25Vc2UiIHI9IjEiIGN5PSIwIiBjeD0iMCIgaWQ9InBhaW50MV9yYWRpYWxfMjYyMl8zOTY3Ij4mI3hhOzxzdG9wIHN0b3AtY29sb3I9IiMwMTk1RkYiLz4mI3hhOzxzdG9wIHN0b3AtY29sb3I9IiMxMTQ3RTkiIG9mZnNldD0iMSIvPiYjeGE7PC9yYWRpYWxHcmFkaWVudD4mI3hhOzxyYWRpYWxHcmFkaWVudCBncmFkaWVudFRyYW5zZm9ybT0idHJhbnNsYXRlKDI3LjA5NTcgMjYuODE5KSByb3RhdGUoNDIuODc4OSkgc2NhbGUoMTIuOTI3NCAxNS42NDYyKSIgZ3JhZGllbnRVbml0cz0idXNlclNwYWNlT25Vc2UiIHI9IjEiIGN5PSIwIiBjeD0iMCIgaWQ9InBhaW50Ml9yYWRpYWxfMjYyMl8zOTY3Ij4mI3hhOzxzdG9wIHN0b3AtY29sb3I9IiMwMEJCRkYiLz4mI3hhOzxzdG9wIHN0b3AtY29sb3I9IiMwMDhCRkYiIG9mZnNldD0iMSIvPiYjeGE7PC9yYWRpYWxHcmFkaWVudD4mI3hhOzxjbGlwUGF0aCBpZD0iY2xpcDBfMjYyMl8zOTY3Ij4mI3hhOzxyZWN0IHRyYW5zZm9ybT0idHJhbnNsYXRlKDAuNSAwLjAzNDkxMjEpIiBmaWxsPSJ3aGl0ZSIgaGVpZ2h0PSI0OCIgd2lkdGg9IjQ4Ii8+JiN4YTs8L2NsaXBQYXRoPiYjeGE7PGNsaXBQYXRoIGlkPSJjbGlwMV8yNjIyXzM5NjciPiYjeGE7PHJlY3QgdHJhbnNmb3JtPSJ0cmFuc2xhdGUoMTEuNSAxMC41MzQ5KSIgZmlsbD0id2hpdGUiIGhlaWdodD0iMjciIHdpZHRoPSIyNyIvPiYjeGE7PC9jbGlwUGF0aD4mI3hhOzwvZGVmcz4mI3hhOzwvc3ZnPg==;points=[[0,0,0,0,0],[0,0.25,0,0,0],[0,0.5,0,0,0],[0,0.75,0,0,0],[0,1,0,-45,66],[0.25,0,0,0,0],[0.5,0,0,0,0],[0.75,0,0,0,0],[1,0,0,0,0],[1,0.25,0,0,0],[1,0.5,0,0,0],[1,0.75,0,0,0],[1,1,0,167,59],[1,1,0,185,119],[1,1,0,227,108],[1,1,0,253,92]];" vertex="1" parent="WhO8sSTrkAHzqlUvpctj-28">
          <mxGeometry x="30.5" width="49" height="49" as="geometry" />
        </mxCell>
        <mxCell id="WhO8sSTrkAHzqlUvpctj-30" value="&lt;font color=&quot;#1d2d3e&quot; size=&quot;1&quot; face=&quot;arial&quot; style=&quot;&quot;&gt;&lt;b style=&quot;font-size: 14px;&quot;&gt;Authorization&lt;br&gt;Management&lt;br&gt;&lt;/b&gt;&lt;/font&gt;" style="text;html=1;align=center;verticalAlign=top;resizable=1;points=[[0,0.5,0,0,0],[0.21,1,0,0,0],[0.5,1,0,0,0],[0.85,1,0,0,0],[1,0.5,0,0,0]];autosize=0;strokeColor=none;fillColor=none;fontSize=12;fontColor=default;fontFamily=Helvetica;fixedWidth=1;imageWidth=24;whiteSpace=wrap;labelBackgroundColor=none;" vertex="1" parent="WhO8sSTrkAHzqlUvpctj-28">
          <mxGeometry y="49" width="110" height="46" as="geometry" />
        </mxCell>
        <mxCell id="WhO8sSTrkAHzqlUvpctj-31" value="" style="edgeStyle=orthogonalEdgeStyle;rounded=0;orthogonalLoop=1;jettySize=auto;html=1;endArrow=blockThin;endFill=1;strokeColor=#7800A4;endSize=4;startSize=4;strokeWidth=1.5;exitX=1;exitY=0.5;exitDx=0;exitDy=0;exitPerimeter=0;entryX=0;entryY=0.5;entryDx=0;entryDy=0;entryPerimeter=0;startArrow=blockThin;startFill=1;" edge="1" parent="v15C_StxA6uIfy9EPT-R-1" source="WhO8sSTrkAHzqlUvpctj-22" target="WhO8sSTrkAHzqlUvpctj-29">
          <mxGeometry relative="1" as="geometry">
            <mxPoint x="430" y="310" as="targetPoint" />
            <mxPoint x="355" y="320" as="sourcePoint" />
            <Array as="points" />
          </mxGeometry>
        </mxCell>
        <mxCell id="WhO8sSTrkAHzqlUvpctj-32" value="" style="edgeStyle=orthogonalEdgeStyle;rounded=0;orthogonalLoop=1;jettySize=auto;html=1;endArrow=blockThin;endFill=1;strokeColor=#7800A4;endSize=4;startSize=4;strokeWidth=1.5;exitX=1;exitY=0.5;exitDx=0;exitDy=0;exitPerimeter=0;entryX=1;entryY=0.25;entryDx=0;entryDy=0;startArrow=blockThin;startFill=1;" edge="1" parent="v15C_StxA6uIfy9EPT-R-1" source="WhO8sSTrkAHzqlUvpctj-29" target="WhO8sSTrkAHzqlUvpctj-47">
          <mxGeometry relative="1" as="geometry">
            <mxPoint x="780" y="490" as="targetPoint" />
            <mxPoint x="519" y="225" as="sourcePoint" />
            <Array as="points">
              <mxPoint x="640" y="335" />
              <mxPoint x="640" y="470" />
            </Array>
          </mxGeometry>
        </mxCell>
        <mxCell id="WhO8sSTrkAHzqlUvpctj-33" value="" style="rounded=1;whiteSpace=wrap;html=1;strokeColor=#0070F2;strokeWidth=1.5;arcSize=16;fillColor=#FFFFFF;perimeterSpacing=0;absoluteArcSize=1;" vertex="1" parent="v15C_StxA6uIfy9EPT-R-1">
          <mxGeometry x="739" y="152.88" width="189" height="80" as="geometry" />
        </mxCell>
        <mxCell id="WhO8sSTrkAHzqlUvpctj-34" value="" style="shape=image;verticalLabelPosition=bottom;labelBackgroundColor=default;verticalAlign=top;aspect=fixed;imageAspect=0;image=data:image/svg+xml,PHN2ZyB4bWxucz0iaHR0cDovL3d3dy53My5vcmcvMjAwMC9zdmciIGZpbGw9Im5vbmUiIHZpZXdCb3g9IjAgMCAxNyAxMiIgaGVpZ2h0PSIxMiIgd2lkdGg9IjE3Ij4mI3hhOzxwYXRoIGZpbGw9InVybCgjcGFpbnQwX2xpbmVhcl83MjRfMTQpIiBkPSJNMTIuMzQ2MSAxMS45OTc0SDMuODE0ODVDMy4zNTY1MiAxMS45OTc0IDIuOTE5MDIgMTEuOTAzNiAyLjUwMjM1IDExLjcxNjJDMi4wODU2OCAxMS41MDc4IDEuNzIxMSAxMS4yMzcgMS40MDg2IDEwLjkwMzZDMS4wOTYxIDEwLjU0OTUgMC44NDYxIDEwLjE0MzIgMC42NTg2IDkuNjg0OTFDMC40OTE5MyA5LjIyNjYxIDAuNDA4NiA4LjczNzAxIDAuNDA4NiA4LjIxNjIxQzAuNDA4NiA3LjcxNjE2IDAuNDkxOTMgNy4yMzY5OSAwLjY1ODYgNi43Nzg2NkMwLjg0NjEgNi4zMjAzMyAxLjA4NTY4IDUuOTI0NDkgMS4zNzczNSA1LjU5MTE2QzEuNjY5MDIgNS4yMzY5OSAyLjAxMjc3IDQuOTY2MTYgMi40MDg2IDQuNzc4NjZDMi44MjUyNyA0LjU3MDMzIDMuMjYyNzcgNC40NjYxNiAzLjcyMTEgNC40NjYxNkMzLjgyNTI3IDMuODQxMTYgNC4wMTI3NyAzLjI1NzgzIDQuMjgzNiAyLjcxNjE2QzQuNTU0NDMgMi4xNTM2NiA0Ljg5ODE4IDEuNjc0NDkgNS4zMTQ4NSAxLjI3ODY2QzUuNzMxNTIgMC44ODI4MzQgNi4yMDAyNyAwLjU3MDMzNCA2LjcyMTEgMC4zNDExNjRDNy4yNjI3NyAwLjExMTk5NCA3LjgyNTI3IC0wLjAwMjU4NjM2IDguNDA4NiAtMC4wMDI1ODYzNkM5LjMwNDQzIC0wLjAwMjU4NjM2IDEwLjEzNzcgMC4yNjgyNDQgMTAuOTA4NiAwLjgwOTkxNEMxMS42Nzk0IDEuMzUxNTggMTIuMjczMSAyLjA4MDc0IDEyLjY4OTggMi45OTc0MUMxMy4yMTA2IDMuMDM5MDggMTMuNzAwMiAzLjE4NDkxIDE0LjE1ODYgMy40MzQ5MUMxNC42MTY5IDMuNjg0OTEgMTUuMDEyOCA0LjAxODI0IDE1LjM0NjEgNC40MzQ5MUMxNS42Nzk1IDQuODMwNzQgMTUuOTM5OCA1LjI4OTA4IDE2LjEyNzMgNS44MDk5MUMxNi4zMTQ4IDYuMzMwNzQgMTYuNDA4NiA2Ljg5MzI0IDE2LjQwODYgNy40OTc0MUMxNi40MDg2IDguMTIyNDEgMTYuMzA0NSA4LjcxNjIxIDE2LjA5NjEgOS4yNzg2MUMxNS44ODc4IDkuODIwMzEgMTUuNTk2MSAxMC4yOTk1IDE1LjIyMTEgMTAuNzE2MkMxNC44NjcgMTEuMTEyIDE0LjQzOTggMTEuNDI0NSAxMy45Mzk4IDExLjY1MzZDMTMuNDM5OCAxMS44ODI4IDEyLjkwODcgMTEuOTk3NCAxMi4zNDYxIDExLjk5NzRaTTMuODE0ODUgNi4wNTk5MUMzLjMxNDg1IDYuMDU5OTEgMi44ODc3NyA2LjI2ODI0IDIuNTMzNiA2LjY4NDkxQzIuMTc5NDMgNy4xMDE1OCAyLjAwMjM1IDcuNjExOTkgMi4wMDIzNSA4LjIxNjIxQzIuMDAyMzUgOC44MjAzMSAyLjE3OTQzIDkuMzQxMjEgMi41MzM2IDkuNzc4NjFDMi44ODc3NyAxMC4xOTUzIDMuMzE0ODUgMTAuNDAzNiAzLjgxNDg1IDEwLjQwMzZIMTIuMzQ2MUMxMy4wMzM3IDEwLjQwMzYgMTMuNjE3IDEwLjEyMjQgMTQuMDk2MSA5LjU1OTkxQzE0LjU3NTMgOC45OTc0MSAxNC44MTQ4IDguMzA5OTEgMTQuODE0OCA3LjQ5NzQxQzE0LjgxNDggNi42NjQwOCAxNC41NzUzIDUuOTY2MTYgMTQuMDk2MSA1LjQwMzY2QzEzLjYxNyA0Ljg0MTE2IDEzLjAzMzcgNC41NTk5MSAxMi4zNDYxIDQuNTU5OTFIMTIuMTI3M0MxMS43NzMxIDQuNTU5OTEgMTEuNTIzMSA0LjM4MjgzIDExLjM3NzMgNC4wMjg2NkMxMS4xMjczIDMuMjk5NDkgMTAuNzMxNSAyLjcxNjE2IDEwLjE4OTggMi4yNzg2NkM5LjY0ODE1IDEuODIwMzMgOS4wNTQ0MyAxLjU5MTE2IDguNDA4NiAxLjU5MTE2QzcuOTcxMSAxLjU5MTE2IDcuNTY0ODUgMS42OTUzMyA3LjE4OTg1IDEuOTAzNjZDNi44MTQ4NSAyLjA5MTE2IDYuNDgxNTIgMi4zNTE1OCA2LjE4OTg1IDIuNjg0OTFDNS45MTkwMiAyLjk5NzQxIDUuNzAwMjcgMy4zODI4MyA1LjUzMzYgMy44NDExNkM1LjM2NjkzIDQuMjc4NjYgNS4yODM2IDQuNzQ3NDEgNS4yODM2IDUuMjQ3NDFDNS4yODM2IDUuNDc2NTggNS4yMDAyNyA1LjY3NDQ5IDUuMDMzNiA1Ljg0MTE2QzQuODg3NzcgNS45ODY5OSA0LjcwMDI3IDYuMDU5OTEgNC40NzExIDYuMDU5OTFIMy44MTQ4NVoiLz4mI3hhOzxkZWZzPiYjeGE7PGxpbmVhckdyYWRpZW50IGdyYWRpZW50VW5pdHM9InVzZXJTcGFjZU9uVXNlIiB5Mj0iMTAuMzM3MyIgeDI9IjE0LjI2MDIiIHkxPSIxLjEyNjIzIiB4MT0iMi40NzY0NiIgaWQ9InBhaW50MF9saW5lYXJfNzI0XzE0Ij4mI3hhOzxzdG9wIHN0b3AtY29sb3I9IiMyMzk1RkYiLz4mI3hhOzxzdG9wIHN0b3AtY29sb3I9IiMwMDU3RDIiIG9mZnNldD0iMSIvPiYjeGE7PC9saW5lYXJHcmFkaWVudD4mI3hhOzwvZGVmcz4mI3hhOzwvc3ZnPg==;strokeWidth=1.5;" vertex="1" parent="v15C_StxA6uIfy9EPT-R-1">
          <mxGeometry x="748" y="164.51999999999998" width="34.52" height="24.36" as="geometry" />
        </mxCell>
        <mxCell id="WhO8sSTrkAHzqlUvpctj-35" value="&lt;font face=&quot;arial&quot; style=&quot;font-size: 16px;&quot;&gt;&lt;b style=&quot;font-size: 16px;&quot;&gt;SAP Cloud&lt;br&gt;Solutions&lt;/b&gt;&lt;/font&gt;" style="text;html=1;align=left;verticalAlign=middle;resizable=0;points=[];autosize=1;strokeColor=none;fillColor=none;fontSize=12;fontColor=#1d2d3e;fontFamily=Helvetica;" vertex="1" parent="v15C_StxA6uIfy9EPT-R-1">
          <mxGeometry x="788" y="157.88" width="100" height="50" as="geometry" />
        </mxCell>
        <mxCell id="WhO8sSTrkAHzqlUvpctj-36" value="" style="group" vertex="1" connectable="0" parent="v15C_StxA6uIfy9EPT-R-1">
          <mxGeometry x="801" y="324.26" width="67" height="68.25" as="geometry" />
        </mxCell>
        <mxCell id="WhO8sSTrkAHzqlUvpctj-37" value="" style="shape=image;verticalLabelPosition=bottom;labelBackgroundColor=default;verticalAlign=top;aspect=fixed;imageAspect=0;image=data:image/svg+xml,PHN2ZyB4bWxucz0iaHR0cDovL3d3dy53My5vcmcvMjAwMC9zdmciIGZpbGw9Im5vbmUiIHZpZXdCb3g9IjAgMCAxNyAxNyIgaGVpZ2h0PSIxNyIgd2lkdGg9IjE3Ij4mI3hhOzxwYXRoIGZpbGw9InVybCgjcGFpbnQwX2xpbmVhcl83MjNfMTEpIiBkPSJNMTUuODQ0NyAxNC45OTYyQzE2LjAxMTQgMTUuMTYyOSAxNi4wOTQ3IDE1LjM0IDE2LjA5NDcgMTUuNTI3NEMxNi4wOTQ3IDE1LjczNTggMTYuMDExNCAxNS45MjMzIDE1Ljg0NDcgMTYuMDlDMTUuNjc4IDE2LjI1NjYgMTUuNDkwNSAxNi4zNCAxNS4yODIyIDE2LjM0QzE1LjA3MzkgMTYuMzQgMTQuODg2NCAxNi4yNTY2IDE0LjcxOTcgMTYuMDlMMTEuNzgyMiAxMy4xNTI0QzExLjEzNjQgMTMuNjczMyAxMC40MDcyIDEzLjkxMjkgOS41OTQ2NyAxMy44NzEyQzguNzgyMTcgMTMuODI5NSA4LjA3Mzg0IDEzLjUwNjYgNy40Njk2NyAxMi45MDI0TDMuNjI1OTIgOS4wODk5N0MzLjMzNDI1IDguNzc3NDcgMy4xMDUwOSA4LjQ0NDE0IDIuOTM4NDIgOC4wODk5N0MyLjc3MTc1IDcuNzE0OTcgMi42NzggNy4zMzk5NyAyLjY1NzE3IDYuOTY0OTdDMi42NTcxNyA2LjU2OTE0IDIuNzA5MjUgNi4xODM3MiAyLjgxMzQyIDUuODA4NzJDMi45Mzg0MiA1LjQzMzcyIDMuMTM2MzQgNS4wODk5NyAzLjQwNzE3IDQuNzc3NDdMMC4zNDQ2NjYgMS43NDYyMkMwLjE3Nzk5OSAxLjU3OTU1IDAuMDk0NjY1NSAxLjM5MjA1IDAuMDk0NjY1NSAxLjE4MzcyQzAuMDk0NjY1NSAwLjk3NTM5IDAuMTc3OTk5IDAuNzg3ODkgMC4zNDQ2NjYgMC42MjEyMjNDMC41MTEzMzMgMC40NTQ1NTcgMC42OTg4MzMgMC4zNzEyMjMgMC45MDcxNjYgMC4zNzEyMjNDMS4xMTU1IDAuMzcxMjIzIDEuMzAzIDAuNDU0NTU3IDEuNDY5NjcgMC42MjEyMjNMNC41MDA5MiAzLjY1MjQ3QzUuMTQ2NzUgMy4xMzE2NCA1Ljg3NTkyIDIuODkyMDUgNi42ODg0MiAyLjkzMzcyQzcuNTAwOTIgMi45NzUzOSA4LjIwOTI1IDMuMjk4MyA4LjgxMzQyIDMuOTAyNDdMMTIuNjU3MiA3LjcxNDk3QzEyLjk0ODkgOC4wMjc0NyAxMy4xNzggOC4zNzEyMiAxMy4zNDQ3IDguNzQ2MjJDMTMuNTExNCA5LjEwMDM5IDEzLjYwNTEgOS40NzUzOSAxMy42MjU5IDkuODcxMjJDMTMuNjQ2OCAxMC4yNDYyIDEzLjU5NDcgMTAuNjIxMiAxMy40Njk3IDEwLjk5NjJDMTMuMzQ0NyAxMS4zNzEyIDEzLjE1NzIgMTEuNzE1IDEyLjkwNzIgMTIuMDI3NEwxNS44NDQ3IDE0Ljk5NjJaTTQuNzUwOTIgNS42NTI0N0M0LjQzODQyIDUuOTY0OTcgNC4yODIxNyA2LjMzOTk3IDQuMjgyMTcgNi43Nzc0N0M0LjI4MjE3IDcuMTk0MTQgNC40Mzg0MiA3LjU1ODcyIDQuNzUwOTIgNy44NzEyMkw2LjA5NDY3IDkuMjQ2MjJMOC45Njk2NyA2LjM3MTIyTDcuNjI1OTIgNC45OTYyMkM3LjMxMzQyIDQuNjgzNzIgNi45Mzg0MiA0LjUyNzQ3IDYuNTAwOTIgNC41Mjc0N0M2LjA4NDI1IDQuNTI3NDcgNS43MDkyNSA0LjY4MzcyIDUuMzc1OTIgNC45OTYyMkw0Ljc1MDkyIDUuNjUyNDdaTTguNTk0NjcgMTEuNzE1QzguOTA3MTcgMTIuMDI3NCA5LjI3MTc1IDEyLjE4MzcgOS42ODg0MiAxMi4xODM3QzEwLjEyNTkgMTIuMTgzNyAxMC41MDA5IDEyLjAyNzQgMTAuODEzNSAxMS43MTVMMTEuNDY5NyAxMS4wOUMxMS43ODIyIDEwLjc1NjYgMTEuOTM4NSAxMC4zODE2IDExLjkzODUgOS45NjQ5N0MxMS45Mzg1IDkuNTI3NDcgMTEuNzgyMiA5LjE1MjQ3IDExLjQ2OTcgOC44Mzk5N0wxMC4wOTQ3IDcuNDk2MjJMNy4yMTk2NyAxMC4zNzEyTDguNTk0NjcgMTEuNzE1WiIvPiYjeGE7PGRlZnM+JiN4YTs8bGluZWFyR3JhZGllbnQgZ3JhZGllbnRVbml0cz0idXNlclNwYWNlT25Vc2UiIHkyPSIxMC4xNjM5IiB4Mj0iMTYuMjc2NCIgeTE9IjEuODczMzgiIHgxPSIyLjE2MjUyIiBpZD0icGFpbnQwX2xpbmVhcl83MjNfMTEiPiYjeGE7PHN0b3Agc3RvcC1jb2xvcj0iIzIzOTVGRiIvPiYjeGE7PHN0b3Agc3RvcC1jb2xvcj0iIzAwNTdEMiIgb2Zmc2V0PSIxIi8+JiN4YTs8L2xpbmVhckdyYWRpZW50PiYjeGE7PC9kZWZzPiYjeGE7PC9zdmc+;" vertex="1" parent="WhO8sSTrkAHzqlUvpctj-36">
          <mxGeometry x="17" width="31" height="31" as="geometry" />
        </mxCell>
        <mxCell id="WhO8sSTrkAHzqlUvpctj-38" value="&lt;span style=&quot;font-family: Helvetica; font-style: normal; font-variant-ligatures: normal; font-variant-caps: normal; font-weight: 700; letter-spacing: normal; orphans: 2; text-indent: 0px; text-transform: none; widows: 2; word-spacing: 0px; -webkit-text-stroke-width: 0px; text-decoration-thickness: initial; text-decoration-style: initial; text-decoration-color: initial; float: none; display: inline !important;&quot;&gt;&lt;font style=&quot;font-size: 11px;&quot; color=&quot;#354a5f&quot;&gt;Cloud &lt;br&gt;Connector&lt;/font&gt;&lt;/span&gt;" style="text;whiteSpace=wrap;html=1;align=center;" vertex="1" parent="WhO8sSTrkAHzqlUvpctj-36">
          <mxGeometry y="28.25" width="67" height="40" as="geometry" />
        </mxCell>
        <mxCell id="WhO8sSTrkAHzqlUvpctj-39" value="" style="edgeStyle=orthogonalEdgeStyle;rounded=0;orthogonalLoop=1;jettySize=auto;html=1;endArrow=blockThin;endFill=1;strokeColor=#475e74;endSize=4;startSize=4;strokeWidth=1.5;entryX=1;entryY=0.5;entryDx=0;entryDy=0;exitX=1;exitY=0.25;exitDx=0;exitDy=0;exitPerimeter=0;" edge="1" parent="v15C_StxA6uIfy9EPT-R-1" source="WhO8sSTrkAHzqlUvpctj-25" target="WhO8sSTrkAHzqlUvpctj-47">
          <mxGeometry relative="1" as="geometry">
            <mxPoint x="918" y="203" as="targetPoint" />
            <mxPoint x="519" y="225" as="sourcePoint" />
            <Array as="points">
              <mxPoint x="680" y="202" />
              <mxPoint x="680" y="500" />
            </Array>
          </mxGeometry>
        </mxCell>
        <mxCell id="WhO8sSTrkAHzqlUvpctj-40" value="" style="edgeStyle=orthogonalEdgeStyle;rounded=0;orthogonalLoop=1;jettySize=auto;html=1;endArrow=blockThin;endFill=1;strokeColor=#475e74;endSize=4;startSize=4;strokeWidth=1.5;exitX=1;exitY=0.25;exitDx=0;exitDy=0;exitPerimeter=0;entryX=0;entryY=0.5;entryDx=0;entryDy=0;" edge="1" parent="v15C_StxA6uIfy9EPT-R-1" source="WhO8sSTrkAHzqlUvpctj-25" target="WhO8sSTrkAHzqlUvpctj-37">
          <mxGeometry relative="1" as="geometry">
            <mxPoint x="730" y="320" as="targetPoint" />
            <mxPoint x="519" y="237" as="sourcePoint" />
            <Array as="points">
              <mxPoint x="680" y="202" />
              <mxPoint x="680" y="340" />
              <mxPoint x="818" y="340" />
            </Array>
          </mxGeometry>
        </mxCell>
        <mxCell id="WhO8sSTrkAHzqlUvpctj-41" value="" style="edgeStyle=orthogonalEdgeStyle;rounded=0;orthogonalLoop=1;jettySize=auto;html=1;endArrow=blockThin;endFill=1;strokeColor=#475e74;endSize=4;startSize=4;strokeWidth=1.5;exitX=1;exitY=0.25;exitDx=0;exitDy=0;exitPerimeter=0;entryX=0.002;entryY=0.616;entryDx=0;entryDy=0;entryPerimeter=0;" edge="1" parent="v15C_StxA6uIfy9EPT-R-1" source="WhO8sSTrkAHzqlUvpctj-25" target="WhO8sSTrkAHzqlUvpctj-33">
          <mxGeometry relative="1" as="geometry">
            <mxPoint x="730" y="202" as="targetPoint" />
            <mxPoint x="355" y="320" as="sourcePoint" />
            <Array as="points" />
          </mxGeometry>
        </mxCell>
        <mxCell id="WhO8sSTrkAHzqlUvpctj-42" value="&lt;font size=&quot;1&quot; color=&quot;#f5f6f7&quot;&gt;&lt;b&gt;Authorizations&lt;/b&gt;&lt;/font&gt;" style="rounded=1;whiteSpace=wrap;html=1;arcSize=50;strokeColor=none;fillColor=#7800A4;" vertex="1" parent="v15C_StxA6uIfy9EPT-R-1">
          <mxGeometry x="560" y="326" width="78" height="16" as="geometry" />
        </mxCell>
        <mxCell id="WhO8sSTrkAHzqlUvpctj-43" value="" style="edgeStyle=orthogonalEdgeStyle;rounded=0;orthogonalLoop=1;jettySize=auto;html=1;endArrow=blockThin;endFill=1;strokeColor=#475e74;endSize=4;startSize=4;strokeWidth=1.5;entryX=0.5;entryY=0;entryDx=0;entryDy=0;exitX=0.5;exitY=1;exitDx=0;exitDy=0;startArrow=blockThin;startFill=1;" edge="1" parent="v15C_StxA6uIfy9EPT-R-1" target="WhO8sSTrkAHzqlUvpctj-44">
          <mxGeometry relative="1" as="geometry">
            <mxPoint x="357" y="320" as="targetPoint" />
            <mxPoint x="359.27499999999986" y="420" as="sourcePoint" />
            <Array as="points" />
          </mxGeometry>
        </mxCell>
        <mxCell id="WhO8sSTrkAHzqlUvpctj-44" value="" style="rounded=1;whiteSpace=wrap;html=1;strokeColor=#0070F2;strokeWidth=1.5;arcSize=16;fillColor=#FFFFFF;perimeterSpacing=0;absoluteArcSize=1;" vertex="1" parent="v15C_StxA6uIfy9EPT-R-1">
          <mxGeometry x="275" y="440" width="170.00000000000003" height="120" as="geometry" />
        </mxCell>
        <mxCell id="WhO8sSTrkAHzqlUvpctj-45" value="&lt;span style=&quot;font-size: 15px; font-weight: 700;&quot;&gt;&lt;font color=&quot;#1d2d3e&quot;&gt;SAP Cloud Identity Access Governance&lt;/font&gt;&lt;/span&gt;" style="text;whiteSpace=wrap;html=1;align=center;" vertex="1" parent="v15C_StxA6uIfy9EPT-R-1">
          <mxGeometry x="284.8414965986394" y="503.144936086529" width="150.3979591836735" height="45.55555555555556" as="geometry" />
        </mxCell>
        <mxCell id="WhO8sSTrkAHzqlUvpctj-46" value="" style="shape=image;verticalLabelPosition=bottom;verticalAlign=top;imageAspect=0;aspect=fixed;image=data:image/svg+xml,PHN2ZyB4bWxucz0iaHR0cDovL3d3dy53My5vcmcvMjAwMC9zdmciIGZpbGw9Im5vbmUiIHZpZXdCb3g9IjAgMCA0OSA0OSIgaGVpZ2h0PSI0OSIgd2lkdGg9IjQ5Ij4mI3hhOzxnIGNsaXAtcGF0aD0idXJsKCNjbGlwMF8yNjIyXzM5NjcpIj4mI3hhOzxjaXJjbGUgc3Ryb2tlLXdpZHRoPSIwLjg1NzE0MyIgc3Ryb2tlPSIjRDVEQUREIiBmaWxsPSJ1cmwoI3BhaW50MF9saW5lYXJfMjYyMl8zOTY3KSIgcj0iMjMuNTcxNCIgY3k9IjI0LjAzNDkiIGN4PSIyNC41Ii8+JiN4YTs8ZyBjbGlwLXBhdGg9InVybCgjY2xpcDFfMjYyMl8zOTY3KSI+JiN4YTs8cGF0aCBmaWxsPSJ1cmwoI3BhaW50MV9yYWRpYWxfMjYyMl8zOTY3KSIgZD0iTTIyLjI0MjkgMzcuNDA4NUMyMS45MTMzIDM3LjMwNDcgMjEuNjAwMyAzNy4xMzQyIDIxLjMwNCAzNi44OTcyQzIwLjgxMTggMzYuNTEwNCAyMC41MTMgMzYuMDAwNyAyMC40MDc1IDM1LjM2NzlMMjAuMDM4NCAzMy42Mjc2TDE3Ljc3MDggMzIuMjU2NUwxNi4xODg4IDMyLjk0MjFDMTUuODM3MiAzMy4wNDc1IDE1LjUwMzIgMzMuMTAwMyAxNS4xODY4IDMzLjEwMDNDMTQuNjk0NiAzMy4xMDAzIDE0LjIyIDMyLjk3NzIgMTMuNzYzIDMyLjczMTFDMTMuMzQxMSAzMi40ODUgMTMuMDA3MSAzMi4xMTU5IDEyLjc2MSAzMS42MjM3TDExLjc1OTEgMjkuNjcyNUMxMS41ODMzIDI5LjI1MDcgMTEuNDk1NCAyOC44NjQgMTEuNDk1NCAyOC41MTI0QzExLjQ5NTQgMjcuNTk4MyAxMS44NjQ2IDI2Ljg2IDEyLjYwMjggMjYuMjk3NUwxMy44MTU3IDI1LjQwMTFWMjIuNjU4OUwxMi41NTAxIDIxLjcwOTdDMTEuODQ3IDIxLjE4MjMgMTEuNDk1NCAyMC40NjE2IDExLjQ5NTQgMTkuNTQ3NUMxMS40OTU0IDE5LjE5NiAxMS41ODMzIDE4LjgwOTMgMTEuNzU5MSAxOC4zODc0TDEyLjc2MSAxNi40MzYyQzEzLjAwNzEgMTUuOTQ0IDEzLjM0MTEgMTUuNTc0OSAxMy43NjMgMTUuMzI4OEMxNC4yMiAxNS4wODI3IDE0LjY5NDYgMTQuOTU5NyAxNS4xODY4IDE0Ljk1OTdDMTUuNTczNSAxNC45NTk3IDE1LjkwNzUgMTUuMDMgMTYuMTg4OCAxNS4xNzA2TDE3Ljc3MDggMTUuODAzNEwyMC4wMzg0IDE0LjQzMjNMMjAuNDA3NSAxMi42OTIxQzIwLjU0ODEgMTIuMDU5MyAyMC44NjQ1IDExLjU0OTUgMjEuMzU2NyAxMS4xNjI4QzIxLjg0ODkgMTAuNzQwOSAyMi40MTE0IDEwLjUzIDIzLjA0NDIgMTAuNTNIMjQuODg5OUMyNS41MjI3IDEwLjUzIDI2LjA4NTIgMTAuNzQwOSAyNi41Nzc0IDExLjE2MjhDMjcuMDY5NiAxMS41NDk1IDI3LjM4NiAxMi4wNTkzIDI3LjUyNjYgMTIuNjkyMUwyNy44NDMgMTQuNDMyM0wzMC4xNjM0IDE1LjgwMzRMMzEuNzQ1NCAxNS4xNzA2QzMyLjAyNjYgMTUuMDMgMzIuMzYwNiAxNC45NTk3IDMyLjc0NzMgMTQuOTU5N0MzMy4yMzk1IDE0Ljk1OTcgMzMuNjk2NiAxNS4wODI3IDM0LjExODQgMTUuMzI4OEMzNC41NzU1IDE1LjU3NDkgMzQuOTI3IDE1Ljk0NCAzNS4xNzMxIDE2LjQzNjJMMzYuMTIyMyAxOC4zODc0QzM2LjMzMzMgMTguNzM5IDM2LjQzODcgMTkuMTQzMiAzNi40Mzg3IDE5LjYwMDNDMzYuNDM4NyAyMC40NzkyIDM2LjA2OTYgMjEuMTgyMyAzNS4zMzEzIDIxLjcwOTdMMzQuNjMyMyAyMi4yMzM5SDI5LjA1NzJDMjkuMDI0MiAyMi4xNDYxIDI4Ljk4ODYgMjIuMDU5MiAyOC45NTA1IDIxLjk3MzNDMjguNjY5MiAyMS4zMDU0IDI4LjI4MjUgMjAuNzI1MyAyNy43OTAzIDIwLjIzMzFDMjcuMjk4MSAxOS43NDA5IDI2LjcxODEgMTkuMzU0MiAyNi4wNTAxIDE5LjA3MjlDMjUuMzgyMSAxOC43OTE3IDI0LjY3OSAxOC42NTExIDIzLjk0MDcgMTguNjUxMUMyMy4yMDI0IDE4LjY1MTEgMjIuNDk5MyAxOC43OTE3IDIxLjgzMTMgMTkuMDcyOUMyMS4xOTg1IDE5LjM1NDIgMjAuNjM2IDE5Ljc0MDkgMjAuMTQzOCAyMC4yMzMxQzE5LjY1MTcgMjAuNzI1MyAxOS4yNjQ5IDIxLjMwNTQgMTguOTgzNyAyMS45NzMzQzE4LjcwMjQgMjIuNjA2MSAxOC41NjE4IDIzLjI5MTcgMTguNTYxOCAyNC4wM0MxOC41NjE4IDI0Ljc2ODIgMTguNzAyNCAyNS40NzE0IDE4Ljk4MzcgMjYuMTM5M0MxOS4yNjQ5IDI2Ljc3MjIgMTkuNjUxNyAyNy4zMzQ3IDIwLjE0MzggMjcuODI2OEMyMC42MzYgMjguMzE5IDIxLjE5ODUgMjguNzA1NyAyMS44MzEzIDI4Ljk4N0MyMS45NjcxIDI5LjA0NDIgMjIuMTA0MyAyOS4wOTU1IDIyLjI0MjkgMjkuMTQxTDIyLjI0MjkgMzcuNDA4NVoiIGNsaXAtcnVsZT0iZXZlbm9kZCIgZmlsbC1ydWxlPSJldmVub2RkIi8+JiN4YTs8cGF0aCBmaWxsPSJ1cmwoI3BhaW50Ml9yYWRpYWxfMjYyMl8zOTY3KSIgZD0iTTI2LjYzMDQgMjQuOTMzOEMyNS42OTg1IDI0LjkzMzggMjQuOTQyOSAyNS42ODk0IDI0Ljk0MjkgMjYuNjIxM1YzNS44MDcyQzI0Ljk0MjkgMzYuNzM5MiAyNS42OTg1IDM3LjQ5NDcgMjYuNjMwNCAzNy40OTQ3SDM2Ljc4MjVDMzcuNzE0NSAzNy40OTQ3IDM4LjQ3IDM2LjczOTIgMzguNDcgMzUuODA3MlYyNi42MjEzQzM4LjQ3IDI1LjY4OTQgMzcuNzE0NSAyNC45MzM4IDM2Ljc4MjUgMjQuOTMzOEgyNi42MzA0Wk0zMS43MDc2IDI3LjQ3MTRDMzEuNzA3NiAyNy44OTg2IDMxLjM2MTMgMjguMjQ1IDMwLjkzNDEgMjguMjQ1QzMwLjUwNjggMjguMjQ1IDMwLjE2MDUgMjcuODk4NiAzMC4xNjA1IDI3LjQ3MTRDMzAuMTYwNSAyNy4wNDQyIDMwLjUwNjggMjYuNjk3OSAzMC45MzQxIDI2LjY5NzlDMzEuMzYxMyAyNi42OTc5IDMxLjcwNzYgMjcuMDQ0MiAzMS43MDc2IDI3LjQ3MTRaTTM0LjAyNjYgMjcuNDcxNEMzNC4wMjY2IDI3Ljg5ODYgMzMuNjgwMiAyOC4yNDUgMzMuMjUzIDI4LjI0NUMzMi44MjU4IDI4LjI0NSAzMi40Nzk1IDI3Ljg5ODYgMzIuNDc5NSAyNy40NzE0QzMyLjQ3OTUgMjcuMDQ0MiAzMi44MjU4IDI2LjY5NzkgMzMuMjUzIDI2LjY5NzlDMzMuNjgwMiAyNi42OTc5IDM0LjAyNjYgMjcuMDQ0MiAzNC4wMjY2IDI3LjQ3MTRaTTM1LjU3MTkgMjguMjQ1QzM1Ljk5OTEgMjguMjQ1IDM2LjM0NTUgMjcuODk4NiAzNi4zNDU1IDI3LjQ3MTRDMzYuMzQ1NSAyNy4wNDQyIDM1Ljk5OTEgMjYuNjk3OSAzNS41NzE5IDI2LjY5NzlDMzUuMTQ0NyAyNi42OTc5IDM0Ljc5ODQgMjcuMDQ0MiAzNC43OTg0IDI3LjQ3MTRDMzQuNzk4NCAyNy44OTg2IDM1LjE0NDcgMjguMjQ1IDM1LjU3MTkgMjguMjQ1Wk0yNi44NzU0IDMxLjEwOTNDMjYuODc1NCAzMC44OTU5IDI3LjA0ODQgMzAuNzIyOCAyNy4yNjE5IDMwLjcyMjhIMzYuMTUxMUMzNi4zNjQ2IDMwLjcyMjggMzYuNTM3NiAzMC44OTU5IDM2LjUzNzYgMzEuMTA5M1YzNC45Nzc3QzM2LjUzNzYgMzUuMTkxMSAzNi4zNjQ2IDM1LjM2NDEgMzYuMTUxMSAzNS4zNjQxSDI3LjI2MTlDMjcuMDQ4NCAzNS4zNjQxIDI2Ljg3NTQgMzUuMTkxMSAyNi44NzU0IDM0Ljk3NzdWMzEuMTA5M1oiIGNsaXAtcnVsZT0iZXZlbm9kZCIgZmlsbC1ydWxlPSJldmVub2RkIi8+JiN4YTs8L2c+JiN4YTs8L2c+JiN4YTs8ZGVmcz4mI3hhOzxsaW5lYXJHcmFkaWVudCBncmFkaWVudFVuaXRzPSJ1c2VyU3BhY2VPblVzZSIgeTI9IjQ0LjI3OTIiIHgyPSI0MS41NjQ1IiB5MT0iNi44NDc3NSIgeDE9IjQuODUyODciIGlkPSJwYWludDBfbGluZWFyXzI2MjJfMzk2NyI+JiN4YTs8c3RvcCBzdG9wLWNvbG9yPSJ3aGl0ZSIvPiYjeGE7PHN0b3Agc3RvcC1jb2xvcj0iI0VBRUNFRSIgb2Zmc2V0PSIxIi8+JiN4YTs8L2xpbmVhckdyYWRpZW50PiYjeGE7PHJhZGlhbEdyYWRpZW50IGdyYWRpZW50VHJhbnNmb3JtPSJ0cmFuc2xhdGUoMTUuMzYzNSAxNC40NzY1KSByb3RhdGUoNDcuNDU1Nykgc2NhbGUoMjUuNTQwNCA0OC4wODI0KSIgZ3JhZGllbnRVbml0cz0idXNlclNwYWNlT25Vc2UiIHI9IjEiIGN5PSIwIiBjeD0iMCIgaWQ9InBhaW50MV9yYWRpYWxfMjYyMl8zOTY3Ij4mI3hhOzxzdG9wIHN0b3AtY29sb3I9IiMwMTk1RkYiLz4mI3hhOzxzdG9wIHN0b3AtY29sb3I9IiMxMTQ3RTkiIG9mZnNldD0iMSIvPiYjeGE7PC9yYWRpYWxHcmFkaWVudD4mI3hhOzxyYWRpYWxHcmFkaWVudCBncmFkaWVudFRyYW5zZm9ybT0idHJhbnNsYXRlKDI3LjA5NTcgMjYuODE5KSByb3RhdGUoNDIuODc4OSkgc2NhbGUoMTIuOTI3NCAxNS42NDYyKSIgZ3JhZGllbnRVbml0cz0idXNlclNwYWNlT25Vc2UiIHI9IjEiIGN5PSIwIiBjeD0iMCIgaWQ9InBhaW50Ml9yYWRpYWxfMjYyMl8zOTY3Ij4mI3hhOzxzdG9wIHN0b3AtY29sb3I9IiMwMEJCRkYiLz4mI3hhOzxzdG9wIHN0b3AtY29sb3I9IiMwMDhCRkYiIG9mZnNldD0iMSIvPiYjeGE7PC9yYWRpYWxHcmFkaWVudD4mI3hhOzxjbGlwUGF0aCBpZD0iY2xpcDBfMjYyMl8zOTY3Ij4mI3hhOzxyZWN0IHRyYW5zZm9ybT0idHJhbnNsYXRlKDAuNSAwLjAzNDkxMjEpIiBmaWxsPSJ3aGl0ZSIgaGVpZ2h0PSI0OCIgd2lkdGg9IjQ4Ii8+JiN4YTs8L2NsaXBQYXRoPiYjeGE7PGNsaXBQYXRoIGlkPSJjbGlwMV8yNjIyXzM5NjciPiYjeGE7PHJlY3QgdHJhbnNmb3JtPSJ0cmFuc2xhdGUoMTEuNSAxMC41MzQ5KSIgZmlsbD0id2hpdGUiIGhlaWdodD0iMjciIHdpZHRoPSIyNyIvPiYjeGE7PC9jbGlwUGF0aD4mI3hhOzwvZGVmcz4mI3hhOzwvc3ZnPg==;points=[[0,0,0,0,0],[0,0.25,0,0,0],[0,0.5,0,0,0],[0,0.75,0,0,0],[0,1,0,-45,66],[0.25,0,0,0,0],[0.5,0,0,0,0],[0.75,0,0,0,0],[1,0,0,0,0],[1,0.25,0,0,0],[1,0.5,0,0,0],[1,0.75,0,0,0],[1,1,0,167,59],[1,1,0,185,119],[1,1,0,227,108],[1,1,0,253,92]];" vertex="1" parent="v15C_StxA6uIfy9EPT-R-1">
          <mxGeometry x="335.5" y="454.14" width="49" height="49" as="geometry" />
        </mxCell>
        <mxCell id="WhO8sSTrkAHzqlUvpctj-47" value="" style="rounded=1;whiteSpace=wrap;html=1;strokeColor=#0070F2;strokeWidth=1.5;arcSize=16;fillColor=#FFFFFF;perimeterSpacing=0;absoluteArcSize=1;" vertex="1" parent="v15C_StxA6uIfy9EPT-R-1">
          <mxGeometry x="460" y="440" width="170.00000000000003" height="120" as="geometry" />
        </mxCell>
        <mxCell id="WhO8sSTrkAHzqlUvpctj-48" value="&lt;span style=&quot;font-size: 15px; font-weight: 700;&quot;&gt;&lt;font color=&quot;#1d2d3e&quot;&gt;SAP BTP application&lt;/font&gt;&lt;/span&gt;" style="text;whiteSpace=wrap;html=1;align=center;" vertex="1" parent="v15C_StxA6uIfy9EPT-R-1">
          <mxGeometry x="469.8414965986394" y="503.144936086529" width="150.3979591836735" height="45.55555555555556" as="geometry" />
        </mxCell>
        <mxCell id="WhO8sSTrkAHzqlUvpctj-49" value="" style="shape=image;verticalLabelPosition=bottom;verticalAlign=top;imageAspect=0;aspect=fixed;image=data:image/svg+xml,PHN2ZyB4bWxucz0iaHR0cDovL3d3dy53My5vcmcvMjAwMC9zdmciIGZpbGw9Im5vbmUiIHZpZXdCb3g9IjAgMCA0OSA0OSIgaGVpZ2h0PSI0OSIgd2lkdGg9IjQ5Ij4mI3hhOzxnIGNsaXAtcGF0aD0idXJsKCNjbGlwMF8yNjIyXzM5NjcpIj4mI3hhOzxjaXJjbGUgc3Ryb2tlLXdpZHRoPSIwLjg1NzE0MyIgc3Ryb2tlPSIjRDVEQUREIiBmaWxsPSJ1cmwoI3BhaW50MF9saW5lYXJfMjYyMl8zOTY3KSIgcj0iMjMuNTcxNCIgY3k9IjI0LjAzNDkiIGN4PSIyNC41Ii8+JiN4YTs8ZyBjbGlwLXBhdGg9InVybCgjY2xpcDFfMjYyMl8zOTY3KSI+JiN4YTs8cGF0aCBmaWxsPSJ1cmwoI3BhaW50MV9yYWRpYWxfMjYyMl8zOTY3KSIgZD0iTTIyLjI0MjkgMzcuNDA4NUMyMS45MTMzIDM3LjMwNDcgMjEuNjAwMyAzNy4xMzQyIDIxLjMwNCAzNi44OTcyQzIwLjgxMTggMzYuNTEwNCAyMC41MTMgMzYuMDAwNyAyMC40MDc1IDM1LjM2NzlMMjAuMDM4NCAzMy42Mjc2TDE3Ljc3MDggMzIuMjU2NUwxNi4xODg4IDMyLjk0MjFDMTUuODM3MiAzMy4wNDc1IDE1LjUwMzIgMzMuMTAwMyAxNS4xODY4IDMzLjEwMDNDMTQuNjk0NiAzMy4xMDAzIDE0LjIyIDMyLjk3NzIgMTMuNzYzIDMyLjczMTFDMTMuMzQxMSAzMi40ODUgMTMuMDA3MSAzMi4xMTU5IDEyLjc2MSAzMS42MjM3TDExLjc1OTEgMjkuNjcyNUMxMS41ODMzIDI5LjI1MDcgMTEuNDk1NCAyOC44NjQgMTEuNDk1NCAyOC41MTI0QzExLjQ5NTQgMjcuNTk4MyAxMS44NjQ2IDI2Ljg2IDEyLjYwMjggMjYuMjk3NUwxMy44MTU3IDI1LjQwMTFWMjIuNjU4OUwxMi41NTAxIDIxLjcwOTdDMTEuODQ3IDIxLjE4MjMgMTEuNDk1NCAyMC40NjE2IDExLjQ5NTQgMTkuNTQ3NUMxMS40OTU0IDE5LjE5NiAxMS41ODMzIDE4LjgwOTMgMTEuNzU5MSAxOC4zODc0TDEyLjc2MSAxNi40MzYyQzEzLjAwNzEgMTUuOTQ0IDEzLjM0MTEgMTUuNTc0OSAxMy43NjMgMTUuMzI4OEMxNC4yMiAxNS4wODI3IDE0LjY5NDYgMTQuOTU5NyAxNS4xODY4IDE0Ljk1OTdDMTUuNTczNSAxNC45NTk3IDE1LjkwNzUgMTUuMDMgMTYuMTg4OCAxNS4xNzA2TDE3Ljc3MDggMTUuODAzNEwyMC4wMzg0IDE0LjQzMjNMMjAuNDA3NSAxMi42OTIxQzIwLjU0ODEgMTIuMDU5MyAyMC44NjQ1IDExLjU0OTUgMjEuMzU2NyAxMS4xNjI4QzIxLjg0ODkgMTAuNzQwOSAyMi40MTE0IDEwLjUzIDIzLjA0NDIgMTAuNTNIMjQuODg5OUMyNS41MjI3IDEwLjUzIDI2LjA4NTIgMTAuNzQwOSAyNi41Nzc0IDExLjE2MjhDMjcuMDY5NiAxMS41NDk1IDI3LjM4NiAxMi4wNTkzIDI3LjUyNjYgMTIuNjkyMUwyNy44NDMgMTQuNDMyM0wzMC4xNjM0IDE1LjgwMzRMMzEuNzQ1NCAxNS4xNzA2QzMyLjAyNjYgMTUuMDMgMzIuMzYwNiAxNC45NTk3IDMyLjc0NzMgMTQuOTU5N0MzMy4yMzk1IDE0Ljk1OTcgMzMuNjk2NiAxNS4wODI3IDM0LjExODQgMTUuMzI4OEMzNC41NzU1IDE1LjU3NDkgMzQuOTI3IDE1Ljk0NCAzNS4xNzMxIDE2LjQzNjJMMzYuMTIyMyAxOC4zODc0QzM2LjMzMzMgMTguNzM5IDM2LjQzODcgMTkuMTQzMiAzNi40Mzg3IDE5LjYwMDNDMzYuNDM4NyAyMC40NzkyIDM2LjA2OTYgMjEuMTgyMyAzNS4zMzEzIDIxLjcwOTdMMzQuNjMyMyAyMi4yMzM5SDI5LjA1NzJDMjkuMDI0MiAyMi4xNDYxIDI4Ljk4ODYgMjIuMDU5MiAyOC45NTA1IDIxLjk3MzNDMjguNjY5MiAyMS4zMDU0IDI4LjI4MjUgMjAuNzI1MyAyNy43OTAzIDIwLjIzMzFDMjcuMjk4MSAxOS43NDA5IDI2LjcxODEgMTkuMzU0MiAyNi4wNTAxIDE5LjA3MjlDMjUuMzgyMSAxOC43OTE3IDI0LjY3OSAxOC42NTExIDIzLjk0MDcgMTguNjUxMUMyMy4yMDI0IDE4LjY1MTEgMjIuNDk5MyAxOC43OTE3IDIxLjgzMTMgMTkuMDcyOUMyMS4xOTg1IDE5LjM1NDIgMjAuNjM2IDE5Ljc0MDkgMjAuMTQzOCAyMC4yMzMxQzE5LjY1MTcgMjAuNzI1MyAxOS4yNjQ5IDIxLjMwNTQgMTguOTgzNyAyMS45NzMzQzE4LjcwMjQgMjIuNjA2MSAxOC41NjE4IDIzLjI5MTcgMTguNTYxOCAyNC4wM0MxOC41NjE4IDI0Ljc2ODIgMTguNzAyNCAyNS40NzE0IDE4Ljk4MzcgMjYuMTM5M0MxOS4yNjQ5IDI2Ljc3MjIgMTkuNjUxNyAyNy4zMzQ3IDIwLjE0MzggMjcuODI2OEMyMC42MzYgMjguMzE5IDIxLjE5ODUgMjguNzA1NyAyMS44MzEzIDI4Ljk4N0MyMS45NjcxIDI5LjA0NDIgMjIuMTA0MyAyOS4wOTU1IDIyLjI0MjkgMjkuMTQxTDIyLjI0MjkgMzcuNDA4NVoiIGNsaXAtcnVsZT0iZXZlbm9kZCIgZmlsbC1ydWxlPSJldmVub2RkIi8+JiN4YTs8cGF0aCBmaWxsPSJ1cmwoI3BhaW50Ml9yYWRpYWxfMjYyMl8zOTY3KSIgZD0iTTI2LjYzMDQgMjQuOTMzOEMyNS42OTg1IDI0LjkzMzggMjQuOTQyOSAyNS42ODk0IDI0Ljk0MjkgMjYuNjIxM1YzNS44MDcyQzI0Ljk0MjkgMzYuNzM5MiAyNS42OTg1IDM3LjQ5NDcgMjYuNjMwNCAzNy40OTQ3SDM2Ljc4MjVDMzcuNzE0NSAzNy40OTQ3IDM4LjQ3IDM2LjczOTIgMzguNDcgMzUuODA3MlYyNi42MjEzQzM4LjQ3IDI1LjY4OTQgMzcuNzE0NSAyNC45MzM4IDM2Ljc4MjUgMjQuOTMzOEgyNi42MzA0Wk0zMS43MDc2IDI3LjQ3MTRDMzEuNzA3NiAyNy44OTg2IDMxLjM2MTMgMjguMjQ1IDMwLjkzNDEgMjguMjQ1QzMwLjUwNjggMjguMjQ1IDMwLjE2MDUgMjcuODk4NiAzMC4xNjA1IDI3LjQ3MTRDMzAuMTYwNSAyNy4wNDQyIDMwLjUwNjggMjYuNjk3OSAzMC45MzQxIDI2LjY5NzlDMzEuMzYxMyAyNi42OTc5IDMxLjcwNzYgMjcuMDQ0MiAzMS43MDc2IDI3LjQ3MTRaTTM0LjAyNjYgMjcuNDcxNEMzNC4wMjY2IDI3Ljg5ODYgMzMuNjgwMiAyOC4yNDUgMzMuMjUzIDI4LjI0NUMzMi44MjU4IDI4LjI0NSAzMi40Nzk1IDI3Ljg5ODYgMzIuNDc5NSAyNy40NzE0QzMyLjQ3OTUgMjcuMDQ0MiAzMi44MjU4IDI2LjY5NzkgMzMuMjUzIDI2LjY5NzlDMzMuNjgwMiAyNi42OTc5IDM0LjAyNjYgMjcuMDQ0MiAzNC4wMjY2IDI3LjQ3MTRaTTM1LjU3MTkgMjguMjQ1QzM1Ljk5OTEgMjguMjQ1IDM2LjM0NTUgMjcuODk4NiAzNi4zNDU1IDI3LjQ3MTRDMzYuMzQ1NSAyNy4wNDQyIDM1Ljk5OTEgMjYuNjk3OSAzNS41NzE5IDI2LjY5NzlDMzUuMTQ0NyAyNi42OTc5IDM0Ljc5ODQgMjcuMDQ0MiAzNC43OTg0IDI3LjQ3MTRDMzQuNzk4NCAyNy44OTg2IDM1LjE0NDcgMjguMjQ1IDM1LjU3MTkgMjguMjQ1Wk0yNi44NzU0IDMxLjEwOTNDMjYuODc1NCAzMC44OTU5IDI3LjA0ODQgMzAuNzIyOCAyNy4yNjE5IDMwLjcyMjhIMzYuMTUxMUMzNi4zNjQ2IDMwLjcyMjggMzYuNTM3NiAzMC44OTU5IDM2LjUzNzYgMzEuMTA5M1YzNC45Nzc3QzM2LjUzNzYgMzUuMTkxMSAzNi4zNjQ2IDM1LjM2NDEgMzYuMTUxMSAzNS4zNjQxSDI3LjI2MTlDMjcuMDQ4NCAzNS4zNjQxIDI2Ljg3NTQgMzUuMTkxMSAyNi44NzU0IDM0Ljk3NzdWMzEuMTA5M1oiIGNsaXAtcnVsZT0iZXZlbm9kZCIgZmlsbC1ydWxlPSJldmVub2RkIi8+JiN4YTs8L2c+JiN4YTs8L2c+JiN4YTs8ZGVmcz4mI3hhOzxsaW5lYXJHcmFkaWVudCBncmFkaWVudFVuaXRzPSJ1c2VyU3BhY2VPblVzZSIgeTI9IjQ0LjI3OTIiIHgyPSI0MS41NjQ1IiB5MT0iNi44NDc3NSIgeDE9IjQuODUyODciIGlkPSJwYWludDBfbGluZWFyXzI2MjJfMzk2NyI+JiN4YTs8c3RvcCBzdG9wLWNvbG9yPSJ3aGl0ZSIvPiYjeGE7PHN0b3Agc3RvcC1jb2xvcj0iI0VBRUNFRSIgb2Zmc2V0PSIxIi8+JiN4YTs8L2xpbmVhckdyYWRpZW50PiYjeGE7PHJhZGlhbEdyYWRpZW50IGdyYWRpZW50VHJhbnNmb3JtPSJ0cmFuc2xhdGUoMTUuMzYzNSAxNC40NzY1KSByb3RhdGUoNDcuNDU1Nykgc2NhbGUoMjUuNTQwNCA0OC4wODI0KSIgZ3JhZGllbnRVbml0cz0idXNlclNwYWNlT25Vc2UiIHI9IjEiIGN5PSIwIiBjeD0iMCIgaWQ9InBhaW50MV9yYWRpYWxfMjYyMl8zOTY3Ij4mI3hhOzxzdG9wIHN0b3AtY29sb3I9IiMwMTk1RkYiLz4mI3hhOzxzdG9wIHN0b3AtY29sb3I9IiMxMTQ3RTkiIG9mZnNldD0iMSIvPiYjeGE7PC9yYWRpYWxHcmFkaWVudD4mI3hhOzxyYWRpYWxHcmFkaWVudCBncmFkaWVudFRyYW5zZm9ybT0idHJhbnNsYXRlKDI3LjA5NTcgMjYuODE5KSByb3RhdGUoNDIuODc4OSkgc2NhbGUoMTIuOTI3NCAxNS42NDYyKSIgZ3JhZGllbnRVbml0cz0idXNlclNwYWNlT25Vc2UiIHI9IjEiIGN5PSIwIiBjeD0iMCIgaWQ9InBhaW50Ml9yYWRpYWxfMjYyMl8zOTY3Ij4mI3hhOzxzdG9wIHN0b3AtY29sb3I9IiMwMEJCRkYiLz4mI3hhOzxzdG9wIHN0b3AtY29sb3I9IiMwMDhCRkYiIG9mZnNldD0iMSIvPiYjeGE7PC9yYWRpYWxHcmFkaWVudD4mI3hhOzxjbGlwUGF0aCBpZD0iY2xpcDBfMjYyMl8zOTY3Ij4mI3hhOzxyZWN0IHRyYW5zZm9ybT0idHJhbnNsYXRlKDAuNSAwLjAzNDkxMjEpIiBmaWxsPSJ3aGl0ZSIgaGVpZ2h0PSI0OCIgd2lkdGg9IjQ4Ii8+JiN4YTs8L2NsaXBQYXRoPiYjeGE7PGNsaXBQYXRoIGlkPSJjbGlwMV8yNjIyXzM5NjciPiYjeGE7PHJlY3QgdHJhbnNmb3JtPSJ0cmFuc2xhdGUoMTEuNSAxMC41MzQ5KSIgZmlsbD0id2hpdGUiIGhlaWdodD0iMjciIHdpZHRoPSIyNyIvPiYjeGE7PC9jbGlwUGF0aD4mI3hhOzwvZGVmcz4mI3hhOzwvc3ZnPg==;points=[[0,0,0,0,0],[0,0.25,0,0,0],[0,0.5,0,0,0],[0,0.75,0,0,0],[0,1,0,-45,66],[0.25,0,0,0,0],[0.5,0,0,0,0],[0.75,0,0,0,0],[1,0,0,0,0],[1,0.25,0,0,0],[1,0.5,0,0,0],[1,0.75,0,0,0],[1,1,0,167,59],[1,1,0,185,119],[1,1,0,227,108],[1,1,0,253,92]];" vertex="1" parent="v15C_StxA6uIfy9EPT-R-1">
          <mxGeometry x="520.5" y="454.14" width="49" height="49" as="geometry" />
        </mxCell>
        <mxCell id="WhO8sSTrkAHzqlUvpctj-50" value="" style="edgeStyle=orthogonalEdgeStyle;rounded=0;orthogonalLoop=1;jettySize=auto;html=1;endArrow=blockThin;endFill=1;strokeColor=#475e74;endSize=4;startSize=4;strokeWidth=1.5;entryX=0;entryY=0.5;entryDx=0;entryDy=0;exitX=1;exitY=0.75;exitDx=0;exitDy=0;entryPerimeter=0;" edge="1" parent="v15C_StxA6uIfy9EPT-R-1" source="WhO8sSTrkAHzqlUvpctj-6" target="WhO8sSTrkAHzqlUvpctj-22">
          <mxGeometry relative="1" as="geometry">
            <mxPoint x="329" y="334.5" as="targetPoint" />
            <mxPoint x="555" y="320" as="sourcePoint" />
            <Array as="points" />
          </mxGeometry>
        </mxCell>
        <mxCell id="WhO8sSTrkAHzqlUvpctj-51" value="&lt;font size=&quot;1&quot; color=&quot;#f5f6f7&quot;&gt;&lt;b&gt;Identity Lifecycle&lt;/b&gt;&lt;/font&gt;" style="rounded=1;whiteSpace=wrap;html=1;arcSize=50;strokeColor=none;fillColor=#475E74;" vertex="1" parent="v15C_StxA6uIfy9EPT-R-1">
          <mxGeometry x="197" y="326" width="95" height="16" as="geometry" />
        </mxCell>
        <mxCell id="WhO8sSTrkAHzqlUvpctj-52" value="&lt;font size=&quot;1&quot; color=&quot;#f5f6f7&quot;&gt;&lt;b&gt;Identity Lifecycle&lt;/b&gt;&lt;/font&gt;" style="rounded=1;whiteSpace=wrap;html=1;arcSize=50;strokeColor=none;fillColor=#475E74;" vertex="1" parent="v15C_StxA6uIfy9EPT-R-1">
          <mxGeometry x="571.5" y="194.88" width="95" height="16" as="geometry" />
        </mxCell>
        <mxCell id="WhO8sSTrkAHzqlUvpctj-53" value="&lt;font face=&quot;Arial&quot; color=&quot;#1a2733&quot;&gt;&lt;b&gt;&amp;nbsp;&lt;/b&gt;&lt;/font&gt;" style="text;html=1;align=center;verticalAlign=middle;resizable=0;points=[];autosize=1;strokeColor=none;fillColor=none;fontSize=16;fontFamily=Helvetica;fontColor=default;" vertex="1" parent="v15C_StxA6uIfy9EPT-R-1">
          <mxGeometry x="898.0000000000002" y="550" width="30" height="30" as="geometry" />
        </mxCell>
        <mxCell id="WhO8sSTrkAHzqlUvpctj-54" value="&lt;p style=&quot;line-height: 100%;&quot;&gt;&lt;b&gt;&lt;font face=&quot;arial black&quot; style=&quot;font-size: 16px;&quot; color=&quot;#ffffff&quot;&gt;1&lt;/font&gt;&lt;/b&gt;&lt;/p&gt;" style="ellipse;whiteSpace=wrap;html=1;aspect=fixed;rotation=0;gradientColor=#0057D2;strokeColor=none;gradientDirection=east;fillColor=#2395FF;rounded=0;pointerEvents=0;fontFamily=Helvetica;fontSize=12;fontColor=default;spacingTop=4;spacingBottom=4;spacingLeft=4;spacingRight=4;" vertex="1" parent="v15C_StxA6uIfy9EPT-R-1">
          <mxGeometry y="127.88" width="30" height="30" as="geometry" />
        </mxCell>
        <mxCell id="WhO8sSTrkAHzqlUvpctj-55" value="&lt;p style=&quot;line-height: 100%;&quot;&gt;&lt;b&gt;&lt;font face=&quot;arial black&quot; style=&quot;font-size: 16px;&quot; color=&quot;#ffffff&quot;&gt;2&lt;/font&gt;&lt;/b&gt;&lt;/p&gt;" style="ellipse;whiteSpace=wrap;html=1;aspect=fixed;rotation=0;gradientColor=#0057D2;strokeColor=none;gradientDirection=east;fillColor=#2395FF;rounded=0;pointerEvents=0;fontFamily=Helvetica;fontSize=12;fontColor=default;spacingTop=4;spacingBottom=4;spacingLeft=4;spacingRight=4;" vertex="1" parent="v15C_StxA6uIfy9EPT-R-1">
          <mxGeometry x="167" y="272" width="30" height="30" as="geometry" />
        </mxCell>
        <mxCell id="WhO8sSTrkAHzqlUvpctj-56" value="&lt;p style=&quot;line-height: 100%;&quot;&gt;&lt;b&gt;&lt;font face=&quot;arial black&quot; style=&quot;font-size: 16px;&quot; color=&quot;#ffffff&quot;&gt;3&lt;/font&gt;&lt;/b&gt;&lt;/p&gt;" style="ellipse;whiteSpace=wrap;html=1;aspect=fixed;rotation=0;gradientColor=#0057D2;strokeColor=none;gradientDirection=east;fillColor=#2395FF;rounded=0;pointerEvents=0;fontFamily=Helvetica;fontSize=12;fontColor=default;spacingTop=4;spacingBottom=4;spacingLeft=4;spacingRight=4;" vertex="1" parent="v15C_StxA6uIfy9EPT-R-1">
          <mxGeometry x="320" y="280" width="30" height="30" as="geometry" />
        </mxCell>
        <mxCell id="WhO8sSTrkAHzqlUvpctj-57" value="&lt;p style=&quot;line-height: 100%;&quot;&gt;&lt;b&gt;&lt;font face=&quot;arial black&quot; style=&quot;font-size: 16px;&quot; color=&quot;#ffffff&quot;&gt;4&lt;/font&gt;&lt;/b&gt;&lt;/p&gt;" style="ellipse;whiteSpace=wrap;html=1;aspect=fixed;rotation=0;gradientColor=#0057D2;strokeColor=none;gradientDirection=east;fillColor=#2395FF;rounded=0;pointerEvents=0;fontFamily=Helvetica;fontSize=12;fontColor=default;spacingTop=4;spacingBottom=4;spacingLeft=4;spacingRight=4;" vertex="1" parent="v15C_StxA6uIfy9EPT-R-1">
          <mxGeometry x="306" y="450" width="30" height="30" as="geometry" />
        </mxCell>
        <mxCell id="WhO8sSTrkAHzqlUvpctj-58" value="&lt;p style=&quot;line-height: 100%;&quot;&gt;&lt;b&gt;&lt;font face=&quot;arial black&quot; style=&quot;font-size: 16px;&quot; color=&quot;#ffffff&quot;&gt;5&lt;/font&gt;&lt;/b&gt;&lt;/p&gt;" style="ellipse;whiteSpace=wrap;html=1;aspect=fixed;rotation=0;gradientColor=#0057D2;strokeColor=none;gradientDirection=east;fillColor=#2395FF;rounded=0;pointerEvents=0;fontFamily=Helvetica;fontSize=12;fontColor=default;spacingTop=4;spacingBottom=4;spacingLeft=4;spacingRight=4;" vertex="1" parent="v15C_StxA6uIfy9EPT-R-1">
          <mxGeometry x="525" y="168" width="30" height="30" as="geometry" />
        </mxCell>
      </root>
    </mxGraphModel>
  </diagram>
</mxfile>
